<?xml version="1.0" encoding="utf-8" standalone="no"?>
<!DOCTYPE svg PUBLIC "-//W3C//DTD SVG 1.1//EN"
  "http://www.w3.org/Graphics/SVG/1.1/DTD/svg11.dtd">
<!-- Created with matplotlib (http://matplotlib.org/) -->
<svg height="288pt" version="1.1" viewBox="0 0 648 288" width="648pt" xmlns="http://www.w3.org/2000/svg" xmlns:xlink="http://www.w3.org/1999/xlink">
 <defs>
  <style type="text/css">
*{stroke-linecap:butt;stroke-linejoin:round;}
  </style>
 </defs>
 <g id="figure_1">
  <g id="patch_1">
   <path d="M 0 288
L 648 288
L 648 0
L 0 0
z
" style="fill:#ffffff;"/>
  </g>
  <g id="axes_1">
   <g id="patch_2">
    <path d="M 42.01 227.935
L 209.88 227.935
L 209.88 60.065
L 42.01 60.065
z
" style="fill:#ffffff;"/>
   </g>
   <g id="matplotlib.axis_1">
    <g id="xtick_1">
     <g id="line2d_1">
      <defs>
       <path d="M 0 0
L 0 3.5
" id="m5e46d2238a" style="stroke:#000000;stroke-width:0.8;"/>
      </defs>
      <g>
       <use style="stroke:#000000;stroke-width:0.8;" x="46.006905" xlink:href="#m5e46d2238a" y="227.935"/>
      </g>
     </g>
     <g id="text_1">
      <!-- −1.0 -->
      <defs>
       <path d="M 10.59375 35.5
L 73.1875 35.5
L 73.1875 27.203125
L 10.59375 27.203125
z
" id="DejaVuSans-2212"/>
       <path d="M 12.40625 8.296875
L 28.515625 8.296875
L 28.515625 63.921875
L 10.984375 60.40625
L 10.984375 69.390625
L 28.421875 72.90625
L 38.28125 72.90625
L 38.28125 8.296875
L 54.390625 8.296875
L 54.390625 0
L 12.40625 0
z
" id="DejaVuSans-31"/>
       <path d="M 10.6875 12.40625
L 21 12.40625
L 21 0
L 10.6875 0
z
" id="DejaVuSans-2e"/>
       <path d="M 31.78125 66.40625
Q 24.171875 66.40625 20.328125 58.90625
Q 16.5 51.421875 16.5 36.375
Q 16.5 21.390625 20.328125 13.890625
Q 24.171875 6.390625 31.78125 6.390625
Q 39.453125 6.390625 43.28125 13.890625
Q 47.125 21.390625 47.125 36.375
Q 47.125 51.421875 43.28125 58.90625
Q 39.453125 66.40625 31.78125 66.40625
z
M 31.78125 74.21875
Q 44.046875 74.21875 50.515625 64.515625
Q 56.984375 54.828125 56.984375 36.375
Q 56.984375 17.96875 50.515625 8.265625
Q 44.046875 -1.421875 31.78125 -1.421875
Q 19.53125 -1.421875 13.0625 8.265625
Q 6.59375 17.96875 6.59375 36.375
Q 6.59375 54.828125 13.0625 64.515625
Q 19.53125 74.21875 31.78125 74.21875
z
" id="DejaVuSans-30"/>
      </defs>
      <g transform="translate(33.865499 242.533437)scale(0.1 -0.1)">
       <use xlink:href="#DejaVuSans-2212"/>
       <use x="83.789062" xlink:href="#DejaVuSans-31"/>
       <use x="147.412109" xlink:href="#DejaVuSans-2e"/>
       <use x="179.199219" xlink:href="#DejaVuSans-30"/>
      </g>
     </g>
    </g>
    <g id="xtick_2">
     <g id="line2d_2">
      <g>
       <use style="stroke:#000000;stroke-width:0.8;" x="85.975952" xlink:href="#m5e46d2238a" y="227.935"/>
      </g>
     </g>
     <g id="text_2">
      <!-- −0.5 -->
      <defs>
       <path d="M 10.796875 72.90625
L 49.515625 72.90625
L 49.515625 64.59375
L 19.828125 64.59375
L 19.828125 46.734375
Q 21.96875 47.46875 24.109375 47.828125
Q 26.265625 48.1875 28.421875 48.1875
Q 40.625 48.1875 47.75 41.5
Q 54.890625 34.8125 54.890625 23.390625
Q 54.890625 11.625 47.5625 5.09375
Q 40.234375 -1.421875 26.90625 -1.421875
Q 22.3125 -1.421875 17.546875 -0.640625
Q 12.796875 0.140625 7.71875 1.703125
L 7.71875 11.625
Q 12.109375 9.234375 16.796875 8.0625
Q 21.484375 6.890625 26.703125 6.890625
Q 35.15625 6.890625 40.078125 11.328125
Q 45.015625 15.765625 45.015625 23.390625
Q 45.015625 31 40.078125 35.4375
Q 35.15625 39.890625 26.703125 39.890625
Q 22.75 39.890625 18.8125 39.015625
Q 14.890625 38.140625 10.796875 36.28125
z
" id="DejaVuSans-35"/>
      </defs>
      <g transform="translate(73.834546 242.533437)scale(0.1 -0.1)">
       <use xlink:href="#DejaVuSans-2212"/>
       <use x="83.789062" xlink:href="#DejaVuSans-30"/>
       <use x="147.412109" xlink:href="#DejaVuSans-2e"/>
       <use x="179.199219" xlink:href="#DejaVuSans-35"/>
      </g>
     </g>
    </g>
    <g id="xtick_3">
     <g id="line2d_3">
      <g>
       <use style="stroke:#000000;stroke-width:0.8;" x="125.945" xlink:href="#m5e46d2238a" y="227.935"/>
      </g>
     </g>
     <g id="text_3">
      <!-- 0.0 -->
      <g transform="translate(117.993437 242.533437)scale(0.1 -0.1)">
       <use xlink:href="#DejaVuSans-30"/>
       <use x="63.623047" xlink:href="#DejaVuSans-2e"/>
       <use x="95.410156" xlink:href="#DejaVuSans-30"/>
      </g>
     </g>
    </g>
    <g id="xtick_4">
     <g id="line2d_4">
      <g>
       <use style="stroke:#000000;stroke-width:0.8;" x="165.914048" xlink:href="#m5e46d2238a" y="227.935"/>
      </g>
     </g>
     <g id="text_4">
      <!-- 0.5 -->
      <g transform="translate(157.962485 242.533437)scale(0.1 -0.1)">
       <use xlink:href="#DejaVuSans-30"/>
       <use x="63.623047" xlink:href="#DejaVuSans-2e"/>
       <use x="95.410156" xlink:href="#DejaVuSans-35"/>
      </g>
     </g>
    </g>
    <g id="xtick_5">
     <g id="line2d_5">
      <g>
       <use style="stroke:#000000;stroke-width:0.8;" x="205.883095" xlink:href="#m5e46d2238a" y="227.935"/>
      </g>
     </g>
     <g id="text_5">
      <!-- 1.0 -->
      <g transform="translate(197.931533 242.533437)scale(0.1 -0.1)">
       <use xlink:href="#DejaVuSans-31"/>
       <use x="63.623047" xlink:href="#DejaVuSans-2e"/>
       <use x="95.410156" xlink:href="#DejaVuSans-30"/>
      </g>
     </g>
    </g>
   </g>
   <g id="matplotlib.axis_2">
    <g id="ytick_1">
     <g id="line2d_6">
      <defs>
       <path d="M 0 0
L -3.5 0
" id="m6c55ea91e7" style="stroke:#000000;stroke-width:0.8;"/>
      </defs>
      <g>
       <use style="stroke:#000000;stroke-width:0.8;" x="42.01" xlink:href="#m6c55ea91e7" y="223.938095"/>
      </g>
     </g>
     <g id="text_6">
      <!-- −1.0 -->
      <g transform="translate(10.727187 227.737314)scale(0.1 -0.1)">
       <use xlink:href="#DejaVuSans-2212"/>
       <use x="83.789062" xlink:href="#DejaVuSans-31"/>
       <use x="147.412109" xlink:href="#DejaVuSans-2e"/>
       <use x="179.199219" xlink:href="#DejaVuSans-30"/>
      </g>
     </g>
    </g>
    <g id="ytick_2">
     <g id="line2d_7">
      <g>
       <use style="stroke:#000000;stroke-width:0.8;" x="42.01" xlink:href="#m6c55ea91e7" y="183.969048"/>
      </g>
     </g>
     <g id="text_7">
      <!-- −0.5 -->
      <g transform="translate(10.727187 187.768266)scale(0.1 -0.1)">
       <use xlink:href="#DejaVuSans-2212"/>
       <use x="83.789062" xlink:href="#DejaVuSans-30"/>
       <use x="147.412109" xlink:href="#DejaVuSans-2e"/>
       <use x="179.199219" xlink:href="#DejaVuSans-35"/>
      </g>
     </g>
    </g>
    <g id="ytick_3">
     <g id="line2d_8">
      <g>
       <use style="stroke:#000000;stroke-width:0.8;" x="42.01" xlink:href="#m6c55ea91e7" y="144"/>
      </g>
     </g>
     <g id="text_8">
      <!-- 0.0 -->
      <g transform="translate(19.106875 147.799219)scale(0.1 -0.1)">
       <use xlink:href="#DejaVuSans-30"/>
       <use x="63.623047" xlink:href="#DejaVuSans-2e"/>
       <use x="95.410156" xlink:href="#DejaVuSans-30"/>
      </g>
     </g>
    </g>
    <g id="ytick_4">
     <g id="line2d_9">
      <g>
       <use style="stroke:#000000;stroke-width:0.8;" x="42.01" xlink:href="#m6c55ea91e7" y="104.030952"/>
      </g>
     </g>
     <g id="text_9">
      <!-- 0.5 -->
      <g transform="translate(19.106875 107.830171)scale(0.1 -0.1)">
       <use xlink:href="#DejaVuSans-30"/>
       <use x="63.623047" xlink:href="#DejaVuSans-2e"/>
       <use x="95.410156" xlink:href="#DejaVuSans-35"/>
      </g>
     </g>
    </g>
    <g id="ytick_5">
     <g id="line2d_10">
      <g>
       <use style="stroke:#000000;stroke-width:0.8;" x="42.01" xlink:href="#m6c55ea91e7" y="64.061905"/>
      </g>
     </g>
     <g id="text_10">
      <!-- 1.0 -->
      <g transform="translate(19.106875 67.861124)scale(0.1 -0.1)">
       <use xlink:href="#DejaVuSans-31"/>
       <use x="63.623047" xlink:href="#DejaVuSans-2e"/>
       <use x="95.410156" xlink:href="#DejaVuSans-30"/>
      </g>
     </g>
    </g>
   </g>
   <g id="line2d_11">
    <path clip-path="url(#p77c26b181d)" d="M 205.883095 144
L 205.772624 139.798875
L 205.441517 135.609361
L 204.890689 131.443038
L 204.121662 127.311422
L 203.136561 123.225931
L 201.93811 119.197858
L 200.529621 115.238335
L 198.914987 111.358308
L 197.09867 107.568499
L 195.085691 103.879383
L 192.881614 100.301158
L 190.492529 96.843712
L 187.925041 93.516601
L 185.186246 90.329023
L 182.283714 87.289785
L 179.225466 84.40729
L 176.019956 81.689504
L 172.676043 79.143938
L 169.202969 76.777629
L 165.610335 74.597116
L 161.908069 72.608427
L 158.106405 70.817057
L 154.215849 69.227959
L 150.247155 67.845523
L 146.211293 66.673572
L 142.119416 65.715344
L 137.982834 64.973488
L 133.812981 64.450054
L 129.621382 64.146489
L 125.419621 64.063631
L 121.219313 64.201711
L 117.032065 64.560346
L 112.869453 65.138545
L 108.74298 65.93471
L 104.664052 66.94664
L 100.643942 68.171539
L 96.693763 69.606021
L 92.824431 71.246121
L 89.046641 73.087306
L 85.370835 75.124488
L 81.807173 77.352035
L 78.365503 79.763791
L 75.055339 82.35309
L 71.885829 85.112776
L 68.865734 88.035221
L 66.003401 91.112348
L 63.306741 94.335651
L 60.783208 97.696222
L 58.439776 101.184772
L 56.282922 104.79166
L 54.318608 108.506916
L 52.552263 112.320272
L 50.988769 116.221187
L 49.632447 120.198881
L 48.487046 124.242359
L 47.555731 128.340446
L 46.841078 132.481814
L 46.345061 136.655017
L 46.069051 140.848521
L 46.013811 145.050735
L 46.179493 149.250045
L 46.56564 153.434845
L 47.171185 157.593568
L 47.994453 161.714719
L 49.033169 165.786908
L 50.284463 169.79888
L 51.744876 173.739547
L 53.410371 177.598016
L 55.276345 181.363623
L 57.337642 185.025961
L 59.588562 188.574906
L 62.022886 192.00065
L 64.633885 195.293725
L 67.414342 198.445029
L 70.356573 201.445852
L 73.452445 204.287899
L 76.693402 206.963316
L 80.070486 209.464708
L 83.574363 211.785162
L 87.195348 213.918263
L 90.923434 215.858117
L 94.748317 217.599362
L 98.659424 219.137184
L 102.645946 220.467334
L 106.696865 221.586135
L 110.800983 222.490495
L 114.946959 223.177915
L 119.123332 223.646493
L 123.318559 223.894937
L 127.521046 223.922557
L 131.719177 223.729279
L 135.901348 223.315637
L 140.056001 222.682773
L 144.171652 221.832437
L 148.236927 220.766979
L 152.240589 219.489344
L 156.171572 218.003064
L 160.019011 216.312245
L 163.772273 214.421562
L 167.420984 212.336241
L 170.955059 210.062044
L 174.36473 207.605257
L 177.640574 204.972672
L 180.773536 202.171563
L 183.754956 199.209674
L 186.576595 196.095189
L 189.230654 192.836719
L 191.709796 189.443268
L 194.007171 185.924216
L 196.116428 182.28929
L 198.031738 178.548535
L 199.747807 174.712291
L 201.259891 170.791161
L 202.563811 166.795983
L 203.655964 162.737799
L 204.533331 158.627825
L 205.193487 154.477421
L 205.634607 150.298058
L 205.855473 146.101289
L 205.883095 144
L 205.883095 144
" style="fill:none;stroke:#c0c0c0;stroke-linecap:square;stroke-width:1.5;"/>
   </g>
   <g id="line2d_12">
    <path clip-path="url(#p77c26b181d)" d="M 42.01 144
L 209.88 144
" style="fill:none;stroke:#c0c0c0;stroke-linecap:square;stroke-width:1.5;"/>
   </g>
   <g id="line2d_13">
    <path clip-path="url(#p77c26b181d)" d="M 125.945 227.935
L 125.945 60.065
" style="fill:none;stroke:#c0c0c0;stroke-linecap:square;stroke-width:1.5;"/>
   </g>
   <g id="line2d_14">
    <defs>
     <path d="M 0 1.5
C 0.397805 1.5 0.77937 1.341951 1.06066 1.06066
C 1.341951 0.77937 1.5 0.397805 1.5 0
C 1.5 -0.397805 1.341951 -0.77937 1.06066 -1.06066
C 0.77937 -1.341951 0.397805 -1.5 0 -1.5
C -0.397805 -1.5 -0.77937 -1.341951 -1.06066 -1.06066
C -1.341951 -0.77937 -1.5 -0.397805 -1.5 0
C -1.5 0.397805 -1.341951 0.77937 -1.06066 1.06066
C -0.77937 1.341951 -0.397805 1.5 0 1.5
z
" id="m2748272e89" style="stroke:#0000ff;"/>
    </defs>
    <g clip-path="url(#p77c26b181d)">
     <use style="fill:#0000ff;stroke:#0000ff;" x="205.883095" xlink:href="#m2748272e89" y="144"/>
     <use style="fill:#0000ff;stroke:#0000ff;" x="205.883095" xlink:href="#m2748272e89" y="144"/>
     <use style="fill:#0000ff;stroke:#0000ff;" x="46.006905" xlink:href="#m2748272e89" y="144"/>
     <use style="fill:#0000ff;stroke:#0000ff;" x="46.006905" xlink:href="#m2748272e89" y="144"/>
    </g>
   </g>
   <g id="line2d_15">
    <defs>
     <path d="M -3 3
L 3 -3
M -3 -3
L 3 3
" id="m62f6c5743e" style="stroke:#0000ff;"/>
    </defs>
    <g clip-path="url(#p77c26b181d)">
     <use style="fill:#0000ff;stroke:#0000ff;" x="205.315039" xlink:href="#m62f6c5743e" y="144.843548"/>
     <use style="fill:#0000ff;stroke:#0000ff;" x="205.315039" xlink:href="#m62f6c5743e" y="143.156452"/>
     <use style="fill:#0000ff;stroke:#0000ff;" x="203.007063" xlink:href="#m62f6c5743e" y="139.914504"/>
     <use style="fill:#0000ff;stroke:#0000ff;" x="203.007063" xlink:href="#m62f6c5743e" y="148.085496"/>
    </g>
   </g>
   <g id="patch_3">
    <path d="M 42.01 227.935
L 42.01 60.065
" style="fill:none;stroke:#000000;stroke-linecap:square;stroke-linejoin:miter;stroke-width:0.8;"/>
   </g>
   <g id="patch_4">
    <path d="M 209.88 227.935
L 209.88 60.065
" style="fill:none;stroke:#000000;stroke-linecap:square;stroke-linejoin:miter;stroke-width:0.8;"/>
   </g>
   <g id="patch_5">
    <path d="M 42.01 227.935
L 209.88 227.935
" style="fill:none;stroke:#000000;stroke-linecap:square;stroke-linejoin:miter;stroke-width:0.8;"/>
   </g>
   <g id="patch_6">
    <path d="M 42.01 60.065
L 209.88 60.065
" style="fill:none;stroke:#000000;stroke-linecap:square;stroke-linejoin:miter;stroke-width:0.8;"/>
   </g>
   <g id="text_11">
    <!-- baseband -->
    <defs>
     <path d="M 48.6875 27.296875
Q 48.6875 37.203125 44.609375 42.84375
Q 40.53125 48.484375 33.40625 48.484375
Q 26.265625 48.484375 22.1875 42.84375
Q 18.109375 37.203125 18.109375 27.296875
Q 18.109375 17.390625 22.1875 11.75
Q 26.265625 6.109375 33.40625 6.109375
Q 40.53125 6.109375 44.609375 11.75
Q 48.6875 17.390625 48.6875 27.296875
z
M 18.109375 46.390625
Q 20.953125 51.265625 25.265625 53.625
Q 29.59375 56 35.59375 56
Q 45.5625 56 51.78125 48.09375
Q 58.015625 40.1875 58.015625 27.296875
Q 58.015625 14.40625 51.78125 6.484375
Q 45.5625 -1.421875 35.59375 -1.421875
Q 29.59375 -1.421875 25.265625 0.953125
Q 20.953125 3.328125 18.109375 8.203125
L 18.109375 0
L 9.078125 0
L 9.078125 75.984375
L 18.109375 75.984375
z
" id="DejaVuSans-62"/>
     <path d="M 34.28125 27.484375
Q 23.390625 27.484375 19.1875 25
Q 14.984375 22.515625 14.984375 16.5
Q 14.984375 11.71875 18.140625 8.90625
Q 21.296875 6.109375 26.703125 6.109375
Q 34.1875 6.109375 38.703125 11.40625
Q 43.21875 16.703125 43.21875 25.484375
L 43.21875 27.484375
z
M 52.203125 31.203125
L 52.203125 0
L 43.21875 0
L 43.21875 8.296875
Q 40.140625 3.328125 35.546875 0.953125
Q 30.953125 -1.421875 24.3125 -1.421875
Q 15.921875 -1.421875 10.953125 3.296875
Q 6 8.015625 6 15.921875
Q 6 25.140625 12.171875 29.828125
Q 18.359375 34.515625 30.609375 34.515625
L 43.21875 34.515625
L 43.21875 35.40625
Q 43.21875 41.609375 39.140625 45
Q 35.0625 48.390625 27.6875 48.390625
Q 23 48.390625 18.546875 47.265625
Q 14.109375 46.140625 10.015625 43.890625
L 10.015625 52.203125
Q 14.9375 54.109375 19.578125 55.046875
Q 24.21875 56 28.609375 56
Q 40.484375 56 46.34375 49.84375
Q 52.203125 43.703125 52.203125 31.203125
z
" id="DejaVuSans-61"/>
     <path d="M 44.28125 53.078125
L 44.28125 44.578125
Q 40.484375 46.53125 36.375 47.5
Q 32.28125 48.484375 27.875 48.484375
Q 21.1875 48.484375 17.84375 46.4375
Q 14.5 44.390625 14.5 40.28125
Q 14.5 37.15625 16.890625 35.375
Q 19.28125 33.59375 26.515625 31.984375
L 29.59375 31.296875
Q 39.15625 29.25 43.1875 25.515625
Q 47.21875 21.78125 47.21875 15.09375
Q 47.21875 7.46875 41.1875 3.015625
Q 35.15625 -1.421875 24.609375 -1.421875
Q 20.21875 -1.421875 15.453125 -0.5625
Q 10.6875 0.296875 5.421875 2
L 5.421875 11.28125
Q 10.40625 8.6875 15.234375 7.390625
Q 20.0625 6.109375 24.8125 6.109375
Q 31.15625 6.109375 34.5625 8.28125
Q 37.984375 10.453125 37.984375 14.40625
Q 37.984375 18.0625 35.515625 20.015625
Q 33.0625 21.96875 24.703125 23.78125
L 21.578125 24.515625
Q 13.234375 26.265625 9.515625 29.90625
Q 5.8125 33.546875 5.8125 39.890625
Q 5.8125 47.609375 11.28125 51.796875
Q 16.75 56 26.8125 56
Q 31.78125 56 36.171875 55.265625
Q 40.578125 54.546875 44.28125 53.078125
z
" id="DejaVuSans-73"/>
     <path d="M 56.203125 29.59375
L 56.203125 25.203125
L 14.890625 25.203125
Q 15.484375 15.921875 20.484375 11.0625
Q 25.484375 6.203125 34.421875 6.203125
Q 39.59375 6.203125 44.453125 7.46875
Q 49.3125 8.734375 54.109375 11.28125
L 54.109375 2.78125
Q 49.265625 0.734375 44.1875 -0.34375
Q 39.109375 -1.421875 33.890625 -1.421875
Q 20.796875 -1.421875 13.15625 6.1875
Q 5.515625 13.8125 5.515625 26.8125
Q 5.515625 40.234375 12.765625 48.109375
Q 20.015625 56 32.328125 56
Q 43.359375 56 49.78125 48.890625
Q 56.203125 41.796875 56.203125 29.59375
z
M 47.21875 32.234375
Q 47.125 39.59375 43.09375 43.984375
Q 39.0625 48.390625 32.421875 48.390625
Q 24.90625 48.390625 20.390625 44.140625
Q 15.875 39.890625 15.1875 32.171875
z
" id="DejaVuSans-65"/>
     <path d="M 54.890625 33.015625
L 54.890625 0
L 45.90625 0
L 45.90625 32.71875
Q 45.90625 40.484375 42.875 44.328125
Q 39.84375 48.1875 33.796875 48.1875
Q 26.515625 48.1875 22.3125 43.546875
Q 18.109375 38.921875 18.109375 30.90625
L 18.109375 0
L 9.078125 0
L 9.078125 54.6875
L 18.109375 54.6875
L 18.109375 46.1875
Q 21.34375 51.125 25.703125 53.5625
Q 30.078125 56 35.796875 56
Q 45.21875 56 50.046875 50.171875
Q 54.890625 44.34375 54.890625 33.015625
z
" id="DejaVuSans-6e"/>
     <path d="M 45.40625 46.390625
L 45.40625 75.984375
L 54.390625 75.984375
L 54.390625 0
L 45.40625 0
L 45.40625 8.203125
Q 42.578125 3.328125 38.25 0.953125
Q 33.9375 -1.421875 27.875 -1.421875
Q 17.96875 -1.421875 11.734375 6.484375
Q 5.515625 14.40625 5.515625 27.296875
Q 5.515625 40.1875 11.734375 48.09375
Q 17.96875 56 27.875 56
Q 33.9375 56 38.25 53.625
Q 42.578125 51.265625 45.40625 46.390625
z
M 14.796875 27.296875
Q 14.796875 17.390625 18.875 11.75
Q 22.953125 6.109375 30.078125 6.109375
Q 37.203125 6.109375 41.296875 11.75
Q 45.40625 17.390625 45.40625 27.296875
Q 45.40625 37.203125 41.296875 42.84375
Q 37.203125 48.484375 30.078125 48.484375
Q 22.953125 48.484375 18.875 42.84375
Q 14.796875 37.203125 14.796875 27.296875
z
" id="DejaVuSans-64"/>
    </defs>
    <g transform="translate(86.74375 54.065)scale(0.16 -0.16)">
     <use xlink:href="#DejaVuSans-62"/>
     <use x="63.476562" xlink:href="#DejaVuSans-61"/>
     <use x="124.755859" xlink:href="#DejaVuSans-73"/>
     <use x="176.855469" xlink:href="#DejaVuSans-65"/>
     <use x="238.378906" xlink:href="#DejaVuSans-62"/>
     <use x="301.855469" xlink:href="#DejaVuSans-61"/>
     <use x="363.134766" xlink:href="#DejaVuSans-6e"/>
     <use x="426.513672" xlink:href="#DejaVuSans-64"/>
    </g>
   </g>
  </g>
  <g id="axes_2">
   <g id="patch_7">
    <path d="M 254.41 227.935
L 422.28 227.935
L 422.28 60.065
L 254.41 60.065
z
" style="fill:#ffffff;"/>
   </g>
   <g id="matplotlib.axis_3">
    <g id="xtick_6">
     <g id="line2d_16">
      <g>
       <use style="stroke:#000000;stroke-width:0.8;" x="258.406905" xlink:href="#m5e46d2238a" y="227.935"/>
      </g>
     </g>
     <g id="text_12">
      <!-- −1.0 -->
      <g transform="translate(246.265499 242.533437)scale(0.1 -0.1)">
       <use xlink:href="#DejaVuSans-2212"/>
       <use x="83.789062" xlink:href="#DejaVuSans-31"/>
       <use x="147.412109" xlink:href="#DejaVuSans-2e"/>
       <use x="179.199219" xlink:href="#DejaVuSans-30"/>
      </g>
     </g>
    </g>
    <g id="xtick_7">
     <g id="line2d_17">
      <g>
       <use style="stroke:#000000;stroke-width:0.8;" x="298.375952" xlink:href="#m5e46d2238a" y="227.935"/>
      </g>
     </g>
     <g id="text_13">
      <!-- −0.5 -->
      <g transform="translate(286.234546 242.533437)scale(0.1 -0.1)">
       <use xlink:href="#DejaVuSans-2212"/>
       <use x="83.789062" xlink:href="#DejaVuSans-30"/>
       <use x="147.412109" xlink:href="#DejaVuSans-2e"/>
       <use x="179.199219" xlink:href="#DejaVuSans-35"/>
      </g>
     </g>
    </g>
    <g id="xtick_8">
     <g id="line2d_18">
      <g>
       <use style="stroke:#000000;stroke-width:0.8;" x="338.345" xlink:href="#m5e46d2238a" y="227.935"/>
      </g>
     </g>
     <g id="text_14">
      <!-- 0.0 -->
      <g transform="translate(330.393437 242.533437)scale(0.1 -0.1)">
       <use xlink:href="#DejaVuSans-30"/>
       <use x="63.623047" xlink:href="#DejaVuSans-2e"/>
       <use x="95.410156" xlink:href="#DejaVuSans-30"/>
      </g>
     </g>
    </g>
    <g id="xtick_9">
     <g id="line2d_19">
      <g>
       <use style="stroke:#000000;stroke-width:0.8;" x="378.314048" xlink:href="#m5e46d2238a" y="227.935"/>
      </g>
     </g>
     <g id="text_15">
      <!-- 0.5 -->
      <g transform="translate(370.362485 242.533437)scale(0.1 -0.1)">
       <use xlink:href="#DejaVuSans-30"/>
       <use x="63.623047" xlink:href="#DejaVuSans-2e"/>
       <use x="95.410156" xlink:href="#DejaVuSans-35"/>
      </g>
     </g>
    </g>
    <g id="xtick_10">
     <g id="line2d_20">
      <g>
       <use style="stroke:#000000;stroke-width:0.8;" x="418.283095" xlink:href="#m5e46d2238a" y="227.935"/>
      </g>
     </g>
     <g id="text_16">
      <!-- 1.0 -->
      <g transform="translate(410.331533 242.533437)scale(0.1 -0.1)">
       <use xlink:href="#DejaVuSans-31"/>
       <use x="63.623047" xlink:href="#DejaVuSans-2e"/>
       <use x="95.410156" xlink:href="#DejaVuSans-30"/>
      </g>
     </g>
    </g>
   </g>
   <g id="matplotlib.axis_4">
    <g id="ytick_6">
     <g id="line2d_21">
      <g>
       <use style="stroke:#000000;stroke-width:0.8;" x="254.41" xlink:href="#m6c55ea91e7" y="223.938095"/>
      </g>
     </g>
     <g id="text_17">
      <!-- −1.0 -->
      <g transform="translate(223.127187 227.737314)scale(0.1 -0.1)">
       <use xlink:href="#DejaVuSans-2212"/>
       <use x="83.789062" xlink:href="#DejaVuSans-31"/>
       <use x="147.412109" xlink:href="#DejaVuSans-2e"/>
       <use x="179.199219" xlink:href="#DejaVuSans-30"/>
      </g>
     </g>
    </g>
    <g id="ytick_7">
     <g id="line2d_22">
      <g>
       <use style="stroke:#000000;stroke-width:0.8;" x="254.41" xlink:href="#m6c55ea91e7" y="183.969048"/>
      </g>
     </g>
     <g id="text_18">
      <!-- −0.5 -->
      <g transform="translate(223.127187 187.768266)scale(0.1 -0.1)">
       <use xlink:href="#DejaVuSans-2212"/>
       <use x="83.789062" xlink:href="#DejaVuSans-30"/>
       <use x="147.412109" xlink:href="#DejaVuSans-2e"/>
       <use x="179.199219" xlink:href="#DejaVuSans-35"/>
      </g>
     </g>
    </g>
    <g id="ytick_8">
     <g id="line2d_23">
      <g>
       <use style="stroke:#000000;stroke-width:0.8;" x="254.41" xlink:href="#m6c55ea91e7" y="144"/>
      </g>
     </g>
     <g id="text_19">
      <!-- 0.0 -->
      <g transform="translate(231.506875 147.799219)scale(0.1 -0.1)">
       <use xlink:href="#DejaVuSans-30"/>
       <use x="63.623047" xlink:href="#DejaVuSans-2e"/>
       <use x="95.410156" xlink:href="#DejaVuSans-30"/>
      </g>
     </g>
    </g>
    <g id="ytick_9">
     <g id="line2d_24">
      <g>
       <use style="stroke:#000000;stroke-width:0.8;" x="254.41" xlink:href="#m6c55ea91e7" y="104.030952"/>
      </g>
     </g>
     <g id="text_20">
      <!-- 0.5 -->
      <g transform="translate(231.506875 107.830171)scale(0.1 -0.1)">
       <use xlink:href="#DejaVuSans-30"/>
       <use x="63.623047" xlink:href="#DejaVuSans-2e"/>
       <use x="95.410156" xlink:href="#DejaVuSans-35"/>
      </g>
     </g>
    </g>
    <g id="ytick_10">
     <g id="line2d_25">
      <g>
       <use style="stroke:#000000;stroke-width:0.8;" x="254.41" xlink:href="#m6c55ea91e7" y="64.061905"/>
      </g>
     </g>
     <g id="text_21">
      <!-- 1.0 -->
      <g transform="translate(231.506875 67.861124)scale(0.1 -0.1)">
       <use xlink:href="#DejaVuSans-31"/>
       <use x="63.623047" xlink:href="#DejaVuSans-2e"/>
       <use x="95.410156" xlink:href="#DejaVuSans-30"/>
      </g>
     </g>
    </g>
   </g>
   <g id="line2d_26">
    <path clip-path="url(#pece5ecb0db)" d="M 418.283095 144
L 418.172624 139.798875
L 417.841517 135.609361
L 417.290689 131.443038
L 416.521662 127.311422
L 415.536561 123.225931
L 414.33811 119.197858
L 412.929621 115.238335
L 411.314987 111.358308
L 409.49867 107.568499
L 407.485691 103.879383
L 405.281614 100.301158
L 402.892529 96.843712
L 400.325041 93.516601
L 397.586246 90.329023
L 394.683714 87.289785
L 391.625466 84.40729
L 388.419956 81.689504
L 385.076043 79.143938
L 381.602969 76.777629
L 378.010335 74.597116
L 374.308069 72.608427
L 370.506405 70.817057
L 366.615849 69.227959
L 362.647155 67.845523
L 358.611293 66.673572
L 354.519416 65.715344
L 350.382834 64.973488
L 346.212981 64.450054
L 342.021382 64.146489
L 337.819621 64.063631
L 333.619313 64.201711
L 329.432065 64.560346
L 325.269453 65.138545
L 321.14298 65.93471
L 317.064052 66.94664
L 313.043942 68.171539
L 309.093763 69.606021
L 305.224431 71.246121
L 301.446641 73.087306
L 297.770835 75.124488
L 294.207173 77.352035
L 290.765503 79.763791
L 287.455339 82.35309
L 284.285829 85.112776
L 281.265734 88.035221
L 278.403401 91.112348
L 275.706741 94.335651
L 273.183208 97.696222
L 270.839776 101.184772
L 268.682922 104.79166
L 266.718608 108.506916
L 264.952263 112.320272
L 263.388769 116.221187
L 262.032447 120.198881
L 260.887046 124.242359
L 259.955731 128.340446
L 259.241078 132.481814
L 258.745061 136.655017
L 258.469051 140.848521
L 258.413811 145.050735
L 258.579493 149.250045
L 258.96564 153.434845
L 259.571185 157.593568
L 260.394453 161.714719
L 261.433169 165.786908
L 262.684463 169.79888
L 264.144876 173.739547
L 265.810371 177.598016
L 267.676345 181.363623
L 269.737642 185.025961
L 271.988562 188.574906
L 274.422886 192.00065
L 277.033885 195.293725
L 279.814342 198.445029
L 282.756573 201.445852
L 285.852445 204.287899
L 289.093402 206.963316
L 292.470486 209.464708
L 295.974363 211.785162
L 299.595348 213.918263
L 303.323434 215.858117
L 307.148317 217.599362
L 311.059424 219.137184
L 315.045946 220.467334
L 319.096865 221.586135
L 323.200983 222.490495
L 327.346959 223.177915
L 331.523332 223.646493
L 335.718559 223.894937
L 339.921046 223.922557
L 344.119177 223.729279
L 348.301348 223.315637
L 352.456001 222.682773
L 356.571652 221.832437
L 360.636927 220.766979
L 364.640589 219.489344
L 368.571572 218.003064
L 372.419011 216.312245
L 376.172273 214.421562
L 379.820984 212.336241
L 383.355059 210.062044
L 386.76473 207.605257
L 390.040574 204.972672
L 393.173536 202.171563
L 396.154956 199.209674
L 398.976595 196.095189
L 401.630654 192.836719
L 404.109796 189.443268
L 406.407171 185.924216
L 408.516428 182.28929
L 410.431738 178.548535
L 412.147807 174.712291
L 413.659891 170.791161
L 414.963811 166.795983
L 416.055964 162.737799
L 416.933331 158.627825
L 417.593487 154.477421
L 418.034607 150.298058
L 418.255473 146.101289
L 418.283095 144
L 418.283095 144
" style="fill:none;stroke:#c0c0c0;stroke-linecap:square;stroke-width:1.5;"/>
   </g>
   <g id="line2d_27">
    <path clip-path="url(#pece5ecb0db)" d="M 254.41 144
L 422.28 144
" style="fill:none;stroke:#c0c0c0;stroke-linecap:square;stroke-width:1.5;"/>
   </g>
   <g id="line2d_28">
    <path clip-path="url(#pece5ecb0db)" d="M 338.345 227.935
L 338.345 60.065
" style="fill:none;stroke:#c0c0c0;stroke-linecap:square;stroke-width:1.5;"/>
   </g>
   <g id="line2d_29">
    <g clip-path="url(#pece5ecb0db)">
     <use style="fill:#0000ff;stroke:#0000ff;" x="418.283095" xlink:href="#m2748272e89" y="144"/>
     <use style="fill:#0000ff;stroke:#0000ff;" x="418.283095" xlink:href="#m2748272e89" y="144"/>
     <use style="fill:#0000ff;stroke:#0000ff;" x="258.406905" xlink:href="#m2748272e89" y="144"/>
     <use style="fill:#0000ff;stroke:#0000ff;" x="258.406905" xlink:href="#m2748272e89" y="144"/>
    </g>
   </g>
   <g id="line2d_30">
    <g clip-path="url(#pece5ecb0db)">
     <use style="fill:#0000ff;stroke:#0000ff;" x="414.558896" xlink:href="#m62f6c5743e" y="148.941459"/>
     <use style="fill:#0000ff;stroke:#0000ff;" x="414.558896" xlink:href="#m62f6c5743e" y="139.058541"/>
     <use style="fill:#0000ff;stroke:#0000ff;" x="395.876534" xlink:href="#m62f6c5743e" y="121.264421"/>
     <use style="fill:#0000ff;stroke:#0000ff;" x="395.876534" xlink:href="#m62f6c5743e" y="166.735579"/>
    </g>
   </g>
   <g id="patch_8">
    <path d="M 254.41 227.935
L 254.41 60.065
" style="fill:none;stroke:#000000;stroke-linecap:square;stroke-linejoin:miter;stroke-width:0.8;"/>
   </g>
   <g id="patch_9">
    <path d="M 422.28 227.935
L 422.28 60.065
" style="fill:none;stroke:#000000;stroke-linecap:square;stroke-linejoin:miter;stroke-width:0.8;"/>
   </g>
   <g id="patch_10">
    <path d="M 254.41 227.935
L 422.28 227.935
" style="fill:none;stroke:#000000;stroke-linecap:square;stroke-linejoin:miter;stroke-width:0.8;"/>
   </g>
   <g id="patch_11">
    <path d="M 254.41 60.065
L 422.28 60.065
" style="fill:none;stroke:#000000;stroke-linecap:square;stroke-linejoin:miter;stroke-width:0.8;"/>
   </g>
   <g id="text_22">
    <!-- vowel -->
    <defs>
     <path d="M 2.984375 54.6875
L 12.5 54.6875
L 29.59375 8.796875
L 46.6875 54.6875
L 56.203125 54.6875
L 35.6875 0
L 23.484375 0
z
" id="DejaVuSans-76"/>
     <path d="M 30.609375 48.390625
Q 23.390625 48.390625 19.1875 42.75
Q 14.984375 37.109375 14.984375 27.296875
Q 14.984375 17.484375 19.15625 11.84375
Q 23.34375 6.203125 30.609375 6.203125
Q 37.796875 6.203125 41.984375 11.859375
Q 46.1875 17.53125 46.1875 27.296875
Q 46.1875 37.015625 41.984375 42.703125
Q 37.796875 48.390625 30.609375 48.390625
z
M 30.609375 56
Q 42.328125 56 49.015625 48.375
Q 55.71875 40.765625 55.71875 27.296875
Q 55.71875 13.875 49.015625 6.21875
Q 42.328125 -1.421875 30.609375 -1.421875
Q 18.84375 -1.421875 12.171875 6.21875
Q 5.515625 13.875 5.515625 27.296875
Q 5.515625 40.765625 12.171875 48.375
Q 18.84375 56 30.609375 56
z
" id="DejaVuSans-6f"/>
     <path d="M 4.203125 54.6875
L 13.1875 54.6875
L 24.421875 12.015625
L 35.59375 54.6875
L 46.1875 54.6875
L 57.421875 12.015625
L 68.609375 54.6875
L 77.59375 54.6875
L 63.28125 0
L 52.6875 0
L 40.921875 44.828125
L 29.109375 0
L 18.5 0
z
" id="DejaVuSans-77"/>
     <path d="M 9.421875 75.984375
L 18.40625 75.984375
L 18.40625 0
L 9.421875 0
z
" id="DejaVuSans-6c"/>
    </defs>
    <g transform="translate(315.0275 54.065)scale(0.16 -0.16)">
     <use xlink:href="#DejaVuSans-76"/>
     <use x="59.179688" xlink:href="#DejaVuSans-6f"/>
     <use x="120.361328" xlink:href="#DejaVuSans-77"/>
     <use x="202.148438" xlink:href="#DejaVuSans-65"/>
     <use x="263.671875" xlink:href="#DejaVuSans-6c"/>
    </g>
   </g>
  </g>
  <g id="axes_3">
   <g id="patch_12">
    <path d="M 466.81 227.935
L 634.68 227.935
L 634.68 60.065
L 466.81 60.065
z
" style="fill:#ffffff;"/>
   </g>
   <g id="matplotlib.axis_5">
    <g id="xtick_11">
     <g id="line2d_31">
      <g>
       <use style="stroke:#000000;stroke-width:0.8;" x="470.806905" xlink:href="#m5e46d2238a" y="227.935"/>
      </g>
     </g>
     <g id="text_23">
      <!-- −1.0 -->
      <g transform="translate(458.665499 242.533438)scale(0.1 -0.1)">
       <use xlink:href="#DejaVuSans-2212"/>
       <use x="83.789062" xlink:href="#DejaVuSans-31"/>
       <use x="147.412109" xlink:href="#DejaVuSans-2e"/>
       <use x="179.199219" xlink:href="#DejaVuSans-30"/>
      </g>
     </g>
    </g>
    <g id="xtick_12">
     <g id="line2d_32">
      <g>
       <use style="stroke:#000000;stroke-width:0.8;" x="510.775952" xlink:href="#m5e46d2238a" y="227.935"/>
      </g>
     </g>
     <g id="text_24">
      <!-- −0.5 -->
      <g transform="translate(498.634546 242.533438)scale(0.1 -0.1)">
       <use xlink:href="#DejaVuSans-2212"/>
       <use x="83.789062" xlink:href="#DejaVuSans-30"/>
       <use x="147.412109" xlink:href="#DejaVuSans-2e"/>
       <use x="179.199219" xlink:href="#DejaVuSans-35"/>
      </g>
     </g>
    </g>
    <g id="xtick_13">
     <g id="line2d_33">
      <g>
       <use style="stroke:#000000;stroke-width:0.8;" x="550.745" xlink:href="#m5e46d2238a" y="227.935"/>
      </g>
     </g>
     <g id="text_25">
      <!-- 0.0 -->
      <g transform="translate(542.793438 242.533438)scale(0.1 -0.1)">
       <use xlink:href="#DejaVuSans-30"/>
       <use x="63.623047" xlink:href="#DejaVuSans-2e"/>
       <use x="95.410156" xlink:href="#DejaVuSans-30"/>
      </g>
     </g>
    </g>
    <g id="xtick_14">
     <g id="line2d_34">
      <g>
       <use style="stroke:#000000;stroke-width:0.8;" x="590.714048" xlink:href="#m5e46d2238a" y="227.935"/>
      </g>
     </g>
     <g id="text_26">
      <!-- 0.5 -->
      <g transform="translate(582.762485 242.533438)scale(0.1 -0.1)">
       <use xlink:href="#DejaVuSans-30"/>
       <use x="63.623047" xlink:href="#DejaVuSans-2e"/>
       <use x="95.410156" xlink:href="#DejaVuSans-35"/>
      </g>
     </g>
    </g>
    <g id="xtick_15">
     <g id="line2d_35">
      <g>
       <use style="stroke:#000000;stroke-width:0.8;" x="630.683095" xlink:href="#m5e46d2238a" y="227.935"/>
      </g>
     </g>
     <g id="text_27">
      <!-- 1.0 -->
      <g transform="translate(622.731533 242.533438)scale(0.1 -0.1)">
       <use xlink:href="#DejaVuSans-31"/>
       <use x="63.623047" xlink:href="#DejaVuSans-2e"/>
       <use x="95.410156" xlink:href="#DejaVuSans-30"/>
      </g>
     </g>
    </g>
   </g>
   <g id="matplotlib.axis_6">
    <g id="ytick_11">
     <g id="line2d_36">
      <g>
       <use style="stroke:#000000;stroke-width:0.8;" x="466.81" xlink:href="#m6c55ea91e7" y="223.938095"/>
      </g>
     </g>
     <g id="text_28">
      <!-- −1.0 -->
      <g transform="translate(435.527188 227.737314)scale(0.1 -0.1)">
       <use xlink:href="#DejaVuSans-2212"/>
       <use x="83.789062" xlink:href="#DejaVuSans-31"/>
       <use x="147.412109" xlink:href="#DejaVuSans-2e"/>
       <use x="179.199219" xlink:href="#DejaVuSans-30"/>
      </g>
     </g>
    </g>
    <g id="ytick_12">
     <g id="line2d_37">
      <g>
       <use style="stroke:#000000;stroke-width:0.8;" x="466.81" xlink:href="#m6c55ea91e7" y="183.969048"/>
      </g>
     </g>
     <g id="text_29">
      <!-- −0.5 -->
      <g transform="translate(435.527188 187.768266)scale(0.1 -0.1)">
       <use xlink:href="#DejaVuSans-2212"/>
       <use x="83.789062" xlink:href="#DejaVuSans-30"/>
       <use x="147.412109" xlink:href="#DejaVuSans-2e"/>
       <use x="179.199219" xlink:href="#DejaVuSans-35"/>
      </g>
     </g>
    </g>
    <g id="ytick_13">
     <g id="line2d_38">
      <g>
       <use style="stroke:#000000;stroke-width:0.8;" x="466.81" xlink:href="#m6c55ea91e7" y="144"/>
      </g>
     </g>
     <g id="text_30">
      <!-- 0.0 -->
      <g transform="translate(443.906875 147.799219)scale(0.1 -0.1)">
       <use xlink:href="#DejaVuSans-30"/>
       <use x="63.623047" xlink:href="#DejaVuSans-2e"/>
       <use x="95.410156" xlink:href="#DejaVuSans-30"/>
      </g>
     </g>
    </g>
    <g id="ytick_14">
     <g id="line2d_39">
      <g>
       <use style="stroke:#000000;stroke-width:0.8;" x="466.81" xlink:href="#m6c55ea91e7" y="104.030952"/>
      </g>
     </g>
     <g id="text_31">
      <!-- 0.5 -->
      <g transform="translate(443.906875 107.830171)scale(0.1 -0.1)">
       <use xlink:href="#DejaVuSans-30"/>
       <use x="63.623047" xlink:href="#DejaVuSans-2e"/>
       <use x="95.410156" xlink:href="#DejaVuSans-35"/>
      </g>
     </g>
    </g>
    <g id="ytick_15">
     <g id="line2d_40">
      <g>
       <use style="stroke:#000000;stroke-width:0.8;" x="466.81" xlink:href="#m6c55ea91e7" y="64.061905"/>
      </g>
     </g>
     <g id="text_32">
      <!-- 1.0 -->
      <g transform="translate(443.906875 67.861124)scale(0.1 -0.1)">
       <use xlink:href="#DejaVuSans-31"/>
       <use x="63.623047" xlink:href="#DejaVuSans-2e"/>
       <use x="95.410156" xlink:href="#DejaVuSans-30"/>
      </g>
     </g>
    </g>
   </g>
   <g id="line2d_41">
    <path clip-path="url(#p67769cf79b)" d="M 630.683095 144
L 630.572624 139.798875
L 630.241517 135.609361
L 629.690689 131.443038
L 628.921662 127.311422
L 627.936561 123.225931
L 626.73811 119.197858
L 625.329621 115.238335
L 623.714987 111.358308
L 621.89867 107.568499
L 619.885691 103.879383
L 617.681614 100.301158
L 615.292529 96.843712
L 612.725041 93.516601
L 609.986246 90.329023
L 607.083714 87.289785
L 604.025466 84.40729
L 600.819956 81.689504
L 597.476043 79.143938
L 594.002969 76.777629
L 590.410335 74.597116
L 586.708069 72.608427
L 582.906405 70.817057
L 579.015849 69.227959
L 575.047155 67.845523
L 571.011293 66.673572
L 566.919416 65.715344
L 562.782834 64.973488
L 558.612981 64.450054
L 554.421382 64.146489
L 550.219621 64.063631
L 546.019313 64.201711
L 541.832065 64.560346
L 537.669453 65.138545
L 533.54298 65.93471
L 529.464052 66.94664
L 525.443942 68.171539
L 521.493763 69.606021
L 517.624431 71.246121
L 513.846641 73.087306
L 510.170835 75.124488
L 506.607173 77.352035
L 503.165503 79.763791
L 499.855339 82.35309
L 496.685829 85.112776
L 493.665734 88.035221
L 490.803401 91.112348
L 488.106741 94.335651
L 485.583208 97.696222
L 483.239776 101.184772
L 481.082922 104.79166
L 479.118608 108.506916
L 477.352263 112.320272
L 475.788769 116.221187
L 474.432447 120.198881
L 473.287046 124.242359
L 472.355731 128.340446
L 471.641078 132.481814
L 471.145061 136.655017
L 470.869051 140.848521
L 470.813811 145.050735
L 470.979493 149.250045
L 471.36564 153.434845
L 471.971185 157.593568
L 472.794453 161.714719
L 473.833169 165.786908
L 475.084463 169.79888
L 476.544876 173.739547
L 478.210371 177.598016
L 480.076345 181.363623
L 482.137642 185.025961
L 484.388562 188.574906
L 486.822886 192.00065
L 489.433885 195.293725
L 492.214342 198.445029
L 495.156573 201.445852
L 498.252445 204.287899
L 501.493402 206.963316
L 504.870486 209.464708
L 508.374363 211.785162
L 511.995348 213.918263
L 515.723434 215.858117
L 519.548317 217.599362
L 523.459424 219.137184
L 527.445946 220.467334
L 531.496865 221.586135
L 535.600983 222.490495
L 539.746959 223.177915
L 543.923332 223.646493
L 548.118559 223.894937
L 552.321046 223.922557
L 556.519177 223.729279
L 560.701348 223.315637
L 564.856001 222.682773
L 568.971652 221.832437
L 573.036927 220.766979
L 577.040589 219.489344
L 580.971572 218.003064
L 584.819011 216.312245
L 588.572273 214.421562
L 592.220984 212.336241
L 595.755059 210.062044
L 599.16473 207.605257
L 602.440574 204.972672
L 605.573536 202.171563
L 608.554956 199.209674
L 611.376595 196.095189
L 614.030654 192.836719
L 616.509796 189.443268
L 618.807171 185.924216
L 620.916428 182.28929
L 622.831738 178.548535
L 624.547807 174.712291
L 626.059891 170.791161
L 627.363811 166.795983
L 628.455964 162.737799
L 629.333331 158.627825
L 629.993487 154.477421
L 630.434607 150.298058
L 630.655473 146.101289
L 630.683095 144
L 630.683095 144
" style="fill:none;stroke:#c0c0c0;stroke-linecap:square;stroke-width:1.5;"/>
   </g>
   <g id="line2d_42">
    <path clip-path="url(#p67769cf79b)" d="M 466.81 144
L 634.68 144
" style="fill:none;stroke:#c0c0c0;stroke-linecap:square;stroke-width:1.5;"/>
   </g>
   <g id="line2d_43">
    <path clip-path="url(#p67769cf79b)" d="M 550.745 227.935
L 550.745 60.065
" style="fill:none;stroke:#c0c0c0;stroke-linecap:square;stroke-width:1.5;"/>
   </g>
   <g id="line2d_44">
    <g clip-path="url(#p67769cf79b)">
     <use style="fill:#0000ff;stroke:#0000ff;" x="630.683095" xlink:href="#m2748272e89" y="144"/>
     <use style="fill:#0000ff;stroke:#0000ff;" x="630.683095" xlink:href="#m2748272e89" y="144"/>
     <use style="fill:#0000ff;stroke:#0000ff;" x="470.806905" xlink:href="#m2748272e89" y="144"/>
     <use style="fill:#0000ff;stroke:#0000ff;" x="470.806905" xlink:href="#m2748272e89" y="144"/>
    </g>
   </g>
   <g id="line2d_45">
    <g clip-path="url(#p67769cf79b)">
     <use style="fill:#0000ff;stroke:#0000ff;" x="611.188607" xlink:href="#m62f6c5743e" y="185.227683"/>
     <use style="fill:#0000ff;stroke:#0000ff;" x="611.188607" xlink:href="#m62f6c5743e" y="102.772317"/>
     <use style="fill:#0000ff;stroke:#0000ff;" x="600.345604" xlink:href="#m62f6c5743e" y="92.63815"/>
     <use style="fill:#0000ff;stroke:#0000ff;" x="600.345604" xlink:href="#m62f6c5743e" y="195.36185"/>
    </g>
   </g>
   <g id="patch_13">
    <path d="M 466.81 227.935
L 466.81 60.065
" style="fill:none;stroke:#000000;stroke-linecap:square;stroke-linejoin:miter;stroke-width:0.8;"/>
   </g>
   <g id="patch_14">
    <path d="M 634.68 227.935
L 634.68 60.065
" style="fill:none;stroke:#000000;stroke-linecap:square;stroke-linejoin:miter;stroke-width:0.8;"/>
   </g>
   <g id="patch_15">
    <path d="M 466.81 227.935
L 634.68 227.935
" style="fill:none;stroke:#000000;stroke-linecap:square;stroke-linejoin:miter;stroke-width:0.8;"/>
   </g>
   <g id="patch_16">
    <path d="M 466.81 60.065
L 634.68 60.065
" style="fill:none;stroke:#000000;stroke-linecap:square;stroke-linejoin:miter;stroke-width:0.8;"/>
   </g>
   <g id="text_33">
    <!-- fricative -->
    <defs>
     <path d="M 37.109375 75.984375
L 37.109375 68.5
L 28.515625 68.5
Q 23.6875 68.5 21.796875 66.546875
Q 19.921875 64.59375 19.921875 59.515625
L 19.921875 54.6875
L 34.71875 54.6875
L 34.71875 47.703125
L 19.921875 47.703125
L 19.921875 0
L 10.890625 0
L 10.890625 47.703125
L 2.296875 47.703125
L 2.296875 54.6875
L 10.890625 54.6875
L 10.890625 58.5
Q 10.890625 67.625 15.140625 71.796875
Q 19.390625 75.984375 28.609375 75.984375
z
" id="DejaVuSans-66"/>
     <path d="M 41.109375 46.296875
Q 39.59375 47.171875 37.8125 47.578125
Q 36.03125 48 33.890625 48
Q 26.265625 48 22.1875 43.046875
Q 18.109375 38.09375 18.109375 28.8125
L 18.109375 0
L 9.078125 0
L 9.078125 54.6875
L 18.109375 54.6875
L 18.109375 46.1875
Q 20.953125 51.171875 25.484375 53.578125
Q 30.03125 56 36.53125 56
Q 37.453125 56 38.578125 55.875
Q 39.703125 55.765625 41.0625 55.515625
z
" id="DejaVuSans-72"/>
     <path d="M 9.421875 54.6875
L 18.40625 54.6875
L 18.40625 0
L 9.421875 0
z
M 9.421875 75.984375
L 18.40625 75.984375
L 18.40625 64.59375
L 9.421875 64.59375
z
" id="DejaVuSans-69"/>
     <path d="M 48.78125 52.59375
L 48.78125 44.1875
Q 44.96875 46.296875 41.140625 47.34375
Q 37.3125 48.390625 33.40625 48.390625
Q 24.65625 48.390625 19.8125 42.84375
Q 14.984375 37.3125 14.984375 27.296875
Q 14.984375 17.28125 19.8125 11.734375
Q 24.65625 6.203125 33.40625 6.203125
Q 37.3125 6.203125 41.140625 7.25
Q 44.96875 8.296875 48.78125 10.40625
L 48.78125 2.09375
Q 45.015625 0.34375 40.984375 -0.53125
Q 36.96875 -1.421875 32.421875 -1.421875
Q 20.0625 -1.421875 12.78125 6.34375
Q 5.515625 14.109375 5.515625 27.296875
Q 5.515625 40.671875 12.859375 48.328125
Q 20.21875 56 33.015625 56
Q 37.15625 56 41.109375 55.140625
Q 45.0625 54.296875 48.78125 52.59375
z
" id="DejaVuSans-63"/>
     <path d="M 18.3125 70.21875
L 18.3125 54.6875
L 36.8125 54.6875
L 36.8125 47.703125
L 18.3125 47.703125
L 18.3125 18.015625
Q 18.3125 11.328125 20.140625 9.421875
Q 21.96875 7.515625 27.59375 7.515625
L 36.8125 7.515625
L 36.8125 0
L 27.59375 0
Q 17.1875 0 13.234375 3.875
Q 9.28125 7.765625 9.28125 18.015625
L 9.28125 47.703125
L 2.6875 47.703125
L 2.6875 54.6875
L 9.28125 54.6875
L 9.28125 70.21875
z
" id="DejaVuSans-74"/>
    </defs>
    <g transform="translate(518.1 54.065)scale(0.16 -0.16)">
     <use xlink:href="#DejaVuSans-66"/>
     <use x="35.205078" xlink:href="#DejaVuSans-72"/>
     <use x="76.318359" xlink:href="#DejaVuSans-69"/>
     <use x="104.101562" xlink:href="#DejaVuSans-63"/>
     <use x="159.082031" xlink:href="#DejaVuSans-61"/>
     <use x="220.361328" xlink:href="#DejaVuSans-74"/>
     <use x="259.570312" xlink:href="#DejaVuSans-69"/>
     <use x="287.353516" xlink:href="#DejaVuSans-76"/>
     <use x="346.533203" xlink:href="#DejaVuSans-65"/>
    </g>
   </g>
  </g>
 </g>
 <defs>
  <clipPath id="p77c26b181d">
   <rect height="167.87" width="167.87" x="42.01" y="60.065"/>
  </clipPath>
  <clipPath id="pece5ecb0db">
   <rect height="167.87" width="167.87" x="254.41" y="60.065"/>
  </clipPath>
  <clipPath id="p67769cf79b">
   <rect height="167.87" width="167.87" x="466.81" y="60.065"/>
  </clipPath>
 </defs>
</svg>
