<svg height="158mm" viewBox="0 0 182 158" width="182mm" xmlns="http://www.w3.org/2000/svg"><g stroke-width=".265"><path d="M35.034 155.566c-.236-.163-.817-.381-1.292-.484-1.93-.42-1.9-2.202.075-4.442 2.516-2.851 2.64-3.266 2.637-8.8-.002-3.916-.13-5.538-.719-9.128-1.266-7.72-1.358-9.078-1.17-17.33l.173-7.673-.93-6.35c-1.667-11.38-1.858-22.07-.554-30.931.53-3.595.63-5.075.511-7.54-.081-1.688-.032-3.69.11-4.45.257-1.38.099-2.86-.732-6.82-.36-1.721-.787-2.502-.788-1.443 0 .357-.306 1.899-.68 3.426-.375 1.528-.787 3.864-.916 5.19-.151 1.55-.517 3.159-1.023 4.498-.86 2.279-4.184 10.359-5.647 13.728-.794 1.828-.94 2.496-1.068 4.895-.146 2.726-.478 4.056-1.522 6.102-.287.564-.693 1.755-.901 2.647-.384 1.645-.999 2.628-1.645 2.628-.196 0-.356.22-.356.488 0 .533-.78 1.364-1.28 1.364-.173 0-.56.149-.858.33-.475.29-.618.243-1.121-.355-.318-.378-.786-.761-1.04-.852-.398-.141-.46-.512-.447-2.62.01-1.351.103-3.32.209-4.374.106-1.055.174-1.919.152-1.919-.023 0-.444.357-.937.792-1.108.979-1.733 1.199-2.231.785-.547-.454-.466-.762.557-2.106a32.215 32.215 0 001.73-2.583c.478-.809 1.488-1.915 2.406-2.637.87-.684 1.74-1.55 1.934-1.924.637-1.231 1.798-7.678 2.26-12.544.32-3.383 1.228-6.618 2.656-9.457.734-1.46 1.33-3.246 1.875-5.614 1.242-5.399 1.275-5.774.832-9.426-.627-5.159-.191-7.212 2.046-9.64.976-1.058 1.432-1.31 3.6-1.987 2.832-.886 6.667-2.993 8.423-4.628l1.195-1.112-.02-1.834c-.032-3.06-.333-4.508-1.097-5.271-.926-.926-1.53-2.266-1.53-3.397 0-.984.59-1.826 1.133-1.619.236.09.323-.398.323-1.817 0-1.652.103-2.096.695-2.99 1.096-1.654 3.369-3.073 5.285-3.299 2.06-.243 3.017.04 4.944 1.457 1.928 1.42 2.702 2.842 2.702 4.967 0 1.23.097 1.537.592 1.865.85.565.755 2.142-.226 3.75-.42.686-.91 1.508-1.09 1.826-.204.361-.328 1.68-.33 3.52l-.004 2.944 1.124 1.034c2 1.84 5.234 3.59 8.224 4.45 1.922.554 3.357 1.805 4.315 3.764.657 1.342.741 1.892 1.04 6.79.179 2.93.451 5.864.606 6.519l.964 4.1c.426 1.815 1.179 3.964 1.998 5.707 1.622 3.45 2.228 5.622 2.616 9.375.49 4.745 1.529 10.85 2.105 12.365.147.387 1.04 1.311 1.984 2.053s2.078 1.91 2.52 2.594a130.39 130.39 0 002.197 3.313c1.009 1.47-.374 2.095-1.864.842-.432-.364-.859-.662-.948-.662-.09 0-.131 1.875-.094 4.167.067 4.099.058 4.172-.527 4.429-.328.143-.596.397-.596.563 0 .165-.182.453-.406.638-.409.34-.516.315-2.24-.527-.218-.107-.525-.446-.681-.755-.157-.31-.592-.803-.966-1.097-.45-.354-.79-1.004-1.007-1.926-.18-.765-.806-2.522-1.393-3.904-.96-2.263-1.086-2.818-1.255-5.557-.175-2.829-.267-3.21-1.301-5.424-.613-1.31-1.81-4.107-2.66-6.217-.85-2.11-1.87-4.61-2.266-5.557-.985-2.35-1.429-4.118-1.43-5.688 0-.728-.444-3.082-.987-5.232l-.988-3.91-.578 2.756c-.817 3.9-.695 12.361.284 19.589 1.112 8.222.873 18.115-.689 28.469-.947 6.279-1.152 9.935-.813 14.524.142 1.92.148 4.992.014 7.409-.224 4.04-.384 5.364-1.546 12.815-.446 2.859-.55 4.509-.476 7.54.11 4.516.38 5.324 2.579 7.715.734.799 1.442 1.76 1.573 2.135.31.888-.28 2.365-.945 2.368-.262 0-.833.191-1.27.424-.976.52-3.466.72-4.38.352-.812-.325-1.31-1.139-2.076-3.383-.314-.924-.86-2.247-1.211-2.94-.638-1.26-.639-1.272-.364-5.73.15-2.457.331-5.482.4-6.72.123-2.218-.199-4.813-1.094-8.82-.767-3.428-.916-5.932-.605-10.165.26-3.538.243-4.21-.133-5.424-.58-1.87-.944-5.054-.954-8.322-.004-1.488-.186-4.167-.404-5.954-.218-1.786-.476-5.151-.573-7.477-.29-6.96-.519-7.212-.725-.798-.103 3.201-.367 7.07-.586 8.599-.22 1.528-.462 4.623-.54 6.879-.082 2.407-.31 4.756-.554 5.688-.631 2.419-.715 4.187-.37 7.806.35 3.667.04 6.734-1.11 10.97-.519 1.914-.573 2.72-.54 8.08.02 3.274.181 6.846.358 7.937.32 1.968.315 1.999-.472 3.572a30.711 30.711 0 00-1.368 3.307c-.638 1.907-.956 2.42-1.772 2.854-.688.366-3.467.292-4.045-.108zm1.273-.715c.128-.339.572-.833.985-1.1l.752-.483-.514.581c-.435.492-.446.555-.066.41.254-.098.448-.046.448.12 0 .162-.308.293-.684.293-.993 0-.655.643.392.746 1.394.137 2-.485 2.904-2.984.45-1.245 1.072-2.76 1.381-3.367.481-.942.533-1.335.357-2.71-.64-5.007-.575-13.458.127-16.22 1.32-5.19 1.588-9.57.84-13.697-.181-1-.21-.934-.526 1.208-.28 1.898-.807 3.678-.817 2.76-.01-.92.847-5.192 1.42-7.07.879-2.88 1.208-5.227 1.217-8.672.004-1.528.193-4.088.42-5.688.227-1.601.504-5.743.617-9.205.2-6.183.418-7.516 1.038-6.357.148.276.404 3.176.568 6.444.165 3.268.42 6.776.568 7.795.147 1.018.37 4.173.497 7.011.175 3.926.364 5.634.791 7.144 1.124 3.965 1.536 5.717 1.683 7.144.219 2.126-.288 1.037-.625-1.344-.151-1.063-.323-1.981-.383-2.041-.271-.271-.486 2.21-.486 5.618 0 3.624.07 4.156 1.282 9.673.578 2.632.572 9.038-.015 15.094-.176 1.813-.134 2.117.462 3.307.361.72.919 2.108 1.24 3.082.81 2.463 1.413 3.173 2.609 3.071 1.104-.094 1.518-.742.475-.742-.376 0-.683-.099-.683-.22s.357-.22.793-.22c.437 0 .794.076.794.17 0 .093.166.396.368.673.313.428.433.45.794.15.522-.433.55-.817.06-.817-.202 0-.433-.255-.515-.567-.127-.486-.025-.447.715.27.474.46.943.754 1.043.654.308-.308.2-.622-.216-.622a.403.403 0 01-.397-.406c0-.324.107-.349.53-.123.43.23.528.201.528-.155 0-.347.079-.374.372-.13.306.253.361.168.316-.483-.038-.547-.483-1.244-1.444-2.26-2.14-2.262-2.504-3.311-2.63-7.555-.106-3.568-.052-4.094 1.387-13.494.703-4.593 1.009-11.038.697-14.688-.402-4.702-.36-6.47.252-10.49 1.61-10.584 1.646-11.018 1.68-20.595.032-9.167-.15-11.75-1.187-16.89l-.285-1.413-.637.599c-.831.78-.82.403.017-.592 1.056-1.254 1.311-2.65.967-5.282-.423-3.234-.374-4.658.248-7.163.343-1.384.6-3.524.695-5.772l.15-3.571-.633.582c-1.51 1.39-5.309 2.337-6.844 1.707-.55-.226-.362-.274 1.116-.288 3.04-.029 5.65-1.258 6.391-3.01.197-.464.635-1.082.974-1.373l.615-.529-.61.878c-.579.833-.603 1.047-.475 4.233.111 2.787.318 4.07 1.22 7.567.606 2.343 1.088 4.831 1.088 5.61 0 1.92 1.635 6.355 6.575 17.828.985 2.289 1.084 2.726 1.11 4.895.016 1.31.178 2.798.361 3.307.31.862.427.935 1.684 1.064.742.076 1.42.208 1.504.293.085.084-.443.096-1.174.026-1.51-.145-1.585-.014-.83 1.472.274.54.696 1.754.937 2.699.74 2.899 1.516 3.006.857.118-.222-.975-.305-1.668-.184-1.54.121.129.426 1.186.678 2.35.518 2.397.789 3.043 1.275 3.043.274 0 .272-.39-.012-2.044-.429-2.506-.3-3.24.152-.86.48 2.536.815 3.433 1.279 3.433.348 0 .386-.26.246-1.654a221.54 221.54 0 01-.289-3.108l-.121-1.456.236 1.456c.307 1.894.86 3.499 1.194 3.46.465-.055.223-8.441-.264-9.185-.59-.9-.285-.78 1.427.565 1.368 1.074 2.438 1.518 2.392.992-.01-.109-.425-.734-.922-1.389-.497-.654-1.132-1.61-1.412-2.122-.28-.512-1.45-1.782-2.602-2.821-2.017-1.822-2.109-1.956-2.524-3.7-.64-2.68-1.192-6.117-1.645-10.238-.515-4.679-.923-6.217-2.644-9.958-2.128-4.63-3.564-11.092-3.575-16.09-.01-4.976-.913-7.998-2.826-9.457-1.695-1.293-2.615-1.51-7.1-1.679l-4.234-.159 3.152-.132c2.997-.126 3.114-.151 2.381-.525-1.57-.801-3.448-1.984-4.52-2.848-1.02-.822-1.124-.853-1.38-.412-.205.353-.28-.386-.286-2.815l-.008-3.293-.75 1.181c-.875 1.38-2.192 2.558-3.122 2.791-1.142.287-3.164-.051-4.042-.676-.46-.328-1.228-1.177-1.706-1.886l-.868-1.29.064 3.233c.055 2.71.01 3.157-.28 2.764-.321-.438-.415-.41-1.4.413-.582.486-1.982 1.411-3.112 2.057l-2.054 1.174 3.277.132 3.277.132-4.101.172c-6.486.273-8.687 1.254-10.34 4.611-.714 1.453-.807 3.519-.397 8.843.17 2.21.124 3.212-.227 4.895-.98 4.704-1.592 6.721-2.708 8.92-1.205 2.374-2.468 6.671-2.468 8.398 0 1.148-.636 5.858-1.2 8.876-.715 3.833-1.074 4.74-2.303 5.814-2.23 1.949-2.806 2.563-3.215 3.424-.229.482-.591 1.021-.805 1.199-.384.319-1.737 2.479-1.737 2.773 0 .444.844.007 2.254-1.165 1.784-1.484 2.205-1.655 1.528-.622-.368.562-.39.732-.108.826.26.087.273.169.044.31-.437.27-.735 7.796-.318 8.054.177.11.406-.065.556-.424.42-1.011 1.082-4.741.9-5.068-.124-.22-.085-.225.14-.019.238.219.21.873-.119 2.778-.236 1.371-.486 2.583-.554 2.694-.218.353.198 1.254.58 1.254.36 0 .474-.31 1.307-3.572.266-1.04.358-1.223.266-.529-.451 3.405-.459 3.572-.156 3.572.384 0 .784-1.024 1.134-2.909.148-.8.444-1.752.658-2.116.26-.445.333-.49.22-.134-.321 1.018-.66 3.13-.524 3.266.293.292.687-.46 1.097-2.095.234-.935.718-2.282 1.074-2.992l.648-1.291-1.488.123c-.826.069-1.337.027-1.147-.093.188-.12.851-.22 1.473-.222 1.465-.005 1.677-.492 1.899-4.37.153-2.684.255-3.105 1.302-5.423.996-2.205 2.761-6.455 5.358-12.903.541-1.343.85-2.71 1.024-4.537.137-1.438.492-3.55.788-4.694.905-3.493 1.33-6.445 1.33-9.25 0-2.302-.077-2.783-.556-3.44-.496-.68-.467-.669.265.101.451.476.82 1.03.82 1.234 0 1.218 3.57 2.785 6.427 2.821 1.741.022 1.827.047.982.292-1.884.546-5.338-.315-6.81-1.698l-.598-.562.008 2.229c.004 1.226.242 3.36.529 4.742 1.1 5.304 1.134 5.653.85 8.67-.331 3.509-.139 4.717.977 6.125.91 1.15.834 1.443-.139.53l-.586-.552-.144.75c-1.22 6.364-1.571 11.155-1.406 19.138.16 7.773.276 9.053 1.63 18.124.642 4.293.69 5.114.488 8.334-.495 7.932-.24 12.207 1.377 23.019.606 4.048.67 5.096.513 8.334-.214 4.397-.495 5.205-2.615 7.512-1.016 1.104-1.482 1.83-1.482 2.308 0 .593.06.647.403.361.337-.28.375-.263.236.1-.188.49.167.58.596.152.2-.2.328-.161.441.133.1.26.015.414-.23.414-.432 0-.523.415-.141.65.135.084.403-.065.595-.33.495-.688.922-.891.922-.44 0 .212-.159.385-.353.385-.446 0-.464.705-.022.883.602.243.739.181.975-.44zM55 153.709c-.14-.363-.1-.38.236-.1.46.381.507.534.167.534-.13 0-.312-.195-.403-.434zm-2.682-40.17c-.21-.506-.383-1.272-.383-1.705 0-.433-.12-.86-.265-.95-.145-.09-.264-.365-.263-.611 0-.286.184-.146.51.39.281.46.727.962.992 1.116.264.153.356.283.203.287-.153.004-.42-.134-.595-.31-.419-.418-.405-.057.053 1.467.436 1.449.295 1.625-.252.315zm-12.01-1.11c-.012-.458-.132-.54-.61-.415-.555.143-.546.11.128-.488.398-.353.902-1.08 1.12-1.615l.397-.974-.856-.515c-.47-.283-1.034-.58-1.252-.66-.28-.101-.242-.147.132-.156.291-.007.95.251 1.464.574l.936.587-.723 2.117c-.397 1.164-.729 1.86-.736 1.546zm15.366-3.799c-.027-1.133.104-1.666.587-2.381.342-.507.77-1.376.952-1.931.182-.556.392-.95.466-.875.21.21-.662 2.576-1.147 3.112-.238.262-.52 1.165-.628 2.006l-.196 1.529zm-18.95-.186c.13-.66.023-1.048-.474-1.72-.352-.477-.732-1.105-.843-1.396-.37-.972-.616-2.247-.407-2.118.113.07.282.531.374 1.025.093.494.523 1.387.956 1.985.817 1.127.98 1.996.503 2.68-.206.295-.233.179-.109-.456zm14.152.263c.219-.083.681-.372 1.028-.64.347-.27.883-.481 1.19-.47.389.015.439.067.164.17-.219.082-.713.37-1.1.641-.386.27-.922.482-1.19.47-.375-.015-.396-.056-.092-.171zM15.71 85.786c.06-.052.586-.168 1.168-.257.721-.11.932-.082.662.09-.362.231-2.087.388-1.83.167zm59.51-.174c-.28-.183-.123-.21.528-.09 1.141.21 1.357.36.507.355-.351-.002-.818-.121-1.036-.265zm-57.416-6.045c0-.125.298-.17.662-.101.364.07.661.172.661.228s-.297.101-.661.101-.662-.102-.662-.228zm56.224-.036c.723-.31.926-.31.926 0 0 .145-.327.256-.727.246-.645-.017-.667-.045-.199-.246zM46.155 62.3c-.39-.624-.193-1.026.504-1.026.609 0 .612.015.166.874-.336.647-.358.652-.67.152zm-20.24-4.155c-.242-.266-.435-.594-.43-.728.004-.134.129-.035.277.22.356.61 1.231.584 2.3-.068.957-.583 1.119-.629 1.119-.316 0 .213-2.208 1.376-2.612 1.376-.12 0-.414-.218-.655-.484zm38.364-.076c-.56-.296-.957-.597-.884-.67.073-.073.495.055.937.284.97.501 1.914.535 2.426.086.207-.182.153-.063-.12.264-.606.725-1.04.732-2.359.036zm-17.101-30.8c-.003-.15.53-1.133 1.185-2.185s1.19-2.024 1.19-2.16.126-.325.279-.42c.153-.094.105.242-.106.746-.472 1.13-2.54 4.392-2.548 4.019zM44.43 25.94c-.82-1.297-2.026-3.71-2.01-4.022.006-.11.197.157.424.594a73.02 73.02 0 001.48 2.588c1.187 1.996 1.274 2.685.106.84zM33.59 154.23a.25.25 0 00-.352 0c-.097.097-.018.177.176.177.194 0 .273-.08.176-.177zm25.93 0a.25.25 0 00-.353 0c-.097.097-.018.177.176.177.194 0 .273-.08.176-.177zM48.43 21.59c.8-.488 2.37-2.627 2.813-3.832.288-.785.945-6.657.951-8.5.006-1.935-.547-2.908-2.485-4.373-1.506-1.138-2.382-1.363-4.422-1.132-1.154.13-1.786.39-2.775 1.137-2.638 1.994-2.857 2.956-2.083 9.157.507 4.065 1.487 6.159 3.563 7.613.927.65 3.32.612 4.438-.07zm-2.58-2.383c0-.146.237-.265.528-.265.292 0 .53.12.53.265s-.238.264-.53.264c-.29 0-.529-.119-.529-.264zm-1.268-1.568c1.015-.138 2.286-.074 3.263.034 1.176.13.17.74-1.788.74-1.693 0-1.976-.878-1.475-.774zm1.863.334c-.182-.073-.48-.073-.662 0s-.033.134.33.134c.365 0 .514-.06.332-.134zm-1.715-2.146c-.153-.186-.202-.414-.109-.507.093-.094.17-.061.171.072 0 .134.418.264.926.29.509.026.925-.067.925-.208 0-.148.238-.127.57.05.503.27.547.247.38-.19-.15-.395-.122-.428.146-.162.247.245.256.407.034.63-.42.419-2.7.438-3.043.025zm-2.254-3.146c-.456-.183-.418-1.147.044-1.147.207 0 .549-.067.76-.148.211-.08.584.052.828.296.415.415.398.467-.26.81-.747.386-.849.4-1.372.19zm5.85-.22c-.083-.217-.256-.33-.385-.25-.128.079-.166-.032-.084-.246.198-.515.652-.67 1.488-.51.676.129.784.43.384 1.07-.286.459-1.218.416-1.402-.064zm-7.24-1.432c0-.912 3.35-1.224 3.644-.34.086.258-.21.329-1.169.28-.706-.038-1.551.023-1.879.134-.365.124-.595.095-.595-.074zm9.129-.014c-.291-.119-1.095-.153-1.786-.076-.863.096-1.257.042-1.257-.17 0-.354.262-.457 1.658-.652.798-.111 1.14-.012 1.72.498.736.649.618.79-.335.4zm-10.327 4.3c-.113-.26-.18-.676-.15-.922.102-.838-.514-2.595-.91-2.595-.213 0-.387.126-.387.28s.09.226.198.158c.11-.067.158.392.108 1.02-.07.87.052 1.336.51 1.956.632.854.981.911.631.103zm-.632-1.025c.012-.308.075-.371.16-.16.076.19.067.42-.021.507-.088.088-.15-.068-.14-.347zm13.547.048c-.098-.453-.068-.482.163-.158.295.413.35.288.35-.794 0-1.087-.065-1.35-.298-1.206-.132.081-.178.386-.102.677.083.317.008.529-.187.529-.212 0-.284.28-.207.805.065.443.02.867-.102.942-.121.075-.216.337-.211.584.007.33.1.282.361-.189.194-.35.299-.885.233-1.19zm77.38 137.829c-1.478-1.128-4.43-4.984-4.43-5.786 0-.555.81-1.497 1.286-1.497.584 0 1.949-.915 2.149-1.441.27-.713-.02-3.418-1.056-9.804-1.244-7.669-1.403-10.069-1.204-18.145l.18-7.297-.936-6.461c-1.889-13.045-1.96-21.545-.277-32.764.256-1.706.325-3.492.215-5.567-.103-1.954-.05-3.593.15-4.545.27-1.29.237-1.839-.243-4.1-.305-1.437-.624-3.06-.709-3.605-.17-1.094-.613-1.358-.613-.365 0 .346-.3 1.804-.669 3.242s-.773 3.69-.9 5.005c-.233 2.395-1.14 5.58-2.158 7.576-.299.585-.957 2.148-1.462 3.473-.506 1.325-1.593 3.903-2.415 5.729-1.46 3.238-1.5 3.394-1.673 6.362-.158 2.702-.283 3.28-1.118 5.16-.517 1.164-1.192 2.985-1.501 4.045-.448 1.54-.692 1.98-1.212 2.177-.357.136-.65.406-.65.6 0 .585-.62 1.244-1.323 1.406l-1.273.296c-.467.109-.646.01-.758-.42-.081-.31-.308-.564-.504-.564-.814 0-.978-1.07-.786-5.113l.189-3.96-1.132.833c-1.277.939-1.612 1.007-2.095.425-.495-.596 2.17-4.473 4.813-7.001 1.887-1.805 2.11-2.128 2.467-3.572.562-2.275 1.394-7.473 1.721-10.757.367-3.676 1.098-6.417 2.494-9.351 1.588-3.336 1.641-3.503 2.527-7.94l.793-3.971-.405-3.438c-.454-3.86-.339-5.48.529-7.406 1.165-2.586 2.55-3.646 5.871-4.494 1.8-.46 6.247-2.995 7.88-4.492l1.03-.947-.155-2.95c-.128-2.422-.255-3.085-.71-3.7-1.574-2.13-1.858-2.706-1.855-3.76.006-1.558.39-2.06.99-1.29.449.574.462.527.47-1.72.011-2.712.49-3.872 2.251-5.464 2.93-2.647 6.045-2.647 8.975 0 1.508 1.362 2.18 2.782 2.334 4.933.076 1.065.232 1.715.387 1.62.842-.52 1.015 2.834.2 3.876-.285.364-.52.771-.523.905-.003.134-.214.474-.468.754-.555.613-.847 6.11-.373 6.996.672 1.256 6.962 5.094 8.373 5.109.928.01 2.657.952 3.695 2.012 1.68 1.716 2.021 2.851 2.296 7.64.305 5.32.57 7.159 1.662 11.557.565 2.272 1.308 4.417 2.092 6.037 1.448 2.994 2.216 5.798 2.572 9.393.359 3.622.966 7.487 1.61 10.252l.539 2.315 1.863 1.654c1.025.91 2.26 2.25 2.743 2.977.484.728 1.25 1.844 1.703 2.48 1.363 1.917.454 2.758-1.48 1.369l-1.183-.85.073 4.322c.072 4.224.06 4.326-.506 4.575-.318.14-.634.467-.702.727-.133.509-1.092.65-1.369.202a.539.539 0 00-.478-.233c-.763.094-1.024-.082-1.378-.931-.209-.499-.616-.982-.906-1.074-.382-.121-.678-.692-1.075-2.07a35.737 35.737 0 00-1.298-3.622c-1.141-2.62-1.133-2.584-1.323-5.689-.17-2.796-.236-3.04-1.663-6.218-.816-1.819-1.9-4.39-2.409-5.715s-1.16-2.872-1.45-3.44c-1.002-1.964-1.954-5.275-2.17-7.541-.12-1.252-.61-3.825-1.09-5.718l-.874-3.442-.607 2.94c-.334 1.617-.606 3.417-.605 3.999.006 4.73.262 10.905.515 12.422.787 4.723 1.069 8.29 1.067 13.507 0 4.954-.525 13.875-.911 15.522-.08.34-.442 2.63-.805 5.09-.718 4.868-.807 7.72-.384 12.185.365 3.845-.035 9.606-1.213 17.474a3188.44 3188.44 0 00-1.16 7.805c-.35 2.405-.178 3.003 1.02 3.531.545.24 1.069.438 1.164.438.436 0 1.237.97 1.237 1.497 0 .823-3.01 4.725-4.471 5.798-.904.663-1.495.895-2.292.9-2.002.012-2.755-1.448-2.363-4.583.111-.896.2-2.193.196-2.885-.004-.69.003-2.06.014-3.042.096-7.7-.01-10.038-.544-12.105-.965-3.729-1.236-5.948-1.13-9.26.2-6.243.141-7.896-.339-9.57-.323-1.126-.502-2.888-.578-5.688-.06-2.232-.238-5.01-.394-6.174-.156-1.164-.44-4.945-.632-8.402-.191-3.457-.426-6.364-.522-6.46-.096-.096-.18 1.184-.188 2.846-.015 3.57-.367 9.212-.783 12.545-.164 1.31-.338 4.006-.388 5.992-.065 2.606-.254 4.261-.679 5.953-.561 2.234-.574 2.53-.281 6.361.33 4.332.087 7.088-1.05 11.876-.396 1.666-.507 3.119-.507 6.614 0 2.464-.014 5.194-.032 6.067-.055 2.643-.023 3.63.17 5.349.363 3.213-.336 4.573-2.352 4.573-.908 0-1.407-.195-2.356-.92zm3.978-.404c.251-.476.302-1.255.182-2.778-.092-1.164-.166-2.593-.165-3.175l.01-6.773c.006-4.172.121-6.244.426-7.673 1.454-6.83 1.587-8.276 1.192-12.983-.306-3.642-.294-3.912.252-5.86.436-1.553.632-3.29.819-7.263.135-2.871.374-5.936.533-6.809.226-1.251.79-13.542.634-13.828-.021-.038-.47.11-.997.331-.527.22-1.468.39-2.09.378l-1.134-.022 1.529-.328c.84-.18 1.852-.57 2.249-.866l.72-.538.072-4.8c.019-1.247.144-3.157.3-3.157.159 0 .29 1.621.29 3.078 0 5.443-.06 5.301 2.557 6.123 1.05.33 1.325.492.858.508-.377.014-1.245-.144-1.929-.35l-1.243-.374.139 2.557c.076 1.406.206 3.926.29 5.6.082 1.673.318 4.53.523 6.35.205 1.819.431 5.093.502 7.276.096 2.97.272 4.468.698 5.953.547 1.904.557 2.156.249 6.24-.348 4.608-.104 7.281 1.111 12.148.53 2.124.655 4.763.544 11.51a171.275 171.275 0 00-.031 3.572c.008.436-.063 1.806-.157 3.042-.225 2.948.057 3.541 1.73 3.65 1.084.072 1.322-.028 2.466-1.035.697-.613 1.85-1.887 2.565-2.83 1.4-1.85 1.692-2.86.755-2.614-.366.095-.842-.12-1.454-.657l-.91-.8-.272.622c-.56 1.282-.02-6.2.797-11.02 1.305-7.703 1.756-14.234 1.335-19.337-.409-4.966-.345-6.143.737-13.471.451-3.056.943-6.985 1.092-8.732.343-4.01.358-15.467.024-17.808-.139-.974-.445-3.17-.68-4.882-.398-2.89-.567-3.711-1.049-5.09-.144-.415-.125-.445.09-.14.682.964.874-1.62.462-6.21-.165-1.84-.12-2.783.202-4.145.573-2.428 1.228-6.934 1.228-8.447 0-1.4.573-4.513 1.164-6.326.587-1.802.498-.51-.134 1.94-.951 3.684-.84 7.183.371 11.61.546 1.995 1.097 4.74 1.226 6.099.169 1.789.49 3.124 1.16 4.838 1.577 4.028 4.032 9.921 5.229 12.554 1.07 2.353 1.154 2.709 1.313 5.556.15 2.684.272 3.262 1.035 4.895.476 1.019 1.083 2.672 1.348 3.674.44 1.662.888 2.556 1.133 2.262.052-.063-.041-.918-.207-1.9-.39-2.302-.04-1.956.468.462.446 2.127.822 3.182 1.223 3.43.353.218.356-.379.014-2.39-.544-3.188-.545-3.203-.228-2.665.159.27.4 1.39.537 2.488.27 2.18.574 2.974 1.136 2.974.518 0 .597-.419.371-1.96-.273-1.859-.519-4.58-.385-4.258.061.145.264 1.366.45 2.712.298 2.14.406 2.447.86 2.447.502 0 .513-.143.344-4.167-.097-2.292-.237-4.643-.313-5.225-.103-.797-.076-.921.111-.503.265.594 2.682 2.487 3.175 2.487.47 0 .355-.317-.627-1.723a43.15 43.15 0 01-1.39-2.11c-.482-.817-1.481-1.87-3.538-3.73-1.06-.958-1.244-1.299-1.645-3.042-.607-2.647-1.402-7.687-1.76-11.17-.326-3.152-.944-5.466-2.199-8.225l-.828-1.821-.433 1.028-.433 1.027.12-1.477c.089-1.079-.108-2.438-.726-5.028l-1.245-5.216c-.244-1.02-.424-3.276-.466-5.82-.08-4.835-.455-6.395-1.928-8.026-1.458-1.613-4.102-2.788-3.655-1.625.139.363.05.34-.435-.112-.335-.313-1.562-1.068-2.727-1.678-2.506-1.313-3.536-2.034-5.225-3.657-1.098-1.055-1.688-1.922-1.032-1.517.124.077.305-1.434.404-3.357.098-1.924.292-4.271.431-5.217.445-3.034.332-5.776-.291-7.063-.616-1.272-2.277-2.764-3.776-3.39-2.144-.896-5.191.32-6.915 2.76-.697.987-.804 1.386-.882 3.284-.048 1.188.043 2.994.204 4.012.16 1.019.327 2.329.37 2.91.346 4.644.542 6.187.767 6.048.149-.092.14.056-.018.353-.52.973-2.574 2.629-5.107 4.12-1.399.823-2.945 1.827-3.436 2.232-.492.405-.73.529-.53.276.464-.589.178-.594-1.741-.036-1.77.514-3.144 1.695-4.188 3.596-.687 1.252-.77 1.66-.777 3.785-.01 2.979.343 5.66.674 5.135.33-.522.322.211-.019 1.674-1.254 5.379-1.969 9.343-1.977 10.959-.009 1.978-.209 2.295-.52.824l-.183-.865-.774 1.507c-1.189 2.314-2.084 5.797-2.502 9.734-.422 3.975-.973 7.425-1.617 10.135-.45 1.892-.826 2.403-3.177 4.33-.657.538-1.432 1.404-1.72 1.924-.29.52-.993 1.6-1.562 2.4-1.13 1.59-1.229 1.852-.697 1.852.756 0 2.821-1.903 2.838-2.615.016-.647.032-.656.243-.132.126.311.123 1.72-.007 3.175-.455 5.103-.228 7.96.536 6.725.198-.32.585-2.919.64-4.284.015-.386.13-.639.254-.562.125.078.145.632.045 1.232-.705 4.218-.701 4.928.03 4.928.494 0 .595-.306.997-3.025.186-1.26.456-2.407.599-2.55s.055.903-.196 2.326c-.25 1.423-.36 2.69-.243 2.814.38.406 1.02-.98 1.317-2.852.16-1.007.413-2.02.56-2.25.212-.328.242-.276.14.245a46.088 46.088 0 00-.311 1.984c-.166 1.21-.145 1.288.243.919.234-.223.709-1.354 1.055-2.514s.96-2.823 1.364-3.696c.607-1.314.766-2.112.92-4.63.117-1.903.353-3.42.631-4.048.245-.553.812-1.803 1.26-2.778.449-.976 1.386-3.202 2.085-4.949a278.616 278.616 0 012.179-5.291c1.02-2.373 1.411-3.935 1.64-6.54.086-.978.437-2.886.78-4.241 1.101-4.339 1.363-6.993.987-10.002-.181-1.456-.484-3.09-.673-3.632s-.411-1.521-.495-2.176c-.13-1.015-.056-.897.5.794.36 1.091.825 3.413 1.036 5.16.579 4.811.871 6.643 1.497 9.385.519 2.273.547 2.79.3 5.557-.295 3.325-.134 5.474.4 5.36.238-.05.26.062.082.397-.137.257-.445 1.777-.685 3.377-1.741 11.641-1.638 21.119.375 34.384.866 5.707.965 8.147.504 12.371-.397 3.628.065 10.632 1.13 17.142 1.2 7.34 1.486 9.987 1.282 11.907-.1.945-.2 1.458-.222 1.14-.063-.902-.424-.925-1.235-.079-.556.58-.903.74-1.363.624-1.07-.269-.74.735.934 2.843 2.454 3.09 3.296 3.707 4.924 3.606.817-.05 1.13-.213 1.402-.726zm-3.095-6.218c-.018-1.018-.14-2.313-.271-2.876-.157-.676-.149-.936.024-.763.49.49.876 3.626.566 4.598-.266.83-.288.764-.32-.959zm2.131.056c-.206-.92-.243-2.081-.108-3.375l.205-1.972.153 3.307c.083 1.819.132 3.338.108 3.375-.024.037-.185-.564-.358-1.335zm12.834.413c-.18-.736.246-3.991.487-3.73.045.047 0 1.098-.1 2.335-.148 1.863-.215 2.102-.387 1.395zm-1.917-2.453c-.01-2.308.007-2.396.212-1.073.123.793.128 1.924.011 2.514-.168.853-.214.558-.223-1.441zm-10.564-29.447c-.198-.45-.58-.626-1.694-.785-2.065-.294-2.06-.564.007-.36 1.631.16 1.764.132 2.047-.427.25-.497.274-.374.14.724-.196 1.594-.182 1.571-.5.848zm9.76-.65c-.022-.691.017-1.042.087-.78.112.42.354.461 2.024.342 1.262-.09 1.63-.06 1.102.087a8.574 8.574 0 01-1.66.254c-.666.024-.925.185-1.118.693-.345.908-.39.845-.436-.597zm-14.686.866c-.095-.095-.051-.612.097-1.148.148-.536.21-1.748.138-2.694-.076-1-.042-1.498.083-1.19.414 1.023.132 5.486-.318 5.032zm19.627-1.162c-.207-.863-.242-1.848-.1-2.858.214-1.54.214-1.537.38 1.236.09 1.528.135 2.815.1 2.859-.035.044-.206-.512-.38-1.237zm-14.825-47.644c0-.282.107-.579.237-.66.13-.08.22.151.198.514-.044.772-.435.903-.435.146zm10.35.337a4.34 4.34 0 00-.202-.794c-.133-.376-.098-.416.157-.182.18.167.271.524.202.794-.07.27-.14.352-.157.182zm-24.546-5.863c.241-.266.438-.609.438-.762 0-.152.179-.425.397-.606.496-.412.498-.227.013.934-.225.539-.57.918-.834.918-.42 0-.422-.033-.014-.484zm38.358.153c-.135-.182-.385-.658-.556-1.058-.491-1.15.132-.858.706.33.481.997.387 1.453-.15.728zm-18.941-1.852c-.08-1.055-.058-7.872.048-15.148l.192-13.229.048 15.148c.026 8.33.005 15.147-.048 15.147s-.16-.863-.24-1.918zm-8.82-16.007c.474-1.574 1.043-4.75 1.195-6.681.175-2.22.18-2.233.394-.998.23 1.33-.409 5.608-1.088 7.282-.364.899-.744 1.199-.502.397zm17.259-.133c-.434-.685-1.226-5.134-1.22-6.846.002-.636.13-1.336.286-1.554.209-.294.24-.1.12.753-.141 1.015.917 7.342 1.344 8.034.071.115.065.209-.013.209s-.31-.268-.517-.596zM127.517 145.5a.25.25 0 00-.352 0c-.097.097-.018.177.176.177.194 0 .273-.08.176-.177zm22.909.001a1.021 1.021 0 00-.662 0c-.181.074-.033.134.331.134s.513-.06.33-.134zm-.86-.486a.133.133 0 00-.132-.132.133.133 0 00-.133.132.133.133 0 00.265 0zM131.562 15.188c-.327-.337-.5-.434-.382-.216.355.665.728 1.078.855.95.067-.066-.146-.397-.473-.734zm13.638.313c.09-.145.104-.264.032-.264-.073 0-.206.119-.296.264-.09.146-.104.265-.031.265.072 0 .205-.119.295-.265z"/><circle cx="78.729" cy="94.094" fill="#f60" r="1.336"/><text font-family="Sans" font-size="4.233" letter-spacing="0" text-anchor="middle" word-spacing="0" x="84.5" y="100.012"><tspan fill="#d45500" font-size="4.939" x="84.5" y="100.012">−63 dB</tspan></text><circle cx="67.811" cy="62.064" fill="#f60" r="1.336"/><text font-family="Sans" font-size="4.233" letter-spacing="0" text-anchor="middle" word-spacing="0" x="80.515" y="60.115"><tspan fill="#d45500" font-size="4.939" x="80.515" y="60.115">−34 dB</tspan></text><circle cx="122.162" cy="29.859" fill="#f60" r="1.336"/><text font-family="Sans" font-size="4.233" letter-spacing="0" text-anchor="middle" word-spacing="0" x="117.164" y="27.447"><tspan fill="#d45500" font-size="4.939" x="117.164" y="27.447">−29 dB</tspan></text><circle cx="117.284" cy="65.54" fill="#f60" r="1.336"/><text font-family="Sans" font-size="4.233" letter-spacing="0" text-anchor="middle" word-spacing="0" x="107.041" y="63.696"><tspan fill="#d45500" font-size="4.939" x="107.041" y="63.696">−31 dB</tspan></text><circle cx="129.245" cy="147.458" fill="#f60" r="1.336"/><text font-family="Sans" font-size="4.233" letter-spacing="0" text-anchor="middle" word-spacing="0" x="116.093" y="149.809"><tspan fill="#d45500" font-size="4.939" x="116.093" y="149.809">−34 dB</tspan></text><circle cx="74.975" cy="77.486" fill="#f60" r="1.336"/><circle cx="69.823" cy="79.3" fill="#f60" r="1.336"/><g font-family="Sans" font-size="4.233" letter-spacing="0" text-anchor="middle" word-spacing="0"><text x="85.08" y="75.666"><tspan fill="#d45500" font-size="4.939" x="85.08" y="75.666">−39 dB</tspan></text><text x="58.573" y="83.245"><tspan fill="#d45500" font-size="4.939" x="58.573" y="83.245">−33 dB</tspan></text></g></g></svg>