<svg height="302.363" viewBox="0 0 453.543 226.772" width="604.724" xmlns="http://www.w3.org/2000/svg" xmlns:xlink="http://www.w3.org/1999/xlink"><clipPath id="a"><path d="M157 44h182v182.773H157zm0 0"/></clipPath><clipPath id="J"><path d="M201 181h36v45.773h-36zm0 0"/></clipPath><clipPath id="L"><path d="M216 181h36v45.773h-36zm0 0"/></clipPath><clipPath id="M"><path d="M216 181h37v45.773h-37zm0 0"/></clipPath><clipPath id="O"><path d="M232 181h36v45.773h-36zm0 0"/></clipPath><clipPath id="P"><path d="M231 181h37v45.773h-37zm0 0"/></clipPath><clipPath id="R"><path d="M247 181h36v45.773h-36zm0 0"/></clipPath><symbol id="b" overflow="visible"><path d="M.547-9.406V0h1.172v-8.313L3.39-3.359h.968l1.688-4.954V0h1.172v-9.406H5.516L3.875-4.625 2.25-9.406zm0 0"/></symbol><symbol id="c" overflow="visible"><path d="M3.89-8.281L5.235-3.47H2.547zm-.78-1.125L.233 0h1.313l.687-2.453h3.297L6.22 0H7.53L4.656-9.406zm0 0"/></symbol><symbol id="d" overflow="visible"><path d="M.547-9.406l2.719 4.422L.109 0h1.375L3.97-4.047 6.28 0h1.375L4.641-4.984l2.812-4.422H6.078L3.968-5.86 1.907-9.406zm0 0"/></symbol><symbol id="e" overflow="visible"><path d="M3.75-4.172c-1.125 0-1.703-.75-1.703-2.203S2.64-8.578 3.75-8.578c1.094 0 1.75.828 1.75 2.203s-.656 2.203-1.75 2.203zM1.484-.188a4.966 4.966 0 001.829.376c2.328 0 3.578-1.72 3.578-4.891 0-3.36-.985-4.875-3.157-4.875-1.859 0-2.937 1.156-2.937 3.187 0 2.047 1.047 3.22 2.86 3.22.921 0 1.655-.47 2.062-1.313 0 2.375-.844 3.593-2.453 3.593-.657 0-1.25-.171-1.782-.484zm0 0"/></symbol><symbol id="f" overflow="visible"><path d="M3.89-4.469c1.11 0 1.782.672 1.782 1.828 0 1.172-.656 1.829-1.781 1.829S2.109-1.5 2.109-2.641c0-1.156.641-1.828 1.782-1.828zM2.782-5C1.516-4.719.828-3.86.828-2.516.828-.828 1.968.188 3.891.188c1.906 0 3.046-1.016 3.046-2.72C6.938-3.858 6.25-4.718 5-5c1.078-.266 1.719-1.063 1.719-2.14 0-1.5-1.078-2.438-2.828-2.438-1.766 0-2.844.937-2.844 2.437 0 1.079.64 1.875 1.734 2.141zm-.469-2.016c0-1.03.547-1.578 1.579-1.578s1.562.547 1.562 1.578c0 1.016-.547 1.547-1.562 1.547-1.032 0-1.579-.531-1.579-1.547zm0 0"/></symbol><symbol id="g" overflow="visible"><path d="M4.89-5.031c1.094-.297 1.688-1 1.688-2.032 0-.765-.266-1.359-.828-1.812-.547-.469-1.266-.703-2.188-.703-.624 0-1.39.125-2.406.406V-8c.875-.344 1.64-.5 2.407-.5 1.124 0 1.75.531 1.75 1.484 0 .922-.672 1.47-1.86 1.47h-.969V-4.5h.97c1.28 0 2.077.688 2.077 1.781 0 1.188-.765 1.828-2.156 1.828-.828 0-1.64-.203-2.516-.656V-.28a7.936 7.936 0 002.657.469c2.062 0 3.28-1.063 3.28-2.782 0-1.25-.671-2.11-1.905-2.437zm0 0"/></symbol><symbol id="h" overflow="visible"><path d="M3.047-4.719c0 .469.344.828.828.828a.837.837 0 00.844-.828c0-.468-.375-.86-.844-.86s-.828.391-.828.86zm.844-3.843c1.187 0 1.765 1.25 1.765 3.859 0 2.625-.578 3.875-1.765 3.875s-1.782-1.25-1.782-3.875c0-2.61.594-3.86 1.782-3.86zm0-1.016C1.875-9.578.844-7.906.844-4.703c0 3.219 1.031 4.89 3.047 4.89 2 0 3.046-1.671 3.046-4.89 0-3.203-1.046-4.875-3.046-4.875zm0 0"/></symbol><symbol id="i" overflow="visible"><path d="M6.25-9.203a4.687 4.687 0 00-1.844-.375C2.094-9.578.844-7.86.844-4.703c0 3.375.969 4.89 3.156 4.89C5.86.188 6.938-1 6.938-3.015c0-2.062-1.047-3.203-2.86-3.203-.922 0-1.672.469-2.062 1.297 0-2.36.843-3.578 2.453-3.578.656 0 1.25.156 1.781.469zM3.969-5.234c1.14 0 1.703.75 1.703 2.218 0 1.454-.563 2.204-1.703 2.204-1.078 0-1.735-.829-1.735-2.204 0-1.39.657-2.218 1.735-2.218zm0 0"/></symbol><symbol id="j" overflow="visible"><path d="M6.375-9.094c-.875-.312-1.672-.484-2.406-.484-.938 0-1.688.265-2.25.765S.875-7.64.875-6.796c0 1.344.75 2.094 2.5 2.5l.672.156c1.234.266 1.656.704 1.656 1.657 0 1.03-.75 1.625-2.031 1.625-.89 0-1.703-.266-2.672-.891v1.36c.89.374 1.781.578 2.672.578 2.11 0 3.25-.97 3.25-2.75 0-1.547-.781-2.376-2.531-2.782L3.719-5.5c-1.25-.297-1.625-.672-1.625-1.5 0-.938.75-1.547 1.953-1.547.781 0 1.547.25 2.328.75zm0 0"/></symbol><symbol id="k" overflow="visible"><path d="M3.875-9.063H2.703v2H.828v.907h1.875v3.828C2.703-.625 3.343 0 5.078 0H6.5v-.922H5.203c-.984 0-1.328-.375-1.328-1.406v-3.828H6.5v-.907H3.875zm0 0"/></symbol><symbol id="l" overflow="visible"><path d="M7.016-3.813c0-2.109-1.125-3.421-2.907-3.421-1.015 0-1.828.343-2.437 1.015-.594.672-.89 1.578-.89 2.703 0 1.141.296 2.063.921 2.72s1.469.984 2.563.984C5.03.188 5.859 0 6.734-.36v-1.157c-.906.485-1.718.72-2.453.72-1.453 0-2.297-.876-2.297-2.423v-.031h5.032zm-1.172-.343H2.03c.14-1.297.906-2.094 2.016-2.094 1.14 0 1.766.734 1.797 2.094zm0 0"/></symbol><symbol id="m" overflow="visible"><path d="M7.281-5.594V-6.78a2.664 2.664 0 00-1.515-.453c-1.094 0-1.922.562-2.313 1.562v-1.39H2.281V0h1.172v-3.516c0-1.718.781-2.64 2.219-2.64.625 0 1.11.156 1.61.562zm0 0"/></symbol><symbol id="n" overflow="visible"><path d="M3.89-6.25c1.188 0 1.782.938 1.782 2.734 0 1.782-.594 2.72-1.781 2.72s-1.797-.938-1.797-2.72c0-1.796.61-2.734 1.797-2.734zm0-.984C1.923-7.234.86-5.938.86-3.516.86-1.109 1.921.188 3.89.188c1.954 0 3.016-1.297 3.016-3.704 0-2.421-1.062-3.718-3.015-3.718zm0 0"/></symbol><symbol id="o" overflow="visible"><path d="M4.266-6.344c-.25-.593-.672-.89-1.297-.89-.531 0-.953.28-1.219.78v-.609H.687V0H1.75v-4.047c0-.953.063-1.562.172-1.828.125-.25.344-.39.64-.39s.516.124.641.374c.11.22.172.844.172 1.844V0h1.063v-4.047c0-.953.062-1.562.187-1.828.125-.25.36-.39.688-.39.296 0 .5.124.609.374.125.235.172.86.172 1.844V0h1.062v-4.094c0-1.203-.125-2.031-.36-2.468-.234-.454-.624-.672-1.202-.672-.61 0-1.032.296-1.328.89zm0 0"/></symbol><symbol id="p" overflow="visible"><path d="M2.36-.89C2.733-.188 3.374.187 4.25.187 5.953.188 6.984-1.22 6.984-3.5c0-2.328-1.03-3.734-2.734-3.734-.844 0-1.484.375-1.89 1.078v-.907H1.202v9.75H2.36zm3.406-2.626c0 1.797-.563 2.72-1.688 2.72-1.14 0-1.719-.938-1.719-2.72 0-1.796.579-2.734 1.72-2.734 1.124 0 1.687.938 1.687 2.734zm0 0"/></symbol><symbol id="q" overflow="visible"><path d="M4.031-2.563v-7.312H1v.906h1.86v6.406C2.86-.937 3.671 0 5.046 0h1.469v-.984h-1.36c-.75 0-1.125-.532-1.125-1.579zm0 0"/></symbol><symbol id="r" overflow="visible"><path d="M1.61-7.063v.907h1.812v5.25H1.125V0h5.75v-.906H4.578v-6.157zm1.812-2.75v1.47h1.156v-1.47zm0 0"/></symbol><symbol id="s" overflow="visible"><path d="M6.703-9.813H5.297c-1.484 0-2.188.72-2.188 2.266v.484H1.22v.907h1.89V0h1.157v-6.156h2.437v-.907H4.266v-.609c0-.89.296-1.172 1.109-1.172h1.328zm0 0"/></symbol><symbol id="t" overflow="visible"><path d="M5.219-.578v-3.047H3.28v.781h1.031v1.906c-.265.204-.578.297-.984.297-1.25 0-1.844-.921-1.844-2.89 0-1.922.625-2.875 1.86-2.875.61 0 1.125.218 1.64.703v-.984c-.515-.329-1.046-.5-1.64-.5-1.797 0-2.86 1.359-2.86 3.656 0 1.156.25 2.062.75 2.703.485.64 1.188.969 2.094.969.735 0 1.39-.25 1.89-.72zm0 0"/></symbol><symbol id="u" overflow="visible"><path d="M2.656-7.36v.97l-.469 1.812h.735l.922-1.813v-.968zm0 0"/></symbol><symbol id="v" overflow="visible"><path d="M3.594-3.328c.922-.125 1.453-.766 1.453-1.688 0-1.328-.86-2.046-2.406-2.046H.67V0h.97v-2.984h.906c.328 0 .578.078.765.218.188.157.407.47.657.985L4.813 0h1.015l-.953-1.922c-.266-.531-.484-.875-.656-1.047s-.375-.297-.625-.36zM1.64-6.281h1c.906 0 1.406.453 1.406 1.265 0 .844-.438 1.25-1.36 1.25H1.641zm0 0"/></symbol><symbol id="w" overflow="visible"><path d="M3.313-5.547h-.797v2.11H.422v.796h2.094v2.11h.796v-2.11h2.11v-.796h-2.11zm0 0"/></symbol><symbol id="x" overflow="visible"><path d="M1.688-3.047v.781H4.14v-.78zm0 0"/></symbol><symbol id="y" overflow="visible"><path d="M1.016-7.063V0H5.39v-.797H1.969v-6.266zm0 0"/></symbol><symbol id="z" overflow="visible"><path d="M4.781-6.813c-.656-.25-1.25-.375-1.797-.375-.703 0-1.265.188-1.703.579-.406.375-.625.875-.625 1.5 0 1.015.563 1.578 1.875 1.89l.516.11c.922.203 1.234.53 1.234 1.234 0 .781-.562 1.234-1.531 1.234-.656 0-1.281-.203-2-.671v1.015c.672.281 1.344.438 2 .438 1.594 0 2.438-.72 2.438-2.063 0-1.156-.579-1.781-1.891-2.094l-.5-.109c-.953-.219-1.235-.5-1.235-1.125 0-.703.563-1.156 1.47-1.156.593 0 1.171.172 1.75.562zm0 0"/></symbol><symbol id="A" overflow="visible"><path d="M2.063-.781h-.454v-5.5h.454c.812 0 1.359.203 1.687.61.313.39.469 1.109.469 2.14 0 1.047-.157 1.765-.485 2.156-.312.39-.859.594-1.671.594zm.015-6.282H.656V0h1.422C4.25 0 5.234-1.11 5.234-3.531c0-2.406-.984-3.531-3.156-3.531zm0 0"/></symbol><symbol id="B" overflow="visible"><path d="M0-7.063L1.063 0h.89l.969-4.188L3.875 0h.906l1.047-7.063h-.922l-.687 5.75-.813-3.812h-1L1.61-1.328.938-7.062zm0 0"/></symbol><symbol id="C" overflow="visible"><path d="M.656-7.063V0h.922v-5.813L3.968 0h1.204v-7.063H4.25v5.813L1.875-7.063zm0 0"/></symbol><symbol id="D" overflow="visible"><path d="M2.922-.797L1.266-7.063h-1L2.328 0H3.5l2.063-7.063h-.985zm0 0"/></symbol><symbol id="E" overflow="visible"><path d="M4.281-3.531c0 2.094-.39 2.89-1.36 2.89s-1.374-.828-1.374-2.89.406-2.875 1.375-2.875 1.36.812 1.36 2.875zm1 0c0-2.469-.781-3.656-2.36-3.656C1.329-7.188.548-6 .548-3.531.547-1.047 1.312.14 2.922.14c1.578 0 2.36-1.204 2.36-3.672zm0 0"/></symbol><symbol id="F" overflow="visible"><path d="M.703-2.719c0 .719.047 1.235.125 1.547.094.313.25.563.469.75.422.39.953.563 1.625.563.656 0 1.187-.172 1.61-.563.218-.203.374-.453.468-.75.078-.297.14-.812.14-1.547v-4.344h-.968v4.797c0 .688-.031.907-.125 1.063-.203.375-.594.562-1.125.562-.547 0-.938-.187-1.14-.562-.095-.156-.126-.39-.126-1.078v-4.781H.703zm0 0"/></symbol><symbol id="G" overflow="visible"><path d="M.219-7.063v.797h2.219V0h.968v-6.266H5.61v-.796zm0 0"/></symbol><symbol id="H" overflow="visible"><path d="M1.281-.797V0h3.89v-.797H3.704v-6.266H2.75l-1.594.344v.875l1.61-.36v5.407zm0 0"/></symbol><symbol id="I" overflow="visible"><path d="M2.922-3.36c.844 0 1.328.516 1.328 1.376 0 .875-.484 1.375-1.328 1.375s-1.344-.516-1.344-1.375.484-1.375 1.344-1.375zm-.844-.39c-.937.203-1.453.86-1.453 1.86 0 1.265.844 2.03 2.297 2.03 1.422 0 2.297-.765 2.297-2.046 0-.985-.532-1.64-1.469-1.844.813-.203 1.297-.797 1.297-1.61 0-1.124-.813-1.827-2.125-1.827-1.328 0-2.14.703-2.14 1.828 0 .812.484 1.406 1.296 1.609zm-.344-1.516c0-.765.422-1.187 1.188-1.187s1.172.406 1.172 1.187c0 .766-.407 1.157-1.172 1.157S1.734-4.5 1.734-5.266zm0 0"/></symbol><symbol id="K" overflow="visible"><path d="M.984-7.063v3.547a3.005 3.005 0 011.438-.343c1.062 0 1.672.578 1.672 1.593S3.5-.672 2.454-.672c-.61 0-1.188-.156-1.782-.469v.97c.5.202 1.125.312 1.86.312 1.562 0 2.53-.922 2.53-2.407 0-.734-.218-1.312-.656-1.75-.422-.437-1-.656-1.734-.656-.281 0-.547.047-.828.14v-1.734h2.703v-.796zm0 0"/></symbol><symbol id="N" overflow="visible"><path d="M1.766-.797c.687-.734 1.203-1.281 1.53-1.64.345-.36.595-.641.767-.844.64-.735.89-1.297.89-1.906 0-.594-.203-1.079-.625-1.454-.422-.359-.969-.546-1.672-.546-.61 0-1.234.156-1.875.468v.969c.703-.438 1.328-.64 1.906-.64.797 0 1.297.484 1.297 1.265 0 .25-.062.5-.171.734s-.313.547-.641.938c-.156.187-.469.531-.906 1A93.586 93.586 0 01.719-.797V0h4.297v-.797zm0 0"/></symbol><symbol id="Q" overflow="visible"><path d="M2.813-3.125c-.844 0-1.266-.563-1.266-1.656s.422-1.657 1.266-1.657c.812 0 1.312.61 1.312 1.657 0 1.031-.5 1.656-1.313 1.656zM1.109-.141a3.86 3.86 0 001.375.282c1.75 0 2.688-1.297 2.688-3.672 0-2.516-.734-3.656-2.375-3.656-1.39 0-2.203.875-2.203 2.39 0 1.547.797 2.406 2.14 2.406.704 0 1.25-.343 1.563-.968 0 1.765-.64 2.687-1.844 2.687-.5 0-.937-.125-1.344-.36zm0 0"/></symbol><symbol id="S" overflow="visible"><path d="M-.578-5.219h-3.047v1.938h.781v-1.031h1.906c.204.265.297.578.297.984 0 1.25-.921 1.844-2.89 1.844-1.922 0-2.875-.625-2.875-1.86 0-.61.218-1.125.703-1.64h-.984c-.329.515-.5 1.046-.5 1.64 0 1.797 1.359 2.86 3.656 2.86 1.156 0 2.062-.25 2.703-.75.64-.485.969-1.188.969-2.094 0-.735-.25-1.39-.72-1.89zm0 0"/></symbol><symbol id="T" overflow="visible"><path d="M-2.656-3.328v-.813h.187c1.172.016 1.875.594 1.875 1.547 0 .688-.375 1.094-1 1.094-.718 0-1.062-.516-1.062-1.531zm-.36-1.688c-.937 0-1.328.11-1.64.344-.5.375-.766.984-.766 1.875 0 .547.125 1.125.36 1.781h.875a3.464 3.464 0 01-.5-1.78c0-.938.359-1.329 1.203-1.345h.14v1.172c0 1.531.625 2.344 1.797 2.344 1.031 0 1.688-.703 1.688-1.781 0-.813-.297-1.36-.922-1.735H0v-.875zm0 0"/></symbol><symbol id="U" overflow="visible"><path d="M-5.297-1.203h.672v-1.36h3.953v1.72H0v-4.313h-.672v1.718h-4.625zm-2.062-1.36h1.093v-.874h-1.093zm0 0"/></symbol><symbol id="V" overflow="visible"><path d="M-3.281-4.969c-1.438 0-2.14.516-2.14 1.61 0 .718.312 1.25.921 1.562h-.797v.875H0v-.875h-3c-1.078 0-1.672-.453-1.672-1.266 0-.703.422-1.03 1.39-1.03H0v-.876zm0 0"/></symbol><symbol id="W" overflow="visible"><path d="M-7.36-4.188v.766c1.485.953 2.907 1.406 4.313 1.406s2.828-.453 4.328-1.406v-.765c-1.453.843-2.875 1.25-4.328 1.25-1.437 0-2.86-.407-4.312-1.25zm0 0"/></symbol><symbol id="X" overflow="visible"><path d="M-4.625-4.063c-.531.282-.797.782-.797 1.422 0 1.282 1.047 2.063 2.766 2.063C-.922-.578.14-1.36.14-2.641c0-.64-.282-1.125-.813-1.421H0v-.875h-7.36v.875zM-2.641-1.5c-1.343 0-2.046-.422-2.046-1.266s.703-1.296 2.046-1.296 2.047.453 2.047 1.296S-1.28-1.5-2.64-1.5zm0 0"/></symbol><symbol id="Y" overflow="visible"><path d="M-3.375-1.75v-1.125c0-1.063.422-1.547 1.344-1.547.89 0 1.25.438 1.25 1.547v1.125zm-2.906 0v-1.11c0-.921.297-1.312 1.015-1.312.782 0 1.125.39 1.125 1.313v1.109zm-.782.969H0v-2.094c0-1.656-.656-2.5-1.938-2.5-1 0-1.687.547-1.843 1.484-.125-.828-.625-1.25-1.485-1.25-1.14 0-1.796.813-1.796 2.266zm0 0"/></symbol><symbol id="Z" overflow="visible"><path d="M-7.36-1.64c1.454-.844 2.891-1.25 4.313-1.25 1.438 0 2.86.406 4.328 1.25v-.766C-.203-3.36-1.625-3.812-3.047-3.812c-1.406 0-2.828.453-4.312 1.406zm0 0"/></symbol><symbol id="aa" overflow="visible"><path d="M5.422-7.844H1.266v3.938h.453c.375-.469.828-.688 1.468-.688 1.126 0 1.72.735 1.72 2.11 0 1.359-.61 2.125-1.72 2.125-1.03 0-1.609-.547-1.687-1.547H.922v1.531c.781.36 1.547.531 2.265.531 1.797 0 2.829-.969 2.829-2.64 0-.813-.25-1.454-.735-1.922S4.125-5.11 3.266-5.11c-.594 0-1.094.109-1.454.375v-2.25h3.61zm0 0"/></symbol><symbol id="ab" overflow="visible"><path d="M1.89-7.281h.86v-.563H-.11v.563h.782L3.469 0h.906l2.797-7.281h.766v-.563H5.624v.563h.89L4.204-1.266zm0 0"/></symbol><symbol id="ac" overflow="visible"><path d="M2.203-3.063c0-1.343.531-2.078 1.516-2.078s1.5.797 1.5 2.344-.516 2.344-1.5 2.344-1.516-.719-1.516-2.063zM1.234-5.03v6.703H.313v.562h2.812v-.562h-.922V-.875c.375.703.953 1.031 1.813 1.031.687 0 1.25-.281 1.671-.828.454-.547.672-1.25.672-2.125s-.218-1.578-.671-2.125c-.422-.547-.985-.812-1.672-.812-.86 0-1.438.312-1.813 1.015v-.875H.313v.563zm0 0"/></symbol><symbol id="ad" overflow="visible"><path d="M3.234-.36c-1.03 0-1.562-.828-1.562-2.437 0-1.594.531-2.422 1.562-2.422 1.047 0 1.579.828 1.579 2.422 0 1.61-.532 2.438-1.579 2.438zm0 .516c.829 0 1.485-.281 1.97-.812s.734-1.25.734-2.14-.25-1.61-.735-2.142-1.14-.796-1.969-.796c-.812 0-1.468.265-1.968.796C.78-4.405.53-3.688.53-2.796s.25 1.61.75 2.14 1.157.813 1.953.813zm0 0"/></symbol><symbol id="ae" overflow="visible"><path d="M5.172-5.594h-.688l-1.437 4.36-1.25-3.797h.906v-.563H.172v.563h.625L2.453 0h.781L4.61-4.172 5.984 0h.813l1.656-5.031h.625v-.563H7.047v.563h.812L6.594-1.234zm0 0"/></symbol><symbol id="af" overflow="visible"><path d="M5.828-2.688c-.031-1.984-.953-3.046-2.64-3.046-.782 0-1.438.265-1.922.796C.78-4.39.53-3.688.53-2.796s.25 1.61.75 2.14S2.438.157 3.25.157c1.344 0 2.188-.625 2.484-1.843H4.97C4.75-.813 4.203-.36 3.344-.36c-1.11 0-1.672-.782-1.672-2.282v-.046zm-1.14-.562H1.671c.11-1.297.625-1.969 1.516-1.969.953 0 1.468.672 1.5 1.969zm0 0"/></symbol><symbol id="ag" overflow="visible"><path d="M5.14-5.594a4.383 4.383 0 00-1.03-.14c-.876 0-1.454.359-1.829 1.14v-1H.391v.563h.921v4.468H.438V0h2.97v-.563H2.28v-2.546c0-1.235.531-1.922 1.469-1.922.531 0 .797.265.844.828h.547zm0 0"/></symbol><symbol id="ah" overflow="visible"><path d="M.61-.313a4.91 4.91 0 002.078.47c1.421 0 2.28-.641 2.28-1.704 0-.781-.421-1.234-1.484-1.578l-.765-.234c-.953-.297-1.188-.532-1.188-1 0-.579.422-.86 1.235-.86s1.312.422 1.343 1.157h.563v-1.22c-.688-.312-1.344-.452-1.938-.452C1.406-5.734.61-5.125.61-4.11c0 .734.407 1.156 1.375 1.468l.704.235c.53.172.89.344 1.046.484a.8.8 0 01.25.594c0 .625-.468.969-1.343.969-.954 0-1.454-.422-1.485-1.25H.61zm0 0"/></symbol><symbol id="ai" overflow="visible"><path d="M3.813-5.594v.563h.843v2.547c0 1.25-.484 1.921-1.39 1.921-.407 0-.72-.125-.891-.375-.156-.25-.25-.718-.25-1.406v-3.25H.297v.563h.86v3c0 1.5.562 2.187 1.812 2.187.75 0 1.328-.406 1.687-1.14V0h1.875v-.563h-.906v-5.03zm0 0"/></symbol><symbol id="aj" overflow="visible"><path d="M5.531-1.672h-.765c-.188.86-.688 1.313-1.516 1.313-1.047 0-1.578-.813-1.578-2.438 0-1.61.531-2.422 1.578-2.422.922 0 1.406.422 1.547 1.407h.547V-5.25a4.888 4.888 0 00-2.11-.484c-.796 0-1.453.265-1.953.796s-.75 1.25-.75 2.141.25 1.61.75 2.14 1.157.813 1.953.813c1.25 0 2.032-.64 2.297-1.828zm0 0"/></symbol><symbol id="ax" overflow="visible"><path d="M.594 0H6.89v-1.953H6.25v1.312H2.656v-6.64h1v-.563H.594v.563h1v6.718h-1zm0 0"/></symbol><symbol id="ay" overflow="visible"><path d="M4.625-6.86v-1.062a3.922 3.922 0 00-1.39-.266c-1.266 0-1.922.657-1.922 1.907v.687H.39v.563h.921v4.468H.391V0h3.125v-.563H2.28V-5.03h1.563v-.563H2.28v-.718c0-1.016.266-1.36.985-1.36.562 0 .843.281.859.813zm0 0"/></symbol><symbol id="az" overflow="visible"><path d="M1.156-5.031v3.562c0 1.172.422 1.625 1.532 1.625 1.03 0 1.5-.453 1.546-1.468h-.718C3.5-.656 3.28-.36 2.78-.36c-.25 0-.406-.079-.515-.204-.094-.14-.141-.437-.141-.906V-5.03h1.828v-.563H2.125v-1.734h-.969v1.734H.313v.563zm0 0"/></symbol><symbol id="aA" overflow="visible"><path d="M4.281-1.75c0 .797-.531 1.344-1.343 1.344s-1.329-.5-1.329-1.266c0-.86.47-1.266 1.422-1.266h1.25zm.969-1.734c0-1.47-.828-2.25-2.375-2.25-.61 0-1.234.14-1.906.421v1.141h.5c.11-.687.578-1.047 1.343-1.047.938 0 1.47.485 1.47 1.328v.391h-1.36c-1.516 0-2.39.672-2.39 1.828 0 1.11.78 1.828 2.03 1.828.75 0 1.297-.25 1.72-.765V0h1.827v-.563H5.25zm0 0"/></symbol><symbol id="aB" overflow="visible"><path d="M5.156-3.89C6.36-4.063 6.97-4.673 6.97-5.75c0-1.328-.875-2.094-2.39-2.094H.593v.563h1v6.718h-1V0h3.172v-.563h-1.11v-3.093h1.172c.344 0 .625.078.813.219s.406.453.64.937L6.516 0h1.843v-.563h-.953L6.266-2.89c-.266-.562-.625-.875-1.11-1zm-2.5-.313v-3.078h1.547c1.078 0 1.563.484 1.563 1.531S5.28-4.203 4.203-4.203zm0 0"/></symbol><symbol id="aC" overflow="visible"><path d="M1.047-7.328c0 .344.266.594.594.594.343 0 .593-.25.593-.594a.604.604 0 00-.593-.594.593.593 0 00-.594.594zM2.28-.562v-5.032H.391v.563h.921v4.468H.391V0h2.812v-.563zm0 0"/></symbol><symbol id="aD" overflow="visible"><path d="M5.656-5.031h.922v-.563h-1.89v.875c-.375-.703-.954-1.015-1.813-1.015-.688 0-1.25.265-1.688.812S.531-3.672.531-2.797s.219 1.578.656 2.125 1 .828 1.688.828c.86 0 1.438-.328 1.813-1.031v.75c0 1.375-.516 2-1.657 2-.875 0-1.312-.328-1.453-1.063h-.5v1.172c.61.282 1.297.407 2.016.407 1.64 0 2.562-.907 2.562-2.516zm-.968 1.968v.547c0 1.344-.532 2.063-1.516 2.063s-1.5-.797-1.5-2.344.516-2.344 1.5-2.344 1.515.735 1.515 2.079zm0 0"/></symbol><symbol id="aE" overflow="visible"><path d="M.438 0h2.687v-.563h-.844v-2.546c0-1.25.469-1.922 1.375-1.922.422 0 .719.14.89.375.173.25.25.734.25 1.406v2.688H3.97V0h2.656v-.563h-.86v-2.984c0-1.515-.562-2.187-1.796-2.187-.766 0-1.328.39-1.688 1.14v-3.593H.391v.562h.921v7.063H.438zm0 0"/></symbol><symbol id="ak" overflow="visible"><path d="M4.89-2.75H8.22c.172 0 .406 0 .406-.234 0-.25-.234-.25-.406-.25H4.89v-3.344c0-.156 0-.39-.235-.39-.25 0-.25.234-.25.39v3.344H1.063c-.172 0-.391 0-.391.25 0 .234.219.234.39.234h3.344V.594c0 .172 0 .39.25.39.235 0 .235-.218.235-.39zm0 0"/></symbol><symbol id="al" overflow="visible"><path d="M7.875-2.75c.203 0 .422 0 .422-.234 0-.25-.219-.25-.422-.25H1.406c-.203 0-.422 0-.422.25 0 .234.22.234.422.234zm0 0"/></symbol><symbol id="am" overflow="visible"><path d="M.531 0h5.672v-1.766h-.578v1.188H2.391v-5.984h.906v-.5H.53v.5h.906V-.5H.531zm0 0"/></symbol><symbol id="an" overflow="visible"><path d="M5.25-2.422c-.031-1.781-.86-2.734-2.375-2.734-.719 0-1.297.234-1.734.718S.484-3.313.484-2.516s.22 1.438.672 1.922c.438.485 1.032.735 1.766.735C4.14.14 4.89-.422 5.156-1.516H4.47C4.266-.734 3.78-.328 3.016-.328c-1 0-1.516-.703-1.516-2.063v-.03zm-1.031-.5H1.5c.11-1.172.563-1.781 1.375-1.781.844 0 1.313.61 1.344 1.781zm0 0"/></symbol><symbol id="ao" overflow="visible"><path d="M4.172-6.172v-.953a3.622 3.622 0 00-1.266-.234c-1.14 0-1.719.578-1.719 1.703v.625H.345v.5h.844V-.5H.344V0h2.828v-.5H2.047v-4.031h1.406v-.5H2.047v-.64c0-.923.234-1.22.89-1.22.5 0 .766.25.766.72zm0 0"/></symbol><symbol id="ap" overflow="visible"><path d="M1.047-4.531v3.203C1.047-.266 1.422.14 2.422.14c.922 0 1.344-.407 1.39-1.329h-.656c-.015.594-.203.86-.656.86-.219 0-.375-.063-.453-.172-.094-.125-.125-.406-.125-.828v-3.203h1.64v-.5h-1.64v-1.563h-.875v1.563H.28v.5zm0 0"/></symbol><symbol id="aq" overflow="visible"><path d="M4.64-3.5c1.079-.156 1.626-.703 1.626-1.672 0-1.203-.782-1.89-2.157-1.89H.531v.5h.906V-.5H.531V0h2.86v-.5h-1v-2.781h1.062c.313 0 .547.062.719.187s.375.406.578.844L5.86 0H7.53v-.5h-.86l-1.03-2.094c-.25-.515-.563-.797-1-.906zm-2.25-.281v-2.781h1.391c.969 0 1.406.453 1.406 1.39s-.437 1.39-1.406 1.39zm0 0"/></symbol><symbol id="ar" overflow="visible"><path d="M.938-6.594c0 .313.25.547.546.547s.532-.234.532-.547a.54.54 0 00-1.078 0zM2.046-.5v-4.531H.344v.5h.844V-.5H.344V0h2.531v-.5zm0 0"/></symbol><symbol id="as" overflow="visible"><path d="M5.078-4.531h.844v-.5H4.219v.781c-.344-.625-.86-.906-1.625-.906-.625 0-1.125.234-1.531.734-.391.484-.579 1.125-.579 1.906s.188 1.422.579 1.922c.406.485.906.735 1.53.735.766 0 1.282-.297 1.626-.922v.672c0 1.234-.469 1.796-1.485 1.796-.78 0-1.187-.296-1.312-.953H.969v1.063c.547.234 1.156.36 1.828.36 1.469 0 2.281-.813 2.281-2.266zm-.86 1.765v.5c0 1.204-.484 1.86-1.359 1.86-.89 0-1.359-.719-1.359-2.11s.469-2.109 1.36-2.109c.874 0 1.359.656 1.359 1.86zm0 0"/></symbol><symbol id="at" overflow="visible"><path d="M.39 0h2.422v-.5h-.765v-2.297c0-1.125.437-1.734 1.25-1.734.375 0 .64.125.797.343s.234.657.234 1.266V-.5h-.766V0H5.97v-.5h-.782v-2.703c0-1.344-.5-1.953-1.609-1.953-.687 0-1.203.343-1.531 1.015v-3.218H.344v.5h.844V-.5H.39zm0 0"/></symbol><symbol id="au" overflow="visible"><path d="M.906-.344a6.419 6.419 0 002.406.485c1.735 0 2.61-.704 2.61-2.063 0-1.016-.5-1.562-1.781-1.937l-.86-.266c-.64-.188-1.047-.375-1.25-.578-.203-.188-.297-.453-.297-.797 0-.766.532-1.188 1.532-1.188 1.125 0 1.671.422 1.765 1.422h.532v-1.5c-.875-.28-1.657-.421-2.313-.421-1.547 0-2.438.687-2.438 1.89 0 .531.141.953.407 1.25.281.313.75.563 1.437.766L3.578-3c.578.188.953.36 1.125.547.188.172.281.437.281.781 0 .844-.609 1.297-1.734 1.297-1.203 0-1.781-.5-1.813-1.578h-.53zm0 0"/></symbol><symbol id="av" overflow="visible"><path d="M1.984-.5v-6.86H.281v.5h.828V-.5H.281V0h2.531v-.5zm0 0"/></symbol><symbol id="aw" overflow="visible"><path d="M2.39 0h.641l1.844-4.531h.563v-.5H3.563v.5h.75L2.89-1.063 1.484-4.53h.797v-.5H-.03v.5h.578zm0 0"/></symbol><path d="M168.016 214.059V64.39c0-5.637 4.57-10.207 10.207-10.207h139.464c5.637 0 10.204 4.57 10.204 10.207v149.668c0 5.636-4.567 10.207-10.204 10.207H178.224c-5.637 0-10.207-4.57-10.207-10.207zm0 0" fill="#dde2eb"/><g clip-path="url(#a)"><path d="M168.016 214.059V64.39c0-5.637 4.57-10.207 10.207-10.207h139.465c5.636 0 10.203 4.57 10.203 10.207v149.668c0 5.636-4.567 10.207-10.203 10.207H178.223c-5.637 0-10.207-4.57-10.207-10.207zm0 0" fill="none" stroke="#445f8e" stroke-miterlimit="10" stroke-width=".7175999999999999"/></g><use x="194.599" xlink:href="#b" y="72.22"/><use x="202.372" xlink:href="#c" y="72.22"/><use x="210.144" xlink:href="#d" y="72.22"/><use x="217.917" xlink:href="#e" y="72.22"/><use x="225.69" xlink:href="#f" y="72.22"/><use x="233.462" xlink:href="#g" y="72.22"/><use x="241.235" xlink:href="#h" y="72.22"/><use x="249.008" xlink:href="#i" y="72.22"/><use x="260.37" xlink:href="#j" y="72.22"/><use x="268.143" xlink:href="#k" y="72.22"/><use x="275.916" xlink:href="#l" y="72.22"/><use x="283.688" xlink:href="#m" y="72.22"/><use x="291.461" xlink:href="#l" y="72.22"/><use x="299.234" xlink:href="#n" y="72.22"/><use x="237.049" xlink:href="#c" y="87.283"/><use x="244.822" xlink:href="#o" y="87.283"/><use x="252.594" xlink:href="#p" y="87.283"/><use x="260.367" xlink:href="#q" y="87.283"/><use x="268.14" xlink:href="#r" y="87.283"/><use x="275.912" xlink:href="#s" y="87.283"/><use x="283.685" xlink:href="#r" y="87.283"/><use x="291.458" xlink:href="#l" y="87.283"/><use x="299.231" xlink:href="#m" y="87.283"/><path d="M188.938 207.258a3.912 3.912 0 10-7.824-.004 3.912 3.912 0 007.823.004zm0 0" fill="none" stroke="#000" stroke-miterlimit="10" stroke-width=".9564"/><use x="191.479" xlink:href="#t" y="210.806"/><path d="M188.938 191.95a3.913 3.913 0 10-7.826.004 3.913 3.913 0 007.826-.005zm0 0" fill="none" stroke="#000" stroke-miterlimit="10" stroke-width=".9564"/><use x="191.479" xlink:href="#t" y="195.499"/><use x="197.308" xlink:href="#u" y="195.499"/><path d="M188.938 176.64a3.913 3.913 0 10-7.826.006 3.913 3.913 0 007.826-.005zm0 0" fill="none" stroke="#000" stroke-miterlimit="10" stroke-width=".9564"/><use x="191.479" xlink:href="#v" y="180.258"/><use x="197.308" xlink:href="#w" y="180.258"/><path d="M188.938 161.336a3.912 3.912 0 10-7.824-.004 3.912 3.912 0 007.823.004zm0 0" fill="none" stroke="#000" stroke-miterlimit="10" stroke-width=".9564"/><use x="191.479" xlink:href="#v" y="164.951"/><use x="197.308" xlink:href="#x" y="164.951"/><path d="M188.938 146.027a3.913 3.913 0 10-7.826.005 3.913 3.913 0 007.826-.005zm0 0" fill="none" stroke="#000" stroke-miterlimit="10" stroke-width=".9564"/><use x="191.479" xlink:href="#y" y="149.644"/><use x="197.308" xlink:href="#x" y="149.644"/><path d="M188.938 130.723c0-2.164-1.754-3.914-3.915-3.914s-3.91 1.75-3.91 3.914a3.913 3.913 0 007.824 0zm0 0" fill="none" stroke="#000" stroke-miterlimit="10" stroke-width=".9564"/><use x="191.479" xlink:href="#y" y="134.336"/><use x="197.308" xlink:href="#w" y="134.336"/><path d="M188.938 115.414a3.912 3.912 0 10-7.824-.004 3.912 3.912 0 007.823.004zm0 0" fill="none" stroke="#000" stroke-miterlimit="10" stroke-width=".9564"/><use x="191.479" xlink:href="#z" y="118.964"/><use x="197.308" xlink:href="#A" y="118.964"/><use x="203.138" xlink:href="#B" y="118.964"/><use x="208.967" xlink:href="#C" y="118.964"/><path d="M188.938 100.105a3.913 3.913 0 10-7.826.006 3.913 3.913 0 007.826-.006zm0 0" fill="none" stroke="#000" stroke-miterlimit="10" stroke-width=".9564"/><use x="191.479" xlink:href="#t" y="103.657"/><use x="197.308" xlink:href="#C" y="103.657"/><use x="203.138" xlink:href="#A" y="103.657"/><path d="M188.938 84.8a3.912 3.912 0 10-7.824-.004 3.912 3.912 0 007.823.005zm0 0" fill="none" stroke="#000" stroke-miterlimit="10" stroke-width=".9564"/><use x="191.479" xlink:href="#D" y="88.416"/><use x="197.308" xlink:href="#A" y="88.416"/><use x="203.138" xlink:href="#A" y="88.416"/><path d="M187.066 176.64a2.041 2.041 0 10-4.082.005 2.041 2.041 0 004.082-.004zm0 0M187.066 161.336a2.042 2.042 0 10-4.082 0 2.04 2.04 0 004.082 0zm0 0M187.066 146.027a2.041 2.041 0 10-4.082.005 2.041 2.041 0 004.082-.005zm0 0M187.066 130.723a2.042 2.042 0 10-4.082 0 2.04 2.04 0 004.082 0zm0 0M187.066 100.105a2.041 2.041 0 10-4.082.005 2.041 2.041 0 004.082-.005zm0 0M187.066 84.8a2.042 2.042 0 10-4.082 0 2.04 2.04 0 004.082 0zm0 0"/><path d="M311.395 180.043a3.913 3.913 0 10-7.823.005 3.913 3.913 0 007.823-.005zm0 0" fill="none" stroke="#000" stroke-miterlimit="10" stroke-width=".9564"/><path d="M309.523 180.043a2.04 2.04 0 10-4.08.003 2.04 2.04 0 004.08-.003zm0 0"/><path d="M311.395 159.633a3.913 3.913 0 10-7.823.005 3.913 3.913 0 007.823-.005zm0 0" fill="none" stroke="#000" stroke-miterlimit="10" stroke-width=".9564"/><path d="M309.523 159.633a2.04 2.04 0 10-4.08.003 2.04 2.04 0 004.08-.003zm0 0"/><path d="M311.395 139.223a3.913 3.913 0 10-7.823.005 3.913 3.913 0 007.823-.005zm0 0" fill="none" stroke="#000" stroke-miterlimit="10" stroke-width=".9564"/><path d="M309.523 139.223a2.04 2.04 0 10-4.08.003 2.04 2.04 0 004.08-.003zm0 0"/><path d="M311.395 118.813a3.913 3.913 0 10-7.823.005 3.913 3.913 0 007.823-.005zm0 0" fill="none" stroke="#000" stroke-miterlimit="10" stroke-width=".9564"/><path d="M309.523 118.813a2.04 2.04 0 10-4.08.002 2.04 2.04 0 004.08-.002zm0 0"/><use x="296.178" xlink:href="#y" y="108.758"/><use x="302.007" xlink:href="#E" y="108.758"/><use x="307.837" xlink:href="#F" y="108.758"/><use x="313.666" xlink:href="#G" y="108.758"/><use x="319.496" xlink:href="#x" y="108.758"/><path d="M290.477 146.027v-34.015h34.015v34.015zm0 40.82v-34.015h34.015v34.016zm0 0" fill="none" stroke="#445f8e" stroke-miterlimit="10" stroke-width=".7175999999999999"/><use x="296.178" xlink:href="#v" y="197.2"/><use x="302.007" xlink:href="#E" y="197.2"/><use x="307.837" xlink:href="#F" y="197.2"/><use x="313.666" xlink:href="#G" y="197.2"/><use x="319.496" xlink:href="#x" y="197.2"/><use x="213.21" xlink:href="#H" y="190.861"/><use x="219.039" xlink:href="#I" y="190.861"/><g clip-path="url(#J)" fill="none" stroke-miterlimit="10"><path d="M222.953 215.762a3.913 3.913 0 10-7.823-.003 3.913 3.913 0 007.823.003zm0-17.008a3.913 3.913 0 10-7.823-.003 3.913 3.913 0 007.823.003zm0 0" stroke="#000" stroke-width=".9564"/><path d="M211.387 197.05l4.254-5.1h6.8l4.254 5.1v20.41l-4.254 5.102h-6.8l-4.254-5.101zm0 0" stroke="#445f8e" stroke-width=".7175999999999999"/></g><use x="228.517" xlink:href="#H" y="190.861"/><use x="234.346" xlink:href="#K" y="190.861"/><g clip-path="url(#L)"><path d="M238.262 215.762a3.913 3.913 0 10-7.823-.003 3.913 3.913 0 007.823.003zm0-17.008a3.913 3.913 0 10-7.823-.003 3.913 3.913 0 007.823.003zm0 0" fill="none" stroke="#000" stroke-miterlimit="10" stroke-width=".9564"/></g><g clip-path="url(#M)"><path d="M226.695 197.05l4.25-5.1h6.805l4.25 5.1v20.41l-4.25 5.102h-6.805l-4.25-5.101zm0 0" fill="none" stroke="#445f8e" stroke-miterlimit="10" stroke-width=".7175999999999999"/></g><g><use x="243.824" xlink:href="#H" y="190.992"/><use x="249.654" xlink:href="#N" y="190.992"/></g><g clip-path="url(#O)"><path d="M253.566 215.762a3.913 3.913 0 10-7.825-.003 3.913 3.913 0 007.825.003zm0-17.008a3.913 3.913 0 10-7.825-.003 3.913 3.913 0 007.825.003zm0 0" fill="none" stroke="#000" stroke-miterlimit="10" stroke-width=".9564"/></g><g clip-path="url(#P)"><path d="M242 197.05l4.254-5.1h6.805l4.25 5.1v20.41l-4.25 5.102h-6.805L242 217.462zm0 0" fill="none" stroke="#445f8e" stroke-miterlimit="10" stroke-width=".7175999999999999"/></g><use x="262.045" xlink:href="#Q" y="190.861"/><g clip-path="url(#R)" fill="none" stroke-miterlimit="10"><path d="M268.875 215.762a3.913 3.913 0 10-7.823-.003 3.913 3.913 0 007.823.003zm0-17.008a3.913 3.913 0 10-7.823-.003 3.913 3.913 0 007.823.003zm0 0" stroke="#000" stroke-width=".9564"/><path d="M257.309 197.05l4.25-5.1h6.804l4.254 5.1v20.41l-4.254 5.102h-6.804l-4.25-5.101zm0 0" stroke="#445f8e" stroke-width=".7175999999999999"/></g><g><use x="282.166" xlink:href="#S" y="222.562"/><use x="282.166" xlink:href="#T" y="216.732"/><use x="282.166" xlink:href="#U" y="210.902"/><use x="282.166" xlink:href="#V" y="205.073"/></g><g><use x="292.448" xlink:href="#W" y="222.562"/><use x="292.448" xlink:href="#X" y="216.732"/><use x="292.448" xlink:href="#Y" y="210.902"/><use x="292.448" xlink:href="#Z" y="205.073"/></g><path d="M236.39 215.762a2.042 2.042 0 10-4.081 0 2.04 2.04 0 004.082 0zm0-17.008a2.042 2.042 0 10-4.081 0 2.04 2.04 0 004.082 0zm0 0"/><g><use x="101.604" xlink:href="#aa" y="14.071"/><use x="108.447" xlink:href="#ab" y="14.071"/></g><g><use x="119.637" xlink:href="#ac" y="14.071"/><use x="126.523" xlink:href="#ad" y="14.071"/><use x="133" xlink:href="#ae" y="14.071"/><use x="142.21" xlink:href="#af" y="14.071"/><use x="148.58" xlink:href="#ag" y="14.071"/></g><g><use x="157.144" xlink:href="#ah" y="14.071"/><use x="162.664" xlink:href="#ad" y="14.071"/><use x="169.141" xlink:href="#ai" y="14.071"/><use x="176.071" xlink:href="#ag" y="14.071"/><use x="181.214" xlink:href="#aj" y="14.071"/><use x="187.239" xlink:href="#af" y="14.071"/></g><path d="M147.605 20.168v64.629h37.418m-42.52-64.629v79.937h42.52" fill="none" stroke="#000" stroke-miterlimit="10" stroke-width="1.4351999999999998"/><use x="151.909" xlink:href="#ak" y="26.743"/><use x="128.902" xlink:href="#al" y="26.743"/><path d="M185.023 161.336h-22.109v-15.309h22.11" fill="none" stroke="#000" stroke-miterlimit="10" stroke-width="1.4351999999999998"/><path d="M38.754 55.887h5.105" fill="none" stroke="#445f8e" stroke-miterlimit="10" stroke-width=".7175999999999999"/><g><use x="17.563" xlink:href="#am" y="59.405"/><use x="23.993" xlink:href="#an" y="59.405"/><use x="29.725" xlink:href="#ao" y="59.405"/><use x="33.308" xlink:href="#ap" y="59.405"/></g><path d="M38.754 72.895h5.105" fill="none" stroke="#445f8e" stroke-miterlimit="10" stroke-width=".7175999999999999"/><g><use x="10.484" xlink:href="#aq" y="75.403"/><use x="17.776" xlink:href="#ar" y="75.403"/><use x="20.875" xlink:href="#as" y="75.403"/><use x="27.072" xlink:href="#at" y="75.403"/><use x="33.308" xlink:href="#ap" y="75.403"/></g><path d="M38.754 89.902h5.105" fill="none" stroke="#445f8e" stroke-miterlimit="10" stroke-width=".7175999999999999"/><g><use x="4.8" xlink:href="#au" y="93.42"/><use x="11.433" xlink:href="#av" y="93.42"/><use x="14.532" xlink:href="#an" y="93.42"/><use x="20.264" xlink:href="#an" y="93.42"/><use x="25.997" xlink:href="#aw" y="93.42"/><use x="31.468" xlink:href="#an" y="93.42"/></g><path d="M45.559 65.75h6.804v-2.723H51l1.363-4.082v-2.379l-1.703-3.742h-3.402l-1.7 3.742v2.38l1.36 4.081h-1.36zm0 0" fill="none" stroke="#000" stroke-miterlimit="10" stroke-width=".7175999999999999"/><path d="M46.066 68.473V65.75h5.786v2.723zm0 0"/><path d="M45.559 78.676V68.473h6.804v10.203zm0 0" fill="none" stroke="#000" stroke-miterlimit="10" stroke-width=".7175999999999999"/><path d="M46.066 81.398v-2.722h5.786v2.722zm0 0"/><g stroke="#000" stroke-miterlimit="10"><path d="M42.156 103.508v-5.102h3.403V81.398h6.804v17.008h3.399v5.102zm0 0" fill="none" stroke-width=".7175999999999999"/><path d="M42.156 106.91v-3.402h13.606v3.402zm0 0" stroke-width=".7175999999999999"/><path d="M52.363 106.91v23.809h132.66M48.961 106.91v46.77h113.953M45.56 106.91v69.73h139.464" fill="none" stroke-width="1.4351999999999998"/></g><g><use x="61.41" xlink:href="#am" y="128.656"/><use x="67.84" xlink:href="#an" y="128.656"/><use x="73.572" xlink:href="#ao" y="128.656"/><use x="77.155" xlink:href="#ap" y="128.656"/></g><g><use x="61.41" xlink:href="#au" y="151.615"/><use x="68.043" xlink:href="#av" y="151.615"/><use x="71.142" xlink:href="#an" y="151.615"/><use x="76.874" xlink:href="#an" y="151.615"/><use x="82.607" xlink:href="#aw" y="151.615"/><use x="88.078" xlink:href="#an" y="151.615"/></g><g><use x="61.41" xlink:href="#aq" y="173.567"/><use x="68.701" xlink:href="#ar" y="173.567"/><use x="71.8" xlink:href="#as" y="173.567"/><use x="77.998" xlink:href="#at" y="173.567"/><use x="84.234" xlink:href="#ap" y="173.567"/></g><path d="M234.348 215.762v-17.008" fill="none" stroke="#000" stroke-miterlimit="10" stroke-width="1.4351999999999998"/><g><use x="376.054" xlink:href="#ax" y="132.93"/><use x="383.199" xlink:href="#af" y="132.93"/><use x="389.568" xlink:href="#ay" y="132.93"/><use x="393.549" xlink:href="#az" y="132.93"/></g><g><use x="401.296" xlink:href="#az" y="132.93"/><use x="405.622" xlink:href="#aA" y="132.93"/><use x="412.034" xlink:href="#aj" y="132.93"/><use x="418.06" xlink:href="#az" y="132.93"/><use x="422.385" xlink:href="#ad" y="132.93"/><use x="428.862" xlink:href="#ag" y="132.93"/></g><path d="M307.484 118.816h25.852l-.34 7.653h39.117m-64.629 12.754h25.512v-7.653h39.117" fill="none" stroke="#000" stroke-miterlimit="10" stroke-width="1.4351999999999998"/><use x="361.483" xlink:href="#al" y="121.168"/><use x="361.483" xlink:href="#ak" y="142.847"/><g><use x="376.054" xlink:href="#aB" y="172.626"/><use x="384.156" xlink:href="#aC" y="172.626"/><use x="387.599" xlink:href="#aD" y="172.626"/><use x="394.486" xlink:href="#aE" y="172.626"/><use x="401.415" xlink:href="#az" y="172.626"/></g><g><use x="409.162" xlink:href="#az" y="172.626"/><use x="413.487" xlink:href="#aA" y="172.626"/><use x="419.9" xlink:href="#aj" y="172.626"/><use x="425.925" xlink:href="#az" y="172.626"/><use x="430.25" xlink:href="#ad" y="172.626"/><use x="436.728" xlink:href="#ag" y="172.626"/></g><path d="M307.484 159.633h25.852l-.34 7.656h39.117m-64.629 12.754h25.512v-7.652h39.117" fill="none" stroke="#000" stroke-miterlimit="10" stroke-width="1.4351999999999998"/><use x="361.483" xlink:href="#ak" y="161.987"/><use x="361.483" xlink:href="#al" y="183.666"/></svg>