<?xml version="1.0" encoding="utf-8" standalone="no"?>
<!DOCTYPE svg PUBLIC "-//W3C//DTD SVG 1.1//EN"
  "http://www.w3.org/Graphics/SVG/1.1/DTD/svg11.dtd">
<!-- Created with matplotlib (http://matplotlib.org/) -->
<svg height="432pt" version="1.1" viewBox="0 0 648 432" width="648pt" xmlns="http://www.w3.org/2000/svg" xmlns:xlink="http://www.w3.org/1999/xlink">
 <defs>
  <style type="text/css">
*{stroke-linecap:butt;stroke-linejoin:round;}
  </style>
 </defs>
 <g id="figure_1">
  <g id="patch_1">
   <path d="M 0 432
L 648 432
L 648 0
L 0 0
z
" style="fill:#ffffff;"/>
  </g>
  <g id="axes_1">
   <g id="patch_2">
    <path d="M 24.88 107.05
L 625.833135 107.05
L 625.833135 29.76
L 24.88 29.76
z
" style="fill:#ffffff;"/>
   </g>
   <g id="matplotlib.axis_1"/>
   <g id="matplotlib.axis_2">
    <g id="text_1">
     <!-- #9 -->
     <defs>
      <path d="M 51.125 44
L 36.921875 44
L 32.8125 27.6875
L 47.125 27.6875
z
M 43.796875 71.78125
L 38.71875 51.515625
L 52.984375 51.515625
L 58.109375 71.78125
L 65.921875 71.78125
L 60.890625 51.515625
L 76.125 51.515625
L 76.125 44
L 58.984375 44
L 54.984375 27.6875
L 70.515625 27.6875
L 70.515625 20.21875
L 53.078125 20.21875
L 48 0
L 40.1875 0
L 45.21875 20.21875
L 30.90625 20.21875
L 25.875 0
L 18.015625 0
L 23.09375 20.21875
L 7.71875 20.21875
L 7.71875 27.6875
L 24.90625 27.6875
L 29 44
L 13.28125 44
L 13.28125 51.515625
L 30.90625 51.515625
L 35.890625 71.78125
z
" id="DejaVuSans-23"/>
      <path d="M 10.984375 1.515625
L 10.984375 10.5
Q 14.703125 8.734375 18.5 7.8125
Q 22.3125 6.890625 25.984375 6.890625
Q 35.75 6.890625 40.890625 13.453125
Q 46.046875 20.015625 46.78125 33.40625
Q 43.953125 29.203125 39.59375 26.953125
Q 35.25 24.703125 29.984375 24.703125
Q 19.046875 24.703125 12.671875 31.3125
Q 6.296875 37.9375 6.296875 49.421875
Q 6.296875 60.640625 12.9375 67.421875
Q 19.578125 74.21875 30.609375 74.21875
Q 43.265625 74.21875 49.921875 64.515625
Q 56.59375 54.828125 56.59375 36.375
Q 56.59375 19.140625 48.40625 8.859375
Q 40.234375 -1.421875 26.421875 -1.421875
Q 22.703125 -1.421875 18.890625 -0.6875
Q 15.09375 0.046875 10.984375 1.515625
z
M 30.609375 32.421875
Q 37.25 32.421875 41.125 36.953125
Q 45.015625 41.5 45.015625 49.421875
Q 45.015625 57.28125 41.125 61.84375
Q 37.25 66.40625 30.609375 66.40625
Q 23.96875 66.40625 20.09375 61.84375
Q 16.21875 57.28125 16.21875 49.421875
Q 16.21875 41.5 20.09375 36.953125
Q 23.96875 32.421875 30.609375 32.421875
z
" id="DejaVuSans-39"/>
     </defs>
     <g transform="translate(18.800313 75.776094)rotate(-90)scale(0.1 -0.1)">
      <use xlink:href="#DejaVuSans-23"/>
      <use x="83.789062" xlink:href="#DejaVuSans-39"/>
     </g>
    </g>
   </g>
   <g id="line2d_1">
    <path clip-path="url(#p034e4ff73f)" d="M 24.88 68.405
L 38.379968 68.505295
L 39.607238 68.462311
L 41.652688 68.20441
L 42.470868 68.419328
L 43.698138 68.791851
L 44.516318 68.634245
L 46.152677 67.788904
L 46.561767 67.817559
L 46.970857 68.018149
L 48.607217 69.336308
L 49.016307 69.321981
L 49.425397 69.035424
L 51.061757 67.072513
L 51.470847 67.058185
L 51.879937 67.430708
L 52.698117 68.935129
L 53.107206 69.72316
L 53.516296 70.238961
L 53.925386 70.296272
L 54.334476 69.85211
L 55.152656 67.817559
L 55.561746 66.728645
L 55.970836 65.983598
L 56.379926 65.811664
L 56.789016 66.341794
L 57.198106 67.488019
L 58.016286 70.468206
L 58.425376 71.528465
L 58.834466 71.829349
L 59.243556 71.227581
L 59.652646 69.823454
L 60.879915 64.52216
L 61.289005 64.006359
L 61.698095 64.636783
L 62.107185 66.327466
L 63.334455 73.133181
L 63.743545 73.921211
L 64.152635 73.305115
L 64.561725 71.313548
L 65.788995 62.802822
L 66.198085 61.62794
L 66.607175 62.201053
L 67.016265 64.464849
L 68.243535 74.909831
L 68.652625 76.528875
L 69.061714 76.09904
L 69.470804 73.591671
L 70.698074 61.026172
L 71.107164 58.834015
L 71.516254 59.048933
L 71.925344 61.771219
L 73.561704 79.466078
L 73.970794 79.566373
L 74.379884 76.700809
L 75.198064 65.224224
L 75.607154 59.493095
L 76.016244 55.825173
L 76.425334 55.323699
L 76.834423 58.246575
L 77.652603 71.141614
L 78.061693 77.904346
L 78.470783 82.460593
L 78.879873 83.506524
L 79.288963 80.612304
L 79.698053 74.379702
L 80.516233 58.490148
L 80.925323 52.945281
L 81.334413 51.254598
L 81.743503 54.005539
L 82.152593 60.639321
L 83.379863 85.139895
L 83.788953 87.604281
L 84.198043 85.11124
L 84.607133 78.162246
L 85.834402 50.566862
L 86.243492 47.214152
L 86.652582 49.320342
L 87.061672 56.484253
L 88.288942 87.14579
L 88.698032 91.472793
L 89.107122 89.896732
L 89.516212 82.661182
L 90.743482 49.019458
L 91.152572 43.617869
L 91.561662 44.549177
L 91.970752 51.713088
L 93.198021 88.148738
L 93.607111 94.696552
L 94.016201 94.553274
L 94.425291 87.575625
L 96.061651 40.866927
L 96.470741 40.136208
L 96.879831 46.727006
L 97.698011 74.107473
L 98.107101 87.905165
L 98.516191 96.874381
L 98.925281 98.608048
L 99.334371 92.518723
L 100.152551 64.39321
L 100.561641 49.535259
L 100.97073 39.33385
L 101.37982 36.539925
L 101.78891 41.970169
L 102.198 54.320752
L 103.01618 86.329105
L 103.42527 97.705395
L 103.83436 101.631218
L 104.24345 96.989004
L 104.65254 84.896322
L 105.87981 39.233556
L 106.2889 34.161507
L 106.69799 37.901068
L 107.10708 49.549587
L 108.33435 97.060643
L 108.74344 103.293245
L 109.152529 100.556631
L 109.561619 89.495553
L 110.788889 40.637682
L 111.197979 33.273182
L 111.607069 34.949537
L 112.016159 45.251241
L 113.243429 94.940125
L 113.652519 103.379212
L 114.061609 102.820427
L 114.470699 93.392721
L 116.107059 33.989573
L 116.516149 33.430788
L 116.925238 41.869875
L 118.561598 101.860463
L 118.970688 103.536818
L 119.379778 96.172318
L 120.197958 63.877408
L 120.607048 47.314447
L 121.016138 36.253369
L 121.425228 33.516755
L 121.834318 39.749357
L 122.243408 53.303476
L 123.061588 87.260413
L 123.470678 98.908932
L 123.879768 102.648493
L 124.288858 97.576444
L 124.697948 85.068256
L 125.516127 51.913678
L 125.925217 39.820996
L 126.334307 35.178782
L 126.743397 39.104605
L 127.152487 50.480895
L 128.379757 94.839831
L 128.788847 100.270075
L 129.197937 97.47615
L 129.607027 87.274741
L 130.834297 44.291277
L 131.243387 38.201952
L 131.652477 39.935619
L 132.061567 48.904835
L 133.288836 90.082994
L 133.697926 96.673792
L 134.107016 95.943073
L 134.516106 88.191721
L 135.743376 49.234375
L 136.152466 42.256726
L 136.561556 42.113448
L 136.970646 48.661262
L 138.607006 92.260823
L 139.016096 93.192131
L 139.425186 87.790542
L 140.243366 65.310191
L 140.652456 54.148818
L 141.061545 46.913268
L 141.470635 45.337207
L 141.879725 49.66421
L 142.697905 69.823454
L 143.106995 80.325747
L 143.516085 87.489658
L 143.925175 89.595848
L 144.334265 86.243138
L 144.743355 78.477458
L 145.561535 58.647754
L 145.970625 51.69876
L 146.379715 49.205719
L 146.788805 51.670105
L 147.197895 58.289558
L 148.425165 82.804461
L 148.834254 85.555402
L 149.243344 83.864719
L 149.652434 78.319852
L 150.879704 56.197696
L 151.288794 53.303476
L 151.697884 54.349407
L 152.106974 58.905654
L 153.334244 78.563425
L 153.743334 81.486301
L 154.152424 80.984827
L 154.561514 77.316905
L 155.788784 60.109191
L 156.197874 57.243627
L 156.606964 57.343922
L 157.016053 60.209486
L 158.243323 75.038781
L 158.652413 77.761067
L 159.061503 77.975985
L 159.470593 75.783828
L 161.106953 60.71096
L 161.516043 60.281125
L 161.925133 61.900169
L 162.743313 68.877818
L 163.152403 72.345151
L 163.561493 74.608947
L 163.970583 75.18206
L 164.379673 74.007178
L 165.197852 68.405
L 165.606942 65.496452
L 166.016032 63.504885
L 166.425122 62.888789
L 166.834212 63.676819
L 167.243302 65.596747
L 168.061482 70.482534
L 168.470572 72.173217
L 168.879662 72.803641
L 169.288752 72.28784
L 169.697842 70.855057
L 170.516022 66.986546
L 170.925112 65.582419
L 171.334202 64.980651
L 171.743292 65.281535
L 172.152382 66.341794
L 173.379651 70.468206
L 173.788741 70.998336
L 174.197831 70.826402
L 174.606921 70.081355
L 175.834191 66.95789
L 176.243281 66.513728
L 176.652371 66.571039
L 177.061461 67.08684
L 178.288731 69.379292
L 178.697821 69.751815
L 179.106911 69.737487
L 179.516001 69.39362
L 180.74327 67.774576
L 181.15236 67.488019
L 181.56145 67.473692
L 181.97054 67.688609
L 183.6069 68.992441
L 184.01599 69.021096
L 184.83417 68.662901
L 185.65235 68.175755
L 186.47053 68.018149
L 187.28871 68.233066
L 188.51598 68.60559
L 189.334159 68.591262
L 191.379609 68.290377
L 197.515958 68.405
L 459.333526 68.505295
L 460.560795 68.462311
L 462.606245 68.20441
L 463.424425 68.419328
L 464.651695 68.791851
L 465.469875 68.634245
L 467.106235 67.788904
L 467.515325 67.817559
L 467.924415 68.018149
L 469.560774 69.336308
L 469.969864 69.321981
L 470.378954 69.035424
L 472.015314 67.072513
L 472.424404 67.058185
L 472.833494 67.430708
L 473.651674 68.935129
L 474.060764 69.72316
L 474.469854 70.238961
L 474.878944 70.296272
L 475.288034 69.85211
L 476.106214 67.817559
L 476.515303 66.728645
L 476.924393 65.983598
L 477.333483 65.811664
L 477.742573 66.341794
L 478.151663 67.488019
L 478.969843 70.468206
L 479.378933 71.528465
L 479.788023 71.829349
L 480.197113 71.227581
L 480.606203 69.823454
L 481.833473 64.52216
L 482.242563 64.006359
L 482.651653 64.636783
L 483.060743 66.327466
L 484.288013 73.133181
L 484.697102 73.921211
L 485.106192 73.305115
L 485.515282 71.313548
L 486.742552 62.802822
L 487.151642 61.62794
L 487.560732 62.201053
L 487.969822 64.464849
L 489.197092 74.909831
L 489.606182 76.528875
L 490.015272 76.09904
L 490.424362 73.591671
L 491.651632 61.026172
L 492.060722 58.834015
L 492.469811 59.048933
L 492.878901 61.771219
L 494.515261 79.466078
L 494.924351 79.566373
L 495.333441 76.700809
L 496.151621 65.224224
L 496.560711 59.493095
L 496.969801 55.825173
L 497.378891 55.323699
L 497.787981 58.246575
L 498.606161 71.141614
L 499.015251 77.904346
L 499.424341 82.460593
L 499.833431 83.506524
L 500.242521 80.612304
L 500.65161 74.379702
L 501.46979 58.490148
L 501.87888 52.945281
L 502.28797 51.254598
L 502.69706 54.005539
L 503.10615 60.639321
L 504.33342 85.139895
L 504.74251 87.604281
L 505.1516 85.11124
L 505.56069 78.162246
L 506.78796 50.566862
L 507.19705 47.214152
L 507.60614 49.320342
L 508.01523 56.484253
L 509.242499 87.14579
L 509.651589 91.472793
L 510.060679 89.896732
L 510.469769 82.661182
L 511.697039 49.019458
L 512.106129 43.617869
L 512.515219 44.549177
L 512.924309 51.713088
L 514.151579 88.148738
L 514.560669 94.696552
L 514.969759 94.553274
L 515.378849 87.575625
L 517.015208 40.866927
L 517.424298 40.136208
L 517.833388 46.727006
L 518.651568 74.107473
L 519.060658 87.905165
L 519.469748 96.874381
L 519.878838 98.608048
L 520.287928 92.518723
L 521.106108 64.39321
L 521.515198 49.535259
L 521.924288 39.33385
L 522.333378 36.539925
L 522.742468 41.970169
L 523.151558 54.320752
L 523.969738 86.329105
L 524.378827 97.705395
L 524.787917 101.631218
L 525.197007 96.989004
L 525.606097 84.896322
L 526.833367 39.233556
L 527.242457 34.161507
L 527.651547 37.901068
L 528.060637 49.549587
L 529.287907 97.060643
L 529.696997 103.293245
L 530.106087 100.556631
L 530.515177 89.495553
L 531.742447 40.637682
L 532.151537 33.273182
L 532.560626 34.949537
L 532.969716 45.251241
L 534.196986 94.940125
L 534.606076 103.379212
L 535.015166 102.820427
L 535.424256 93.392721
L 537.060616 33.989573
L 537.469706 33.430788
L 537.878796 41.869875
L 539.515156 101.860463
L 539.924246 103.536818
L 540.333335 96.172318
L 541.151515 63.877408
L 541.560605 47.314447
L 541.969695 36.253369
L 542.378785 33.516755
L 542.787875 39.749357
L 543.196965 53.303476
L 544.015145 87.260413
L 544.424235 98.908932
L 544.833325 102.648493
L 545.242415 97.576444
L 545.651505 85.068256
L 546.469685 51.913678
L 546.878775 39.820996
L 547.287865 35.178782
L 547.696955 39.104605
L 548.106045 50.480895
L 549.333314 94.839831
L 549.742404 100.270075
L 550.151494 97.47615
L 550.560584 87.274741
L 551.787854 44.291277
L 552.196944 38.201952
L 552.606034 39.935619
L 553.015124 48.904835
L 554.242394 90.082994
L 554.651484 96.673792
L 555.060574 95.943073
L 555.469664 88.191721
L 556.696933 49.234375
L 557.106023 42.256726
L 557.515113 42.113448
L 557.924203 48.661262
L 559.560563 92.260823
L 559.969653 93.192131
L 560.378743 87.790542
L 561.196923 65.310191
L 561.606013 54.148818
L 562.015103 46.913268
L 562.424193 45.337207
L 562.833283 49.66421
L 563.651463 69.823454
L 564.060553 80.325747
L 564.469642 87.489658
L 564.878732 89.595848
L 565.287822 86.243138
L 565.696912 78.477458
L 566.515092 58.647754
L 566.924182 51.69876
L 567.333272 49.205719
L 567.742362 51.670105
L 568.151452 58.289558
L 569.378722 82.804461
L 569.787812 85.555402
L 570.196902 83.864719
L 570.605992 78.319852
L 571.833262 56.197696
L 572.242351 53.317804
L 572.651441 54.349407
L 573.060531 58.905654
L 574.287801 78.563425
L 574.696891 81.486301
L 575.105981 80.984827
L 575.515071 77.316905
L 576.742341 60.109191
L 577.151431 57.243627
L 577.560521 57.343922
L 577.969611 60.209486
L 579.196881 75.038781
L 579.605971 77.761067
L 580.015061 77.975985
L 580.42415 75.783828
L 582.06051 60.71096
L 582.4696 60.281125
L 582.87869 61.900169
L 583.69687 68.877818
L 584.10596 72.345151
L 584.51505 74.608947
L 584.92414 75.18206
L 585.33323 74.007178
L 586.15141 68.405
L 586.5605 65.496452
L 586.96959 63.504885
L 587.37868 62.888789
L 587.78777 63.676819
L 588.196859 65.596747
L 589.015039 70.482534
L 589.424129 72.173217
L 589.833219 72.803641
L 590.242309 72.28784
L 590.651399 70.855057
L 591.469579 66.986546
L 591.878669 65.582419
L 592.287759 64.980651
L 592.696849 65.281535
L 593.105939 66.341794
L 594.333209 70.468206
L 594.742299 70.998336
L 595.151389 70.826402
L 595.560479 70.081355
L 596.787748 66.95789
L 597.196838 66.513728
L 597.605928 66.571039
L 598.015018 67.08684
L 599.242288 69.379292
L 599.651378 69.751815
L 600.060468 69.737487
L 600.469558 69.39362
L 601.696828 67.774576
L 602.105918 67.488019
L 602.515008 67.473692
L 602.924098 67.688609
L 604.560457 68.992441
L 604.969547 69.021096
L 605.787727 68.662901
L 606.605907 68.175755
L 607.424087 68.018149
L 608.242267 68.233066
L 609.469537 68.60559
L 610.287717 68.591262
L 612.333166 68.290377
L 618.469516 68.405
L 625.833135 68.405
L 625.833135 68.405
" style="fill:none;stroke:#1f77b4;stroke-linecap:square;stroke-width:1.5;"/>
   </g>
   <g id="patch_3">
    <path d="M 24.88 107.05
L 24.88 29.76
" style="fill:none;stroke:#000000;stroke-linecap:square;stroke-linejoin:miter;stroke-width:0.8;"/>
   </g>
   <g id="patch_4">
    <path d="M 625.833135 107.05
L 625.833135 29.76
" style="fill:none;stroke:#000000;stroke-linecap:square;stroke-linejoin:miter;stroke-width:0.8;"/>
   </g>
   <g id="patch_5">
    <path d="M 24.88 107.05
L 625.833135 107.05
" style="fill:none;stroke:#000000;stroke-linecap:square;stroke-linejoin:miter;stroke-width:0.8;"/>
   </g>
   <g id="patch_6">
    <path d="M 24.88 29.76
L 625.833135 29.76
" style="fill:none;stroke:#000000;stroke-linecap:square;stroke-linejoin:miter;stroke-width:0.8;"/>
   </g>
   <g id="text_2">
    <!-- OE phoneme -->
    <defs>
     <path d="M 39.40625 66.21875
Q 28.65625 66.21875 22.328125 58.203125
Q 16.015625 50.203125 16.015625 36.375
Q 16.015625 22.609375 22.328125 14.59375
Q 28.65625 6.59375 39.40625 6.59375
Q 50.140625 6.59375 56.421875 14.59375
Q 62.703125 22.609375 62.703125 36.375
Q 62.703125 50.203125 56.421875 58.203125
Q 50.140625 66.21875 39.40625 66.21875
z
M 39.40625 74.21875
Q 54.734375 74.21875 63.90625 63.9375
Q 73.09375 53.65625 73.09375 36.375
Q 73.09375 19.140625 63.90625 8.859375
Q 54.734375 -1.421875 39.40625 -1.421875
Q 24.03125 -1.421875 14.8125 8.828125
Q 5.609375 19.09375 5.609375 36.375
Q 5.609375 53.65625 14.8125 63.9375
Q 24.03125 74.21875 39.40625 74.21875
z
" id="DejaVuSans-4f"/>
     <path d="M 9.8125 72.90625
L 55.90625 72.90625
L 55.90625 64.59375
L 19.671875 64.59375
L 19.671875 43.015625
L 54.390625 43.015625
L 54.390625 34.71875
L 19.671875 34.71875
L 19.671875 8.296875
L 56.78125 8.296875
L 56.78125 0
L 9.8125 0
z
" id="DejaVuSans-45"/>
     <path id="DejaVuSans-20"/>
     <path d="M 18.109375 8.203125
L 18.109375 -20.796875
L 9.078125 -20.796875
L 9.078125 54.6875
L 18.109375 54.6875
L 18.109375 46.390625
Q 20.953125 51.265625 25.265625 53.625
Q 29.59375 56 35.59375 56
Q 45.5625 56 51.78125 48.09375
Q 58.015625 40.1875 58.015625 27.296875
Q 58.015625 14.40625 51.78125 6.484375
Q 45.5625 -1.421875 35.59375 -1.421875
Q 29.59375 -1.421875 25.265625 0.953125
Q 20.953125 3.328125 18.109375 8.203125
z
M 48.6875 27.296875
Q 48.6875 37.203125 44.609375 42.84375
Q 40.53125 48.484375 33.40625 48.484375
Q 26.265625 48.484375 22.1875 42.84375
Q 18.109375 37.203125 18.109375 27.296875
Q 18.109375 17.390625 22.1875 11.75
Q 26.265625 6.109375 33.40625 6.109375
Q 40.53125 6.109375 44.609375 11.75
Q 48.6875 17.390625 48.6875 27.296875
z
" id="DejaVuSans-70"/>
     <path d="M 54.890625 33.015625
L 54.890625 0
L 45.90625 0
L 45.90625 32.71875
Q 45.90625 40.484375 42.875 44.328125
Q 39.84375 48.1875 33.796875 48.1875
Q 26.515625 48.1875 22.3125 43.546875
Q 18.109375 38.921875 18.109375 30.90625
L 18.109375 0
L 9.078125 0
L 9.078125 75.984375
L 18.109375 75.984375
L 18.109375 46.1875
Q 21.34375 51.125 25.703125 53.5625
Q 30.078125 56 35.796875 56
Q 45.21875 56 50.046875 50.171875
Q 54.890625 44.34375 54.890625 33.015625
z
" id="DejaVuSans-68"/>
     <path d="M 30.609375 48.390625
Q 23.390625 48.390625 19.1875 42.75
Q 14.984375 37.109375 14.984375 27.296875
Q 14.984375 17.484375 19.15625 11.84375
Q 23.34375 6.203125 30.609375 6.203125
Q 37.796875 6.203125 41.984375 11.859375
Q 46.1875 17.53125 46.1875 27.296875
Q 46.1875 37.015625 41.984375 42.703125
Q 37.796875 48.390625 30.609375 48.390625
z
M 30.609375 56
Q 42.328125 56 49.015625 48.375
Q 55.71875 40.765625 55.71875 27.296875
Q 55.71875 13.875 49.015625 6.21875
Q 42.328125 -1.421875 30.609375 -1.421875
Q 18.84375 -1.421875 12.171875 6.21875
Q 5.515625 13.875 5.515625 27.296875
Q 5.515625 40.765625 12.171875 48.375
Q 18.84375 56 30.609375 56
z
" id="DejaVuSans-6f"/>
     <path d="M 54.890625 33.015625
L 54.890625 0
L 45.90625 0
L 45.90625 32.71875
Q 45.90625 40.484375 42.875 44.328125
Q 39.84375 48.1875 33.796875 48.1875
Q 26.515625 48.1875 22.3125 43.546875
Q 18.109375 38.921875 18.109375 30.90625
L 18.109375 0
L 9.078125 0
L 9.078125 54.6875
L 18.109375 54.6875
L 18.109375 46.1875
Q 21.34375 51.125 25.703125 53.5625
Q 30.078125 56 35.796875 56
Q 45.21875 56 50.046875 50.171875
Q 54.890625 44.34375 54.890625 33.015625
z
" id="DejaVuSans-6e"/>
     <path d="M 56.203125 29.59375
L 56.203125 25.203125
L 14.890625 25.203125
Q 15.484375 15.921875 20.484375 11.0625
Q 25.484375 6.203125 34.421875 6.203125
Q 39.59375 6.203125 44.453125 7.46875
Q 49.3125 8.734375 54.109375 11.28125
L 54.109375 2.78125
Q 49.265625 0.734375 44.1875 -0.34375
Q 39.109375 -1.421875 33.890625 -1.421875
Q 20.796875 -1.421875 13.15625 6.1875
Q 5.515625 13.8125 5.515625 26.8125
Q 5.515625 40.234375 12.765625 48.109375
Q 20.015625 56 32.328125 56
Q 43.359375 56 49.78125 48.890625
Q 56.203125 41.796875 56.203125 29.59375
z
M 47.21875 32.234375
Q 47.125 39.59375 43.09375 43.984375
Q 39.0625 48.390625 32.421875 48.390625
Q 24.90625 48.390625 20.390625 44.140625
Q 15.875 39.890625 15.1875 32.171875
z
" id="DejaVuSans-65"/>
     <path d="M 52 44.1875
Q 55.375 50.25 60.0625 53.125
Q 64.75 56 71.09375 56
Q 79.640625 56 84.28125 50.015625
Q 88.921875 44.046875 88.921875 33.015625
L 88.921875 0
L 79.890625 0
L 79.890625 32.71875
Q 79.890625 40.578125 77.09375 44.375
Q 74.3125 48.1875 68.609375 48.1875
Q 61.625 48.1875 57.5625 43.546875
Q 53.515625 38.921875 53.515625 30.90625
L 53.515625 0
L 44.484375 0
L 44.484375 32.71875
Q 44.484375 40.625 41.703125 44.40625
Q 38.921875 48.1875 33.109375 48.1875
Q 26.21875 48.1875 22.15625 43.53125
Q 18.109375 38.875 18.109375 30.90625
L 18.109375 0
L 9.078125 0
L 9.078125 54.6875
L 18.109375 54.6875
L 18.109375 46.1875
Q 21.1875 51.21875 25.484375 53.609375
Q 29.78125 56 35.6875 56
Q 41.65625 56 45.828125 52.96875
Q 50 49.953125 52 44.1875
z
" id="DejaVuSans-6d"/>
    </defs>
    <g transform="translate(273.710317 23.76)scale(0.16 -0.16)">
     <use xlink:href="#DejaVuSans-4f"/>
     <use x="78.710938" xlink:href="#DejaVuSans-45"/>
     <use x="141.894531" xlink:href="#DejaVuSans-20"/>
     <use x="173.681641" xlink:href="#DejaVuSans-70"/>
     <use x="237.158203" xlink:href="#DejaVuSans-68"/>
     <use x="300.537109" xlink:href="#DejaVuSans-6f"/>
     <use x="361.71875" xlink:href="#DejaVuSans-6e"/>
     <use x="425.097656" xlink:href="#DejaVuSans-65"/>
     <use x="486.621094" xlink:href="#DejaVuSans-6d"/>
     <use x="584.033203" xlink:href="#DejaVuSans-65"/>
    </g>
   </g>
  </g>
  <g id="axes_2">
   <g id="patch_7">
    <path d="M 24.88 200.18
L 625.833135 200.18
L 625.833135 122.89
L 24.88 122.89
z
" style="fill:#ffffff;"/>
   </g>
   <g id="matplotlib.axis_3"/>
   <g id="matplotlib.axis_4">
    <g id="text_3">
     <!-- #10 -->
     <defs>
      <path d="M 12.40625 8.296875
L 28.515625 8.296875
L 28.515625 63.921875
L 10.984375 60.40625
L 10.984375 69.390625
L 28.421875 72.90625
L 38.28125 72.90625
L 38.28125 8.296875
L 54.390625 8.296875
L 54.390625 0
L 12.40625 0
z
" id="DejaVuSans-31"/>
      <path d="M 31.78125 66.40625
Q 24.171875 66.40625 20.328125 58.90625
Q 16.5 51.421875 16.5 36.375
Q 16.5 21.390625 20.328125 13.890625
Q 24.171875 6.390625 31.78125 6.390625
Q 39.453125 6.390625 43.28125 13.890625
Q 47.125 21.390625 47.125 36.375
Q 47.125 51.421875 43.28125 58.90625
Q 39.453125 66.40625 31.78125 66.40625
z
M 31.78125 74.21875
Q 44.046875 74.21875 50.515625 64.515625
Q 56.984375 54.828125 56.984375 36.375
Q 56.984375 17.96875 50.515625 8.265625
Q 44.046875 -1.421875 31.78125 -1.421875
Q 19.53125 -1.421875 13.0625 8.265625
Q 6.59375 17.96875 6.59375 36.375
Q 6.59375 54.828125 13.0625 64.515625
Q 19.53125 74.21875 31.78125 74.21875
z
" id="DejaVuSans-30"/>
     </defs>
     <g transform="translate(18.800313 172.087344)rotate(-90)scale(0.1 -0.1)">
      <use xlink:href="#DejaVuSans-23"/>
      <use x="83.789062" xlink:href="#DejaVuSans-31"/>
      <use x="147.412109" xlink:href="#DejaVuSans-30"/>
     </g>
    </g>
   </g>
   <g id="line2d_2">
    <path clip-path="url(#p095cf69ced)" d="M 24.88 161.591482
L 143.516085 161.676205
L 144.743355 161.662085
L 146.788805 161.379674
L 147.606985 161.577362
L 148.834254 161.958615
L 149.652434 161.859772
L 151.288794 160.998421
L 151.697884 160.9843
L 152.106974 161.139626
L 152.925154 161.845651
L 153.743334 162.466953
L 154.152424 162.523435
L 154.561514 162.311628
L 155.379694 161.294951
L 156.197874 160.334757
L 156.606964 160.235913
L 157.016053 160.504203
L 157.425143 161.097264
L 158.652413 163.300063
L 159.061503 163.49775
L 159.470593 163.172979
L 159.879683 162.396351
L 161.106953 159.332201
L 161.516043 159.02155
L 161.925133 159.374563
L 162.334223 160.362998
L 163.561493 164.457945
L 163.970583 164.966283
L 164.379673 164.61327
L 164.788762 163.398907
L 166.016032 158.047235
L 166.425122 157.270607
L 166.834212 157.609499
L 167.243302 159.049791
L 168.470572 165.855875
L 168.879662 166.957274
L 169.288752 166.703105
L 169.697842 165.051006
L 170.925112 156.578702
L 171.334202 155.053688
L 171.743292 155.166652
L 172.152382 157.016438
L 173.788741 169.386001
L 174.197831 169.484845
L 174.606921 167.493853
L 175.425101 159.318081
L 175.834191 155.166652
L 176.243281 152.497876
L 176.652371 152.088382
L 177.061461 154.178217
L 177.879641 163.610714
L 178.288731 168.623494
L 178.697821 172.026536
L 179.106911 172.845525
L 179.516001 170.727449
L 179.925091 166.081803
L 180.74327 154.079373
L 181.15236 149.843221
L 181.56145 148.501773
L 181.97054 150.563367
L 182.37963 155.618508
L 183.6069 174.610588
L 184.01599 176.573339
L 184.42508 174.681191
L 184.83417 169.258917
L 186.06144 147.414494
L 186.47053 144.703357
L 186.87962 146.327215
L 187.28871 152.017779
L 188.51598 176.785146
L 188.925069 180.357634
L 189.334159 179.12915
L 189.743249 173.25502
L 190.970519 145.578829
L 191.379609 141.046146
L 191.788699 141.752172
L 192.197789 147.682784
L 193.425059 178.197197
L 193.834149 183.788917
L 194.243239 183.718314
L 194.652329 177.872425
L 196.288689 137.939635
L 196.697778 137.23361
L 197.106868 142.867691
L 197.925048 166.54778
L 198.334138 178.57845
L 198.743228 186.457693
L 199.152318 188.05331
L 199.561408 182.772241
L 200.379588 158.047235
L 200.788678 144.872803
L 201.197768 135.779198
L 201.606858 133.209266
L 202.015948 137.981996
L 202.425038 148.98187
L 203.243218 177.73122
L 203.652308 188.039189
L 204.061398 191.668159
L 204.470488 187.530851
L 204.879577 176.60158
L 206.106847 134.847244
L 206.515937 130.116875
L 206.925027 133.477555
L 207.334117 144.180898
L 208.561387 188.265117
L 208.970477 194.153368
L 209.379567 191.68228
L 209.788657 181.374311
L 211.015927 135.341462
L 211.425017 128.29533
L 211.834107 129.792103
L 212.243197 139.535252
L 213.470466 187.050754
L 213.879556 195.240647
L 214.288646 194.788791
L 214.697736 185.751667
L 216.334096 127.984678
L 216.743186 127.349256
L 217.152276 135.55327
L 217.970456 168.341084
L 218.379546 184.480822
L 218.788636 194.76055
L 219.197726 196.511493
L 219.606816 189.253553
L 220.424996 157.0588
L 220.834085 140.424844
L 221.243175 129.241403
L 221.652265 126.403182
L 222.061355 132.616204
L 222.470445 146.270733
L 223.288625 180.79537
L 223.697715 192.755438
L 224.106805 196.666818
L 224.515895 191.541075
L 224.924985 178.733776
L 226.152255 131.93842
L 226.561345 127.038605
L 226.970435 131.034708
L 227.379525 142.853571
L 228.606795 189.437119
L 229.015884 195.240647
L 229.424974 192.360064
L 229.834064 181.62848
L 231.061334 135.793318
L 231.470424 129.199042
L 231.879514 130.978226
L 232.288604 140.566049
L 233.515874 185.144486
L 233.924964 192.402425
L 234.334054 191.68228
L 234.743144 183.266458
L 235.970414 140.410723
L 236.379504 132.630325
L 236.788593 132.376156
L 237.197683 139.605855
L 238.834043 188.476925
L 239.243133 189.606565
L 239.652223 183.562989
L 240.470403 158.075476
L 240.879493 145.296418
L 241.288583 136.9512
L 241.697673 135.059052
L 242.106763 139.972988
L 242.924943 163.243581
L 243.334033 175.471939
L 243.743123 183.87364
L 244.152213 186.401211
L 244.561303 182.546312
L 244.970392 173.466827
L 245.788572 150.026788
L 246.197662 141.70981
L 246.606752 138.673901
L 247.015842 141.554484
L 247.424932 149.433727
L 248.652202 179.058548
L 249.061292 182.47571
L 249.470382 180.470598
L 249.879472 173.749237
L 251.106742 146.46842
L 251.515832 142.82533
L 251.924922 144.053814
L 252.334012 149.687896
L 253.561281 174.455263
L 253.970371 178.225438
L 254.379461 177.632376
L 254.788551 173.014971
L 256.015821 150.831657
L 256.424911 147.075602
L 256.834001 147.132084
L 257.243091 150.845777
L 258.470361 170.402678
L 258.879451 174.074009
L 259.288541 174.427022
L 259.697631 171.518198
L 261.33399 151.043464
L 261.74308 150.3798
L 262.15217 152.582599
L 262.97035 162.255146
L 263.37944 167.12672
L 263.78853 170.360316
L 264.19762 171.207546
L 264.60671 169.597809
L 265.42489 161.591482
L 265.83398 157.369451
L 266.24307 154.446506
L 266.65216 153.486312
L 267.06125 154.615952
L 267.47034 157.425933
L 268.28852 164.697993
L 268.697609 167.296166
L 269.106699 168.284602
L 269.515789 167.550335
L 269.924879 165.361657
L 271.152149 157.143523
L 271.561239 156.169208
L 271.970329 156.621064
L 272.379419 158.273163
L 273.606689 164.980403
L 274.015779 165.884116
L 274.424869 165.644067
L 274.833959 164.415583
L 276.061229 159.092153
L 276.470319 158.287284
L 276.879408 158.357886
L 277.288498 159.247478
L 278.515768 163.384786
L 278.924858 164.076691
L 279.333948 164.090812
L 279.743038 163.469509
L 280.970308 160.348878
L 281.379398 159.784057
L 281.788488 159.727575
L 282.197578 160.13707
L 283.833938 162.862328
L 284.243028 162.947051
L 284.652117 162.678761
L 286.288477 160.744252
L 286.697567 160.659529
L 287.106657 160.814854
L 288.743017 162.142182
L 289.152107 162.212784
L 289.970287 161.916254
L 290.788467 161.422036
L 291.606647 161.210228
L 292.424827 161.379674
L 293.652096 161.775049
L 294.470276 161.789169
L 296.515726 161.478518
L 302.652075 161.591482
L 625.833135 161.591482
L 625.833135 161.591482
" style="fill:none;stroke:#1f77b4;stroke-linecap:square;stroke-width:1.5;"/>
   </g>
   <g id="patch_8">
    <path d="M 24.88 200.18
L 24.88 122.89
" style="fill:none;stroke:#000000;stroke-linecap:square;stroke-linejoin:miter;stroke-width:0.8;"/>
   </g>
   <g id="patch_9">
    <path d="M 625.833135 200.18
L 625.833135 122.89
" style="fill:none;stroke:#000000;stroke-linecap:square;stroke-linejoin:miter;stroke-width:0.8;"/>
   </g>
   <g id="patch_10">
    <path d="M 24.88 200.18
L 625.833135 200.18
" style="fill:none;stroke:#000000;stroke-linecap:square;stroke-linejoin:miter;stroke-width:0.8;"/>
   </g>
   <g id="patch_11">
    <path d="M 24.88 122.89
L 625.833135 122.89
" style="fill:none;stroke:#000000;stroke-linecap:square;stroke-linejoin:miter;stroke-width:0.8;"/>
   </g>
  </g>
  <g id="axes_3">
   <g id="patch_12">
    <path d="M 24.88 293.31
L 625.833135 293.31
L 625.833135 216.02
L 24.88 216.02
z
" style="fill:#ffffff;"/>
   </g>
   <g id="matplotlib.axis_5"/>
   <g id="matplotlib.axis_6">
    <g id="text_4">
     <!-- #11 -->
     <g transform="translate(18.800313 265.217344)rotate(-90)scale(0.1 -0.1)">
      <use xlink:href="#DejaVuSans-23"/>
      <use x="83.789062" xlink:href="#DejaVuSans-31"/>
      <use x="147.412109" xlink:href="#DejaVuSans-31"/>
     </g>
    </g>
   </g>
   <g id="line2d_3">
    <path clip-path="url(#p4d42cf1df9)" d="M 24.88 254.665
L 248.652202 254.749215
L 249.879472 254.749215
L 251.924922 254.454462
L 252.743101 254.608856
L 253.970371 255.015897
L 254.379461 255.043969
L 255.197641 254.777287
L 256.424911 254.103565
L 256.834001 254.047421
L 257.243091 254.159708
L 258.061271 254.819395
L 258.879451 255.493117
L 259.288541 255.591368
L 259.697631 255.45101
L 260.106721 255.072041
L 261.33399 253.485986
L 261.74308 253.303519
L 262.15217 253.485986
L 262.56126 254.005313
L 263.78853 256.251055
L 264.19762 256.559844
L 264.60671 256.363342
L 265.0158 255.68962
L 266.24307 252.587689
L 266.65216 252.124505
L 267.06125 252.306971
L 267.47034 253.149125
L 268.697609 257.275674
L 269.106699 257.977469
L 269.515789 257.83711
L 269.924879 256.826526
L 271.561239 250.468271
L 271.970329 250.524414
L 272.379419 251.689393
L 273.197599 256.222983
L 273.606689 258.468725
L 274.015779 259.844241
L 274.424869 259.942492
L 274.833959 258.637155
L 275.652139 253.121053
L 276.061229 250.271768
L 276.470319 248.404996
L 276.879408 248.096206
L 277.288498 249.51383
L 278.106678 256.082624
L 278.515768 259.619667
L 278.924858 262.061911
L 279.333948 262.67949
L 279.743038 261.205722
L 280.152128 257.893253
L 280.970308 249.219077
L 281.379398 246.103111
L 281.788488 245.078491
L 282.197578 246.552259
L 282.606668 250.257732
L 283.833938 264.405904
L 284.243028 265.921779
L 284.652117 264.532227
L 285.061207 260.475856
L 286.288477 243.801226
L 286.697567 241.667771
L 287.106657 242.874857
L 287.515747 247.254053
L 288.743017 266.56743
L 289.152107 269.416714
L 289.561197 268.504382
L 289.970287 263.900612
L 291.197557 241.850238
L 291.606647 238.1588
L 292.015737 238.678128
L 292.424827 243.408221
L 294.061186 272.855506
L 294.470276 272.855506
L 294.879366 268.097341
L 296.515726 234.916511
L 296.924816 234.256824
L 297.333906 238.930774
L 298.152086 258.847693
L 298.561176 269.065817
L 298.970266 275.817078
L 299.379356 277.234702
L 299.788446 272.785327
L 300.197536 263.479535
L 301.015715 240.236111
L 301.424805 232.319872
L 301.833895 230.032023
L 302.242985 234.116466
L 302.652075 243.660867
L 303.470255 268.827207
L 303.879345 277.950532
L 304.288435 281.220893
L 304.697525 277.627707
L 305.106615 267.985054
L 306.333885 230.719782
L 306.742975 226.410765
L 307.152065 229.358301
L 307.561155 238.94481
L 308.788424 278.933044
L 309.197514 284.364931
L 309.606604 282.175333
L 310.015694 272.813398
L 311.242964 230.410992
L 311.652054 223.814127
L 312.061144 225.1335
L 312.470234 234.130501
L 313.697504 278.568111
L 314.106594 286.329955
L 314.515684 285.979058
L 314.924774 277.515419
L 316.561133 222.564933
L 316.970223 221.863139
L 317.379313 229.653054
L 318.197493 261.17765
L 318.606583 276.813625
L 319.015673 286.835247
L 319.424763 288.617804
L 319.833853 281.627934
L 320.652033 250.229661
L 321.061123 233.877855
L 321.470213 222.817579
L 321.879303 219.926187
L 322.288393 225.989689
L 322.697483 239.478173
L 323.515663 273.809946
L 323.924753 285.810627
L 324.333843 289.796818
L 324.742932 284.7439
L 325.152022 271.929138
L 326.379292 224.5861
L 326.788382 219.533182
L 327.197472 223.519373
L 327.606562 235.520054
L 328.833832 283.340311
L 329.242922 289.403813
L 329.652012 286.512421
L 330.061102 275.452145
L 331.288372 227.702066
L 331.697462 220.712196
L 332.106552 222.494753
L 332.515641 232.516375
L 333.742911 279.676946
L 334.152001 287.466861
L 334.561091 286.765067
L 334.970181 277.852281
L 336.197451 231.814581
L 336.606541 223.350942
L 337.015631 223.000045
L 337.424721 230.761889
L 339.061081 284.1965
L 339.470171 285.515873
L 339.879261 278.919008
L 340.69744 250.748988
L 341.10653 236.516602
L 341.51562 227.154667
L 341.92471 224.965069
L 342.3338 230.396956
L 343.15198 256.531773
L 343.56107 270.38519
L 343.97016 279.971699
L 344.37925 282.919235
L 344.78834 278.610218
L 345.19743 268.265772
L 346.01561 241.344946
L 346.4247 231.702293
L 346.83379 228.109107
L 347.24288 231.379468
L 347.65197 240.502793
L 348.879239 275.213534
L 349.288329 279.297977
L 349.697419 277.010128
L 350.106509 269.093889
L 351.333779 236.544673
L 351.742869 232.095298
L 352.151959 233.512922
L 352.561049 240.264183
L 353.788319 270.399226
L 354.197409 275.073176
L 354.606499 274.413489
L 355.015589 268.771064
L 356.242859 241.232659
L 356.651948 236.474494
L 357.061038 236.474494
L 357.470128 241.0923
L 359.106488 270.651872
L 359.515578 271.1712
L 359.924668 267.479762
L 361.561028 240.825618
L 361.970118 239.913286
L 362.379208 242.76257
L 363.197388 255.549261
L 363.606478 262.075947
L 364.015568 266.455143
L 364.424658 267.662229
L 364.833747 265.528774
L 365.242837 260.756574
L 366.061017 248.854144
L 366.470107 244.797773
L 366.879197 243.408221
L 367.288287 244.924096
L 367.697377 248.826072
L 368.515557 259.072268
L 368.924647 262.777741
L 369.333737 264.251509
L 369.742827 263.226889
L 370.151917 260.110923
L 371.379187 248.124278
L 371.788277 246.65051
L 372.197367 247.268089
L 372.606456 249.710333
L 373.833726 259.81617
L 374.242816 261.233794
L 374.651906 260.925004
L 375.060996 259.058232
L 376.288266 250.692845
L 376.697356 249.387508
L 377.106446 249.485759
L 377.515536 250.861275
L 378.742806 257.640607
L 379.151896 258.805586
L 379.560986 258.861729
L 379.970076 257.865182
L 381.197345 252.503474
L 381.606435 251.49289
L 382.015525 251.352531
L 382.424615 252.054326
L 384.060975 257.023029
L 384.470065 257.205495
L 384.879155 256.742311
L 385.697335 254.665
L 386.106425 253.64038
L 386.515515 252.966658
L 386.924605 252.770156
L 387.333695 253.078945
L 388.151875 254.566749
L 388.560964 255.324687
L 388.970054 255.844014
L 389.379144 256.026481
L 389.788234 255.844014
L 390.606414 254.805359
L 391.424594 253.87899
L 391.833684 253.738632
L 392.242774 253.836883
L 393.060954 254.510605
L 393.879134 255.170292
L 394.288224 255.282579
L 394.697314 255.226435
L 395.515494 254.791323
L 396.333674 254.370246
L 397.151853 254.314103
L 398.379123 254.721144
L 399.197303 254.875538
L 400.015483 254.819395
L 401.651843 254.552713
L 402.879113 254.622892
L 404.515472 254.721144
L 409.015462 254.665
L 625.833135 254.665
L 625.833135 254.665
" style="fill:none;stroke:#1f77b4;stroke-linecap:square;stroke-width:1.5;"/>
   </g>
   <g id="patch_13">
    <path d="M 24.88 293.31
L 24.88 216.02
" style="fill:none;stroke:#000000;stroke-linecap:square;stroke-linejoin:miter;stroke-width:0.8;"/>
   </g>
   <g id="patch_14">
    <path d="M 625.833135 293.31
L 625.833135 216.02
" style="fill:none;stroke:#000000;stroke-linecap:square;stroke-linejoin:miter;stroke-width:0.8;"/>
   </g>
   <g id="patch_15">
    <path d="M 24.88 293.31
L 625.833135 293.31
" style="fill:none;stroke:#000000;stroke-linecap:square;stroke-linejoin:miter;stroke-width:0.8;"/>
   </g>
   <g id="patch_16">
    <path d="M 24.88 216.02
L 625.833135 216.02
" style="fill:none;stroke:#000000;stroke-linecap:square;stroke-linejoin:miter;stroke-width:0.8;"/>
   </g>
  </g>
  <g id="axes_4">
   <g id="patch_17">
    <path d="M 24.88 386.44
L 625.833135 386.44
L 625.833135 309.15
L 24.88 309.15
z
" style="fill:#ffffff;"/>
   </g>
   <g id="matplotlib.axis_7">
    <g id="xtick_1">
     <g id="line2d_4">
      <defs>
       <path d="M 0 0
L 0 3.5
" id="m3c0392e67b" style="stroke:#000000;stroke-width:0.8;"/>
      </defs>
      <g>
       <use style="stroke:#000000;stroke-width:0.8;" x="24.88" xlink:href="#m3c0392e67b" y="386.44"/>
      </g>
     </g>
     <g id="text_5">
      <!-- 0.00 -->
      <defs>
       <path d="M 10.6875 12.40625
L 21 12.40625
L 21 0
L 10.6875 0
z
" id="DejaVuSans-2e"/>
      </defs>
      <g transform="translate(13.747188 401.038437)scale(0.1 -0.1)">
       <use xlink:href="#DejaVuSans-30"/>
       <use x="63.623047" xlink:href="#DejaVuSans-2e"/>
       <use x="95.410156" xlink:href="#DejaVuSans-30"/>
       <use x="159.033203" xlink:href="#DejaVuSans-30"/>
      </g>
     </g>
    </g>
    <g id="xtick_2">
     <g id="line2d_5">
      <g>
       <use style="stroke:#000000;stroke-width:0.8;" x="100.050278" xlink:href="#m3c0392e67b" y="386.44"/>
      </g>
     </g>
     <g id="text_6">
      <!-- 0.05 -->
      <defs>
       <path d="M 10.796875 72.90625
L 49.515625 72.90625
L 49.515625 64.59375
L 19.828125 64.59375
L 19.828125 46.734375
Q 21.96875 47.46875 24.109375 47.828125
Q 26.265625 48.1875 28.421875 48.1875
Q 40.625 48.1875 47.75 41.5
Q 54.890625 34.8125 54.890625 23.390625
Q 54.890625 11.625 47.5625 5.09375
Q 40.234375 -1.421875 26.90625 -1.421875
Q 22.3125 -1.421875 17.546875 -0.640625
Q 12.796875 0.140625 7.71875 1.703125
L 7.71875 11.625
Q 12.109375 9.234375 16.796875 8.0625
Q 21.484375 6.890625 26.703125 6.890625
Q 35.15625 6.890625 40.078125 11.328125
Q 45.015625 15.765625 45.015625 23.390625
Q 45.015625 31 40.078125 35.4375
Q 35.15625 39.890625 26.703125 39.890625
Q 22.75 39.890625 18.8125 39.015625
Q 14.890625 38.140625 10.796875 36.28125
z
" id="DejaVuSans-35"/>
      </defs>
      <g transform="translate(88.917466 401.038437)scale(0.1 -0.1)">
       <use xlink:href="#DejaVuSans-30"/>
       <use x="63.623047" xlink:href="#DejaVuSans-2e"/>
       <use x="95.410156" xlink:href="#DejaVuSans-30"/>
       <use x="159.033203" xlink:href="#DejaVuSans-35"/>
      </g>
     </g>
    </g>
    <g id="xtick_3">
     <g id="line2d_6">
      <g>
       <use style="stroke:#000000;stroke-width:0.8;" x="175.220556" xlink:href="#m3c0392e67b" y="386.44"/>
      </g>
     </g>
     <g id="text_7">
      <!-- 0.10 -->
      <g transform="translate(164.087744 401.038437)scale(0.1 -0.1)">
       <use xlink:href="#DejaVuSans-30"/>
       <use x="63.623047" xlink:href="#DejaVuSans-2e"/>
       <use x="95.410156" xlink:href="#DejaVuSans-31"/>
       <use x="159.033203" xlink:href="#DejaVuSans-30"/>
      </g>
     </g>
    </g>
    <g id="xtick_4">
     <g id="line2d_7">
      <g>
       <use style="stroke:#000000;stroke-width:0.8;" x="250.390834" xlink:href="#m3c0392e67b" y="386.44"/>
      </g>
     </g>
     <g id="text_8">
      <!-- 0.15 -->
      <g transform="translate(239.258022 401.038437)scale(0.1 -0.1)">
       <use xlink:href="#DejaVuSans-30"/>
       <use x="63.623047" xlink:href="#DejaVuSans-2e"/>
       <use x="95.410156" xlink:href="#DejaVuSans-31"/>
       <use x="159.033203" xlink:href="#DejaVuSans-35"/>
      </g>
     </g>
    </g>
    <g id="xtick_5">
     <g id="line2d_8">
      <g>
       <use style="stroke:#000000;stroke-width:0.8;" x="325.561112" xlink:href="#m3c0392e67b" y="386.44"/>
      </g>
     </g>
     <g id="text_9">
      <!-- 0.20 -->
      <defs>
       <path d="M 19.1875 8.296875
L 53.609375 8.296875
L 53.609375 0
L 7.328125 0
L 7.328125 8.296875
Q 12.9375 14.109375 22.625 23.890625
Q 32.328125 33.6875 34.8125 36.53125
Q 39.546875 41.84375 41.421875 45.53125
Q 43.3125 49.21875 43.3125 52.78125
Q 43.3125 58.59375 39.234375 62.25
Q 35.15625 65.921875 28.609375 65.921875
Q 23.96875 65.921875 18.8125 64.3125
Q 13.671875 62.703125 7.8125 59.421875
L 7.8125 69.390625
Q 13.765625 71.78125 18.9375 73
Q 24.125 74.21875 28.421875 74.21875
Q 39.75 74.21875 46.484375 68.546875
Q 53.21875 62.890625 53.21875 53.421875
Q 53.21875 48.921875 51.53125 44.890625
Q 49.859375 40.875 45.40625 35.40625
Q 44.1875 33.984375 37.640625 27.21875
Q 31.109375 20.453125 19.1875 8.296875
z
" id="DejaVuSans-32"/>
      </defs>
      <g transform="translate(314.4283 401.038437)scale(0.1 -0.1)">
       <use xlink:href="#DejaVuSans-30"/>
       <use x="63.623047" xlink:href="#DejaVuSans-2e"/>
       <use x="95.410156" xlink:href="#DejaVuSans-32"/>
       <use x="159.033203" xlink:href="#DejaVuSans-30"/>
      </g>
     </g>
    </g>
    <g id="xtick_6">
     <g id="line2d_9">
      <g>
       <use style="stroke:#000000;stroke-width:0.8;" x="400.73139" xlink:href="#m3c0392e67b" y="386.44"/>
      </g>
     </g>
     <g id="text_10">
      <!-- 0.25 -->
      <g transform="translate(389.598578 401.038437)scale(0.1 -0.1)">
       <use xlink:href="#DejaVuSans-30"/>
       <use x="63.623047" xlink:href="#DejaVuSans-2e"/>
       <use x="95.410156" xlink:href="#DejaVuSans-32"/>
       <use x="159.033203" xlink:href="#DejaVuSans-35"/>
      </g>
     </g>
    </g>
    <g id="xtick_7">
     <g id="line2d_10">
      <g>
       <use style="stroke:#000000;stroke-width:0.8;" x="475.901669" xlink:href="#m3c0392e67b" y="386.44"/>
      </g>
     </g>
     <g id="text_11">
      <!-- 0.30 -->
      <defs>
       <path d="M 40.578125 39.3125
Q 47.65625 37.796875 51.625 33
Q 55.609375 28.21875 55.609375 21.1875
Q 55.609375 10.40625 48.1875 4.484375
Q 40.765625 -1.421875 27.09375 -1.421875
Q 22.515625 -1.421875 17.65625 -0.515625
Q 12.796875 0.390625 7.625 2.203125
L 7.625 11.71875
Q 11.71875 9.328125 16.59375 8.109375
Q 21.484375 6.890625 26.8125 6.890625
Q 36.078125 6.890625 40.9375 10.546875
Q 45.796875 14.203125 45.796875 21.1875
Q 45.796875 27.640625 41.28125 31.265625
Q 36.765625 34.90625 28.71875 34.90625
L 20.21875 34.90625
L 20.21875 43.015625
L 29.109375 43.015625
Q 36.375 43.015625 40.234375 45.921875
Q 44.09375 48.828125 44.09375 54.296875
Q 44.09375 59.90625 40.109375 62.90625
Q 36.140625 65.921875 28.71875 65.921875
Q 24.65625 65.921875 20.015625 65.03125
Q 15.375 64.15625 9.8125 62.3125
L 9.8125 71.09375
Q 15.4375 72.65625 20.34375 73.4375
Q 25.25 74.21875 29.59375 74.21875
Q 40.828125 74.21875 47.359375 69.109375
Q 53.90625 64.015625 53.90625 55.328125
Q 53.90625 49.265625 50.4375 45.09375
Q 46.96875 40.921875 40.578125 39.3125
z
" id="DejaVuSans-33"/>
      </defs>
      <g transform="translate(464.768856 401.038437)scale(0.1 -0.1)">
       <use xlink:href="#DejaVuSans-30"/>
       <use x="63.623047" xlink:href="#DejaVuSans-2e"/>
       <use x="95.410156" xlink:href="#DejaVuSans-33"/>
       <use x="159.033203" xlink:href="#DejaVuSans-30"/>
      </g>
     </g>
    </g>
    <g id="xtick_8">
     <g id="line2d_11">
      <g>
       <use style="stroke:#000000;stroke-width:0.8;" x="551.071947" xlink:href="#m3c0392e67b" y="386.44"/>
      </g>
     </g>
     <g id="text_12">
      <!-- 0.35 -->
      <g transform="translate(539.939134 401.038437)scale(0.1 -0.1)">
       <use xlink:href="#DejaVuSans-30"/>
       <use x="63.623047" xlink:href="#DejaVuSans-2e"/>
       <use x="95.410156" xlink:href="#DejaVuSans-33"/>
       <use x="159.033203" xlink:href="#DejaVuSans-35"/>
      </g>
     </g>
    </g>
    <g id="xtick_9">
     <g id="line2d_12">
      <g>
       <use style="stroke:#000000;stroke-width:0.8;" x="626.242225" xlink:href="#m3c0392e67b" y="386.44"/>
      </g>
     </g>
     <g id="text_13">
      <!-- 0.40 -->
      <defs>
       <path d="M 37.796875 64.3125
L 12.890625 25.390625
L 37.796875 25.390625
z
M 35.203125 72.90625
L 47.609375 72.90625
L 47.609375 25.390625
L 58.015625 25.390625
L 58.015625 17.1875
L 47.609375 17.1875
L 47.609375 0
L 37.796875 0
L 37.796875 17.1875
L 4.890625 17.1875
L 4.890625 26.703125
z
" id="DejaVuSans-34"/>
      </defs>
      <g transform="translate(615.109412 401.038437)scale(0.1 -0.1)">
       <use xlink:href="#DejaVuSans-30"/>
       <use x="63.623047" xlink:href="#DejaVuSans-2e"/>
       <use x="95.410156" xlink:href="#DejaVuSans-34"/>
       <use x="159.033203" xlink:href="#DejaVuSans-30"/>
      </g>
     </g>
    </g>
    <g id="text_14">
     <!-- Time (s) -->
     <defs>
      <path d="M -0.296875 72.90625
L 61.375 72.90625
L 61.375 64.59375
L 35.5 64.59375
L 35.5 0
L 25.59375 0
L 25.59375 64.59375
L -0.296875 64.59375
z
" id="DejaVuSans-54"/>
      <path d="M 9.421875 54.6875
L 18.40625 54.6875
L 18.40625 0
L 9.421875 0
z
M 9.421875 75.984375
L 18.40625 75.984375
L 18.40625 64.59375
L 9.421875 64.59375
z
" id="DejaVuSans-69"/>
      <path d="M 31 75.875
Q 24.46875 64.65625 21.28125 53.65625
Q 18.109375 42.671875 18.109375 31.390625
Q 18.109375 20.125 21.3125 9.0625
Q 24.515625 -2 31 -13.1875
L 23.1875 -13.1875
Q 15.875 -1.703125 12.234375 9.375
Q 8.59375 20.453125 8.59375 31.390625
Q 8.59375 42.28125 12.203125 53.3125
Q 15.828125 64.359375 23.1875 75.875
z
" id="DejaVuSans-28"/>
      <path d="M 44.28125 53.078125
L 44.28125 44.578125
Q 40.484375 46.53125 36.375 47.5
Q 32.28125 48.484375 27.875 48.484375
Q 21.1875 48.484375 17.84375 46.4375
Q 14.5 44.390625 14.5 40.28125
Q 14.5 37.15625 16.890625 35.375
Q 19.28125 33.59375 26.515625 31.984375
L 29.59375 31.296875
Q 39.15625 29.25 43.1875 25.515625
Q 47.21875 21.78125 47.21875 15.09375
Q 47.21875 7.46875 41.1875 3.015625
Q 35.15625 -1.421875 24.609375 -1.421875
Q 20.21875 -1.421875 15.453125 -0.5625
Q 10.6875 0.296875 5.421875 2
L 5.421875 11.28125
Q 10.40625 8.6875 15.234375 7.390625
Q 20.0625 6.109375 24.8125 6.109375
Q 31.15625 6.109375 34.5625 8.28125
Q 37.984375 10.453125 37.984375 14.40625
Q 37.984375 18.0625 35.515625 20.015625
Q 33.0625 21.96875 24.703125 23.78125
L 21.578125 24.515625
Q 13.234375 26.265625 9.515625 29.90625
Q 5.8125 33.546875 5.8125 39.890625
Q 5.8125 47.609375 11.28125 51.796875
Q 16.75 56 26.8125 56
Q 31.78125 56 36.171875 55.265625
Q 40.578125 54.546875 44.28125 53.078125
z
" id="DejaVuSans-73"/>
      <path d="M 8.015625 75.875
L 15.828125 75.875
Q 23.140625 64.359375 26.78125 53.3125
Q 30.421875 42.28125 30.421875 31.390625
Q 30.421875 20.453125 26.78125 9.375
Q 23.140625 -1.703125 15.828125 -13.1875
L 8.015625 -13.1875
Q 14.5 -2 17.703125 9.0625
Q 20.90625 20.125 20.90625 31.390625
Q 20.90625 42.671875 17.703125 53.65625
Q 14.5 64.65625 8.015625 75.875
z
" id="DejaVuSans-29"/>
     </defs>
     <g transform="translate(296.68063 417.755938)scale(0.14 -0.14)">
      <use xlink:href="#DejaVuSans-54"/>
      <use x="61.037109" xlink:href="#DejaVuSans-69"/>
      <use x="88.820312" xlink:href="#DejaVuSans-6d"/>
      <use x="186.232422" xlink:href="#DejaVuSans-65"/>
      <use x="247.755859" xlink:href="#DejaVuSans-20"/>
      <use x="279.542969" xlink:href="#DejaVuSans-28"/>
      <use x="318.556641" xlink:href="#DejaVuSans-73"/>
      <use x="370.65625" xlink:href="#DejaVuSans-29"/>
     </g>
    </g>
   </g>
   <g id="matplotlib.axis_8">
    <g id="text_15">
     <!-- #12 -->
     <g transform="translate(18.800313 358.347344)rotate(-90)scale(0.1 -0.1)">
      <use xlink:href="#DejaVuSans-23"/>
      <use x="83.789062" xlink:href="#DejaVuSans-31"/>
      <use x="147.412109" xlink:href="#DejaVuSans-32"/>
     </g>
    </g>
   </g>
   <g id="line2d_13">
    <path clip-path="url(#pd881abd1ed)" d="M 24.88 347.73147
L 354.197409 347.830294
L 355.424679 347.773823
L 357.061038 347.505588
L 357.879218 347.646764
L 359.515578 348.112648
L 360.333758 347.900883
L 361.970118 347.110293
L 362.379208 347.180881
L 363.197388 347.773823
L 364.015568 348.507942
L 364.424658 348.663237
L 364.833747 348.578531
L 365.242837 348.253824
L 366.470107 346.64441
L 366.879197 346.376174
L 367.288287 346.46088
L 367.697377 346.912646
L 369.333737 349.595003
L 369.742827 349.538532
L 370.151917 348.973825
L 371.788277 345.232643
L 372.197367 345.246761
L 372.606456 345.938527
L 373.424636 348.691472
L 373.833726 350.075003
L 374.242816 350.964417
L 374.651906 351.035005
L 375.060996 350.230298
L 375.879176 346.743234
L 376.288266 344.907937
L 376.697356 343.6797
L 377.106446 343.439699
L 377.515536 344.34323
L 377.924626 346.234998
L 378.742806 351.049123
L 379.151896 352.70089
L 379.560986 353.152655
L 379.970076 352.178536
L 380.379166 349.947944
L 381.606435 341.773814
L 382.015525 341.039696
L 382.424615 342.027932
L 382.833705 344.625583
L 384.060975 354.705599
L 384.470065 355.835012
L 384.879155 354.875011
L 385.288245 351.952653
L 386.515515 339.726752
L 386.924605 338.117338
L 387.333695 338.964398
L 387.742785 342.197344
L 388.970054 356.738543
L 389.379144 358.940899
L 389.788234 358.277369
L 390.197324 354.804422
L 391.424594 337.80675
L 391.833684 334.89851
L 392.242774 335.251451
L 392.651864 338.922045
L 394.288224 362.187963
L 394.697314 362.244434
L 395.106404 358.489134
L 395.924584 343.651464
L 396.333674 336.310277
L 396.742763 331.693799
L 397.151853 331.100857
L 397.560943 334.870274
L 398.379123 351.176182
L 398.788213 359.632665
L 399.197303 365.265615
L 399.606393 366.493852
L 400.015483 362.851494
L 400.424573 355.115011
L 401.242753 335.576158
L 401.651843 328.856148
L 402.060933 326.851439
L 402.470023 330.267914
L 402.879113 338.343221
L 403.697293 359.886783
L 404.106383 367.764442
L 404.515472 370.644447
L 404.924562 367.609148
L 405.333652 359.293841
L 406.560922 326.766733
L 406.970012 322.926727
L 407.379102 325.45379
L 407.788192 333.853802
L 409.015462 369.345621
L 409.424552 374.25857
L 409.833642 372.366802
L 410.242732 364.02326
L 411.470002 325.764378
L 411.879092 319.722016
L 412.288182 320.85143
L 412.697271 328.983207
L 413.924541 369.71268
L 414.333631 376.940927
L 414.742721 376.686809
L 415.151811 368.907973
L 416.788171 317.646719
L 417.197261 316.926718
L 417.606351 324.183199
L 418.424531 353.886774
L 418.833621 368.752679
L 419.242711 378.338576
L 419.651801 380.117402
L 420.060891 373.524451
L 420.87907 343.467935
L 421.28816 327.698499
L 421.69725 316.969071
L 422.10634 314.089066
L 422.51543 319.891428
L 422.92452 332.950272
L 423.7427 366.465617
L 424.15179 378.282105
L 424.56088 382.277405
L 424.96997 377.378574
L 425.37906 364.785614
L 426.60633 317.787896
L 427.01542 312.663182
L 427.42451 316.573776
L 427.8336 328.531441
L 429.060869 376.700926
L 429.469959 382.926818
L 429.879049 380.075049
L 430.288139 368.893856
L 431.515409 320.074958
L 431.924499 312.818476
L 432.333589 314.569067
L 432.742679 324.84673
L 433.969949 373.764451
L 434.379039 381.966817
L 434.788129 381.331522
L 435.197219 372.070331
L 436.424488 323.57614
L 436.833578 314.540832
L 437.242668 314.089066
L 437.651758 322.277314
L 439.288118 379.52446
L 439.697208 381.020933
L 440.106298 373.976216
L 440.924478 343.482052
L 441.333568 327.952617
L 441.742658 317.646719
L 442.151748 315.176127
L 442.560838 321.063195
L 443.379018 349.79265
L 443.788108 365.138556
L 444.197198 375.839749
L 444.606287 379.199754
L 445.015377 374.470335
L 445.424467 362.964435
L 446.242647 332.724389
L 446.651737 321.797313
L 447.060827 317.660836
L 447.469917 321.289077
L 447.879007 331.594975
L 449.106277 371.336212
L 449.515367 376.107984
L 449.924457 373.538569
L 450.333547 364.44679
L 451.560817 326.554968
L 451.969907 321.27496
L 452.378996 322.870256
L 452.788086 330.747915
L 454.015356 366.451499
L 454.424446 372.084449
L 454.833536 371.378565
L 455.242626 364.672673
L 456.469896 331.453799
L 456.878986 325.609084
L 457.288076 325.538496
L 457.697166 331.129092
L 459.333526 367.566795
L 459.742616 368.272678
L 460.151706 363.740907
L 460.969885 345.19029
L 461.378975 336.070276
L 461.788065 330.197326
L 462.197155 328.969089
L 462.606245 332.540859
L 463.424425 348.875002
L 463.833515 357.30325
L 464.242605 362.99267
L 464.651695 364.616202
L 465.060785 361.90561
L 465.469875 355.707953
L 466.288055 340.065576
L 466.697145 334.644392
L 467.106235 332.752624
L 467.515325 334.71498
L 467.924415 339.896164
L 468.742594 353.703244
L 469.151684 358.75737
L 469.560774 360.818549
L 469.969864 359.477371
L 470.378954 355.24207
L 471.606224 338.597339
L 472.015314 336.479689
L 472.424404 337.298513
L 472.833494 340.700872
L 474.060764 355.143246
L 474.469854 357.232661
L 474.878944 356.823249
L 475.288034 354.15501
L 476.515303 341.830285
L 476.924393 339.839694
L 477.333483 339.938517
L 477.742573 341.999697
L 478.969843 352.305595
L 479.378933 354.15501
L 479.788023 354.267951
L 480.197113 352.743243
L 481.833473 342.620874
L 482.242563 342.366756
L 482.651653 343.467935
L 484.288013 351.712653
L 484.697102 352.051477
L 485.106192 351.275005
L 485.924372 347.73147
L 486.333462 345.924409
L 486.742552 344.710289
L 487.151642 344.357348
L 487.560732 344.865584
L 487.969822 346.03735
L 488.788002 348.959708
L 489.197092 349.947944
L 489.606182 350.300886
L 490.015272 349.990297
L 490.424362 349.143237
L 491.242542 346.926763
L 491.651632 346.150292
L 492.060722 345.825585
L 492.469811 346.023233
L 492.878901 346.602057
L 494.106171 348.818531
L 494.515261 349.086767
L 494.924351 348.987943
L 495.333441 348.592648
L 496.560711 347.011469
L 496.969801 346.799704
L 497.378891 346.856175
L 498.197071 347.477352
L 499.015251 348.183236
L 499.424341 348.33853
L 499.833431 348.324413
L 500.65161 347.929118
L 501.46979 347.463235
L 502.28797 347.364411
L 503.10615 347.590294
L 504.33342 347.943236
L 505.1516 347.900883
L 506.78796 347.618529
L 508.01523 347.689117
L 509.651589 347.787941
L 514.151579 347.73147
L 625.833135 347.73147
L 625.833135 347.73147
" style="fill:none;stroke:#1f77b4;stroke-linecap:square;stroke-width:1.5;"/>
   </g>
   <g id="patch_18">
    <path d="M 24.88 386.44
L 24.88 309.15
" style="fill:none;stroke:#000000;stroke-linecap:square;stroke-linejoin:miter;stroke-width:0.8;"/>
   </g>
   <g id="patch_19">
    <path d="M 625.833135 386.44
L 625.833135 309.15
" style="fill:none;stroke:#000000;stroke-linecap:square;stroke-linejoin:miter;stroke-width:0.8;"/>
   </g>
   <g id="patch_20">
    <path d="M 24.88 386.44
L 625.833135 386.44
" style="fill:none;stroke:#000000;stroke-linecap:square;stroke-linejoin:miter;stroke-width:0.8;"/>
   </g>
   <g id="patch_21">
    <path d="M 24.88 309.15
L 625.833135 309.15
" style="fill:none;stroke:#000000;stroke-linecap:square;stroke-linejoin:miter;stroke-width:0.8;"/>
   </g>
  </g>
 </g>
 <defs>
  <clipPath id="p034e4ff73f">
   <rect height="77.29" width="600.953135" x="24.88" y="29.76"/>
  </clipPath>
  <clipPath id="p095cf69ced">
   <rect height="77.29" width="600.953135" x="24.88" y="122.89"/>
  </clipPath>
  <clipPath id="p4d42cf1df9">
   <rect height="77.29" width="600.953135" x="24.88" y="216.02"/>
  </clipPath>
  <clipPath id="pd881abd1ed">
   <rect height="77.29" width="600.953135" x="24.88" y="309.15"/>
  </clipPath>
 </defs>
</svg>
