<?xml version="1.0" encoding="utf-8" standalone="no"?>
<!DOCTYPE svg PUBLIC "-//W3C//DTD SVG 1.1//EN"
  "http://www.w3.org/Graphics/SVG/1.1/DTD/svg11.dtd">
<!-- Created with matplotlib (http://matplotlib.org/) -->
<svg height="252pt" version="1.1" viewBox="0 0 504 252" width="504pt" xmlns="http://www.w3.org/2000/svg" xmlns:xlink="http://www.w3.org/1999/xlink">
 <defs>
  <style type="text/css">
*{stroke-linecap:butt;stroke-linejoin:round;}
  </style>
 </defs>
 <g id="figure_1">
  <g id="patch_1">
   <path d="M 0 252
L 504 252
L 504 0
L 0 0
z
" style="fill:#ffffff;"/>
  </g>
  <g id="axes_1">
   <g id="patch_2">
    <path d="M 48.31 206.44
L 490.68 206.44
L 490.68 29.76
L 48.31 29.76
z
" style="fill:#ffffff;"/>
   </g>
   <g id="matplotlib.axis_1">
    <g id="xtick_1">
     <g id="line2d_1">
      <defs>
       <path d="M 0 0
L 0 3.5
" id="m34db353c8d" style="stroke:#000000;stroke-width:0.8;"/>
      </defs>
      <g>
       <use style="stroke:#000000;stroke-width:0.8;" x="48.31" xlink:href="#m34db353c8d" y="206.44"/>
      </g>
     </g>
     <g id="text_1">
      <!-- 0.00 -->
      <defs>
       <path d="M 31.78125 66.40625
Q 24.171875 66.40625 20.328125 58.90625
Q 16.5 51.421875 16.5 36.375
Q 16.5 21.390625 20.328125 13.890625
Q 24.171875 6.390625 31.78125 6.390625
Q 39.453125 6.390625 43.28125 13.890625
Q 47.125 21.390625 47.125 36.375
Q 47.125 51.421875 43.28125 58.90625
Q 39.453125 66.40625 31.78125 66.40625
z
M 31.78125 74.21875
Q 44.046875 74.21875 50.515625 64.515625
Q 56.984375 54.828125 56.984375 36.375
Q 56.984375 17.96875 50.515625 8.265625
Q 44.046875 -1.421875 31.78125 -1.421875
Q 19.53125 -1.421875 13.0625 8.265625
Q 6.59375 17.96875 6.59375 36.375
Q 6.59375 54.828125 13.0625 64.515625
Q 19.53125 74.21875 31.78125 74.21875
z
" id="DejaVuSans-30"/>
       <path d="M 10.6875 12.40625
L 21 12.40625
L 21 0
L 10.6875 0
z
" id="DejaVuSans-2e"/>
      </defs>
      <g transform="translate(37.177188 221.038437)scale(0.1 -0.1)">
       <use xlink:href="#DejaVuSans-30"/>
       <use x="63.623047" xlink:href="#DejaVuSans-2e"/>
       <use x="95.410156" xlink:href="#DejaVuSans-30"/>
       <use x="159.033203" xlink:href="#DejaVuSans-30"/>
      </g>
     </g>
    </g>
    <g id="xtick_2">
     <g id="line2d_2">
      <g>
       <use style="stroke:#000000;stroke-width:0.8;" x="111.567189" xlink:href="#m34db353c8d" y="206.44"/>
      </g>
     </g>
     <g id="text_2">
      <!-- 0.02 -->
      <defs>
       <path d="M 19.1875 8.296875
L 53.609375 8.296875
L 53.609375 0
L 7.328125 0
L 7.328125 8.296875
Q 12.9375 14.109375 22.625 23.890625
Q 32.328125 33.6875 34.8125 36.53125
Q 39.546875 41.84375 41.421875 45.53125
Q 43.3125 49.21875 43.3125 52.78125
Q 43.3125 58.59375 39.234375 62.25
Q 35.15625 65.921875 28.609375 65.921875
Q 23.96875 65.921875 18.8125 64.3125
Q 13.671875 62.703125 7.8125 59.421875
L 7.8125 69.390625
Q 13.765625 71.78125 18.9375 73
Q 24.125 74.21875 28.421875 74.21875
Q 39.75 74.21875 46.484375 68.546875
Q 53.21875 62.890625 53.21875 53.421875
Q 53.21875 48.921875 51.53125 44.890625
Q 49.859375 40.875 45.40625 35.40625
Q 44.1875 33.984375 37.640625 27.21875
Q 31.109375 20.453125 19.1875 8.296875
z
" id="DejaVuSans-32"/>
      </defs>
      <g transform="translate(100.434376 221.038437)scale(0.1 -0.1)">
       <use xlink:href="#DejaVuSans-30"/>
       <use x="63.623047" xlink:href="#DejaVuSans-2e"/>
       <use x="95.410156" xlink:href="#DejaVuSans-30"/>
       <use x="159.033203" xlink:href="#DejaVuSans-32"/>
      </g>
     </g>
    </g>
    <g id="xtick_3">
     <g id="line2d_3">
      <g>
       <use style="stroke:#000000;stroke-width:0.8;" x="174.824377" xlink:href="#m34db353c8d" y="206.44"/>
      </g>
     </g>
     <g id="text_3">
      <!-- 0.04 -->
      <defs>
       <path d="M 37.796875 64.3125
L 12.890625 25.390625
L 37.796875 25.390625
z
M 35.203125 72.90625
L 47.609375 72.90625
L 47.609375 25.390625
L 58.015625 25.390625
L 58.015625 17.1875
L 47.609375 17.1875
L 47.609375 0
L 37.796875 0
L 37.796875 17.1875
L 4.890625 17.1875
L 4.890625 26.703125
z
" id="DejaVuSans-34"/>
      </defs>
      <g transform="translate(163.691565 221.038437)scale(0.1 -0.1)">
       <use xlink:href="#DejaVuSans-30"/>
       <use x="63.623047" xlink:href="#DejaVuSans-2e"/>
       <use x="95.410156" xlink:href="#DejaVuSans-30"/>
       <use x="159.033203" xlink:href="#DejaVuSans-34"/>
      </g>
     </g>
    </g>
    <g id="xtick_4">
     <g id="line2d_4">
      <g>
       <use style="stroke:#000000;stroke-width:0.8;" x="238.081566" xlink:href="#m34db353c8d" y="206.44"/>
      </g>
     </g>
     <g id="text_4">
      <!-- 0.06 -->
      <defs>
       <path d="M 33.015625 40.375
Q 26.375 40.375 22.484375 35.828125
Q 18.609375 31.296875 18.609375 23.390625
Q 18.609375 15.53125 22.484375 10.953125
Q 26.375 6.390625 33.015625 6.390625
Q 39.65625 6.390625 43.53125 10.953125
Q 47.40625 15.53125 47.40625 23.390625
Q 47.40625 31.296875 43.53125 35.828125
Q 39.65625 40.375 33.015625 40.375
z
M 52.59375 71.296875
L 52.59375 62.3125
Q 48.875 64.0625 45.09375 64.984375
Q 41.3125 65.921875 37.59375 65.921875
Q 27.828125 65.921875 22.671875 59.328125
Q 17.53125 52.734375 16.796875 39.40625
Q 19.671875 43.65625 24.015625 45.921875
Q 28.375 48.1875 33.59375 48.1875
Q 44.578125 48.1875 50.953125 41.515625
Q 57.328125 34.859375 57.328125 23.390625
Q 57.328125 12.15625 50.6875 5.359375
Q 44.046875 -1.421875 33.015625 -1.421875
Q 20.359375 -1.421875 13.671875 8.265625
Q 6.984375 17.96875 6.984375 36.375
Q 6.984375 53.65625 15.1875 63.9375
Q 23.390625 74.21875 37.203125 74.21875
Q 40.921875 74.21875 44.703125 73.484375
Q 48.484375 72.75 52.59375 71.296875
z
" id="DejaVuSans-36"/>
      </defs>
      <g transform="translate(226.948754 221.038437)scale(0.1 -0.1)">
       <use xlink:href="#DejaVuSans-30"/>
       <use x="63.623047" xlink:href="#DejaVuSans-2e"/>
       <use x="95.410156" xlink:href="#DejaVuSans-30"/>
       <use x="159.033203" xlink:href="#DejaVuSans-36"/>
      </g>
     </g>
    </g>
    <g id="xtick_5">
     <g id="line2d_5">
      <g>
       <use style="stroke:#000000;stroke-width:0.8;" x="301.338755" xlink:href="#m34db353c8d" y="206.44"/>
      </g>
     </g>
     <g id="text_5">
      <!-- 0.08 -->
      <defs>
       <path d="M 31.78125 34.625
Q 24.75 34.625 20.71875 30.859375
Q 16.703125 27.09375 16.703125 20.515625
Q 16.703125 13.921875 20.71875 10.15625
Q 24.75 6.390625 31.78125 6.390625
Q 38.8125 6.390625 42.859375 10.171875
Q 46.921875 13.96875 46.921875 20.515625
Q 46.921875 27.09375 42.890625 30.859375
Q 38.875 34.625 31.78125 34.625
z
M 21.921875 38.8125
Q 15.578125 40.375 12.03125 44.71875
Q 8.5 49.078125 8.5 55.328125
Q 8.5 64.0625 14.71875 69.140625
Q 20.953125 74.21875 31.78125 74.21875
Q 42.671875 74.21875 48.875 69.140625
Q 55.078125 64.0625 55.078125 55.328125
Q 55.078125 49.078125 51.53125 44.71875
Q 48 40.375 41.703125 38.8125
Q 48.828125 37.15625 52.796875 32.3125
Q 56.78125 27.484375 56.78125 20.515625
Q 56.78125 9.90625 50.3125 4.234375
Q 43.84375 -1.421875 31.78125 -1.421875
Q 19.734375 -1.421875 13.25 4.234375
Q 6.78125 9.90625 6.78125 20.515625
Q 6.78125 27.484375 10.78125 32.3125
Q 14.796875 37.15625 21.921875 38.8125
z
M 18.3125 54.390625
Q 18.3125 48.734375 21.84375 45.5625
Q 25.390625 42.390625 31.78125 42.390625
Q 38.140625 42.390625 41.71875 45.5625
Q 45.3125 48.734375 45.3125 54.390625
Q 45.3125 60.0625 41.71875 63.234375
Q 38.140625 66.40625 31.78125 66.40625
Q 25.390625 66.40625 21.84375 63.234375
Q 18.3125 60.0625 18.3125 54.390625
z
" id="DejaVuSans-38"/>
      </defs>
      <g transform="translate(290.205942 221.038437)scale(0.1 -0.1)">
       <use xlink:href="#DejaVuSans-30"/>
       <use x="63.623047" xlink:href="#DejaVuSans-2e"/>
       <use x="95.410156" xlink:href="#DejaVuSans-30"/>
       <use x="159.033203" xlink:href="#DejaVuSans-38"/>
      </g>
     </g>
    </g>
    <g id="xtick_6">
     <g id="line2d_6">
      <g>
       <use style="stroke:#000000;stroke-width:0.8;" x="364.595944" xlink:href="#m34db353c8d" y="206.44"/>
      </g>
     </g>
     <g id="text_6">
      <!-- 0.10 -->
      <defs>
       <path d="M 12.40625 8.296875
L 28.515625 8.296875
L 28.515625 63.921875
L 10.984375 60.40625
L 10.984375 69.390625
L 28.421875 72.90625
L 38.28125 72.90625
L 38.28125 8.296875
L 54.390625 8.296875
L 54.390625 0
L 12.40625 0
z
" id="DejaVuSans-31"/>
      </defs>
      <g transform="translate(353.463131 221.038437)scale(0.1 -0.1)">
       <use xlink:href="#DejaVuSans-30"/>
       <use x="63.623047" xlink:href="#DejaVuSans-2e"/>
       <use x="95.410156" xlink:href="#DejaVuSans-31"/>
       <use x="159.033203" xlink:href="#DejaVuSans-30"/>
      </g>
     </g>
    </g>
    <g id="xtick_7">
     <g id="line2d_7">
      <g>
       <use style="stroke:#000000;stroke-width:0.8;" x="427.853132" xlink:href="#m34db353c8d" y="206.44"/>
      </g>
     </g>
     <g id="text_7">
      <!-- 0.12 -->
      <g transform="translate(416.72032 221.038437)scale(0.1 -0.1)">
       <use xlink:href="#DejaVuSans-30"/>
       <use x="63.623047" xlink:href="#DejaVuSans-2e"/>
       <use x="95.410156" xlink:href="#DejaVuSans-31"/>
       <use x="159.033203" xlink:href="#DejaVuSans-32"/>
      </g>
     </g>
    </g>
    <g id="xtick_8">
     <g id="line2d_8">
      <g>
       <use style="stroke:#000000;stroke-width:0.8;" x="491.110321" xlink:href="#m34db353c8d" y="206.44"/>
      </g>
     </g>
     <g id="text_8">
      <!-- 0.14 -->
      <g transform="translate(479.977509 221.038437)scale(0.1 -0.1)">
       <use xlink:href="#DejaVuSans-30"/>
       <use x="63.623047" xlink:href="#DejaVuSans-2e"/>
       <use x="95.410156" xlink:href="#DejaVuSans-31"/>
       <use x="159.033203" xlink:href="#DejaVuSans-34"/>
      </g>
     </g>
    </g>
    <g id="text_9">
     <!-- Time (s) -->
     <defs>
      <path d="M -0.296875 72.90625
L 61.375 72.90625
L 61.375 64.59375
L 35.5 64.59375
L 35.5 0
L 25.59375 0
L 25.59375 64.59375
L -0.296875 64.59375
z
" id="DejaVuSans-54"/>
      <path d="M 9.421875 54.6875
L 18.40625 54.6875
L 18.40625 0
L 9.421875 0
z
M 9.421875 75.984375
L 18.40625 75.984375
L 18.40625 64.59375
L 9.421875 64.59375
z
" id="DejaVuSans-69"/>
      <path d="M 52 44.1875
Q 55.375 50.25 60.0625 53.125
Q 64.75 56 71.09375 56
Q 79.640625 56 84.28125 50.015625
Q 88.921875 44.046875 88.921875 33.015625
L 88.921875 0
L 79.890625 0
L 79.890625 32.71875
Q 79.890625 40.578125 77.09375 44.375
Q 74.3125 48.1875 68.609375 48.1875
Q 61.625 48.1875 57.5625 43.546875
Q 53.515625 38.921875 53.515625 30.90625
L 53.515625 0
L 44.484375 0
L 44.484375 32.71875
Q 44.484375 40.625 41.703125 44.40625
Q 38.921875 48.1875 33.109375 48.1875
Q 26.21875 48.1875 22.15625 43.53125
Q 18.109375 38.875 18.109375 30.90625
L 18.109375 0
L 9.078125 0
L 9.078125 54.6875
L 18.109375 54.6875
L 18.109375 46.1875
Q 21.1875 51.21875 25.484375 53.609375
Q 29.78125 56 35.6875 56
Q 41.65625 56 45.828125 52.96875
Q 50 49.953125 52 44.1875
z
" id="DejaVuSans-6d"/>
      <path d="M 56.203125 29.59375
L 56.203125 25.203125
L 14.890625 25.203125
Q 15.484375 15.921875 20.484375 11.0625
Q 25.484375 6.203125 34.421875 6.203125
Q 39.59375 6.203125 44.453125 7.46875
Q 49.3125 8.734375 54.109375 11.28125
L 54.109375 2.78125
Q 49.265625 0.734375 44.1875 -0.34375
Q 39.109375 -1.421875 33.890625 -1.421875
Q 20.796875 -1.421875 13.15625 6.1875
Q 5.515625 13.8125 5.515625 26.8125
Q 5.515625 40.234375 12.765625 48.109375
Q 20.015625 56 32.328125 56
Q 43.359375 56 49.78125 48.890625
Q 56.203125 41.796875 56.203125 29.59375
z
M 47.21875 32.234375
Q 47.125 39.59375 43.09375 43.984375
Q 39.0625 48.390625 32.421875 48.390625
Q 24.90625 48.390625 20.390625 44.140625
Q 15.875 39.890625 15.1875 32.171875
z
" id="DejaVuSans-65"/>
      <path id="DejaVuSans-20"/>
      <path d="M 31 75.875
Q 24.46875 64.65625 21.28125 53.65625
Q 18.109375 42.671875 18.109375 31.390625
Q 18.109375 20.125 21.3125 9.0625
Q 24.515625 -2 31 -13.1875
L 23.1875 -13.1875
Q 15.875 -1.703125 12.234375 9.375
Q 8.59375 20.453125 8.59375 31.390625
Q 8.59375 42.28125 12.203125 53.3125
Q 15.828125 64.359375 23.1875 75.875
z
" id="DejaVuSans-28"/>
      <path d="M 44.28125 53.078125
L 44.28125 44.578125
Q 40.484375 46.53125 36.375 47.5
Q 32.28125 48.484375 27.875 48.484375
Q 21.1875 48.484375 17.84375 46.4375
Q 14.5 44.390625 14.5 40.28125
Q 14.5 37.15625 16.890625 35.375
Q 19.28125 33.59375 26.515625 31.984375
L 29.59375 31.296875
Q 39.15625 29.25 43.1875 25.515625
Q 47.21875 21.78125 47.21875 15.09375
Q 47.21875 7.46875 41.1875 3.015625
Q 35.15625 -1.421875 24.609375 -1.421875
Q 20.21875 -1.421875 15.453125 -0.5625
Q 10.6875 0.296875 5.421875 2
L 5.421875 11.28125
Q 10.40625 8.6875 15.234375 7.390625
Q 20.0625 6.109375 24.8125 6.109375
Q 31.15625 6.109375 34.5625 8.28125
Q 37.984375 10.453125 37.984375 14.40625
Q 37.984375 18.0625 35.515625 20.015625
Q 33.0625 21.96875 24.703125 23.78125
L 21.578125 24.515625
Q 13.234375 26.265625 9.515625 29.90625
Q 5.8125 33.546875 5.8125 39.890625
Q 5.8125 47.609375 11.28125 51.796875
Q 16.75 56 26.8125 56
Q 31.78125 56 36.171875 55.265625
Q 40.578125 54.546875 44.28125 53.078125
z
" id="DejaVuSans-73"/>
      <path d="M 8.015625 75.875
L 15.828125 75.875
Q 23.140625 64.359375 26.78125 53.3125
Q 30.421875 42.28125 30.421875 31.390625
Q 30.421875 20.453125 26.78125 9.375
Q 23.140625 -1.703125 15.828125 -13.1875
L 8.015625 -13.1875
Q 14.5 -2 17.703125 9.0625
Q 20.90625 20.125 20.90625 31.390625
Q 20.90625 42.671875 17.703125 53.65625
Q 14.5 64.65625 8.015625 75.875
z
" id="DejaVuSans-29"/>
     </defs>
     <g transform="translate(240.819063 237.755937)scale(0.14 -0.14)">
      <use xlink:href="#DejaVuSans-54"/>
      <use x="61.037109" xlink:href="#DejaVuSans-69"/>
      <use x="88.820312" xlink:href="#DejaVuSans-6d"/>
      <use x="186.232422" xlink:href="#DejaVuSans-65"/>
      <use x="247.755859" xlink:href="#DejaVuSans-20"/>
      <use x="279.542969" xlink:href="#DejaVuSans-28"/>
      <use x="318.556641" xlink:href="#DejaVuSans-73"/>
      <use x="370.65625" xlink:href="#DejaVuSans-29"/>
     </g>
    </g>
   </g>
   <g id="matplotlib.axis_2">
    <g id="ytick_1">
     <g id="line2d_9">
      <defs>
       <path d="M 0 0
L -3.5 0
" id="m98273e65a8" style="stroke:#000000;stroke-width:0.8;"/>
      </defs>
      <g>
       <use style="stroke:#000000;stroke-width:0.8;" x="48.31" xlink:href="#m98273e65a8" y="188.687294"/>
      </g>
     </g>
     <g id="text_10">
      <!-- −0.10 -->
      <defs>
       <path d="M 10.59375 35.5
L 73.1875 35.5
L 73.1875 27.203125
L 10.59375 27.203125
z
" id="DejaVuSans-2212"/>
      </defs>
      <g transform="translate(10.664688 192.486513)scale(0.1 -0.1)">
       <use xlink:href="#DejaVuSans-2212"/>
       <use x="83.789062" xlink:href="#DejaVuSans-30"/>
       <use x="147.412109" xlink:href="#DejaVuSans-2e"/>
       <use x="179.199219" xlink:href="#DejaVuSans-31"/>
       <use x="242.822266" xlink:href="#DejaVuSans-30"/>
      </g>
     </g>
    </g>
    <g id="ytick_2">
     <g id="line2d_10">
      <g>
       <use style="stroke:#000000;stroke-width:0.8;" x="48.31" xlink:href="#m98273e65a8" y="153.463519"/>
      </g>
     </g>
     <g id="text_11">
      <!-- −0.05 -->
      <defs>
       <path d="M 10.796875 72.90625
L 49.515625 72.90625
L 49.515625 64.59375
L 19.828125 64.59375
L 19.828125 46.734375
Q 21.96875 47.46875 24.109375 47.828125
Q 26.265625 48.1875 28.421875 48.1875
Q 40.625 48.1875 47.75 41.5
Q 54.890625 34.8125 54.890625 23.390625
Q 54.890625 11.625 47.5625 5.09375
Q 40.234375 -1.421875 26.90625 -1.421875
Q 22.3125 -1.421875 17.546875 -0.640625
Q 12.796875 0.140625 7.71875 1.703125
L 7.71875 11.625
Q 12.109375 9.234375 16.796875 8.0625
Q 21.484375 6.890625 26.703125 6.890625
Q 35.15625 6.890625 40.078125 11.328125
Q 45.015625 15.765625 45.015625 23.390625
Q 45.015625 31 40.078125 35.4375
Q 35.15625 39.890625 26.703125 39.890625
Q 22.75 39.890625 18.8125 39.015625
Q 14.890625 38.140625 10.796875 36.28125
z
" id="DejaVuSans-35"/>
      </defs>
      <g transform="translate(10.664688 157.262737)scale(0.1 -0.1)">
       <use xlink:href="#DejaVuSans-2212"/>
       <use x="83.789062" xlink:href="#DejaVuSans-30"/>
       <use x="147.412109" xlink:href="#DejaVuSans-2e"/>
       <use x="179.199219" xlink:href="#DejaVuSans-30"/>
       <use x="242.822266" xlink:href="#DejaVuSans-35"/>
      </g>
     </g>
    </g>
    <g id="ytick_3">
     <g id="line2d_11">
      <g>
       <use style="stroke:#000000;stroke-width:0.8;" x="48.31" xlink:href="#m98273e65a8" y="118.239743"/>
      </g>
     </g>
     <g id="text_12">
      <!-- 0.00 -->
      <g transform="translate(19.044375 122.038962)scale(0.1 -0.1)">
       <use xlink:href="#DejaVuSans-30"/>
       <use x="63.623047" xlink:href="#DejaVuSans-2e"/>
       <use x="95.410156" xlink:href="#DejaVuSans-30"/>
       <use x="159.033203" xlink:href="#DejaVuSans-30"/>
      </g>
     </g>
    </g>
    <g id="ytick_4">
     <g id="line2d_12">
      <g>
       <use style="stroke:#000000;stroke-width:0.8;" x="48.31" xlink:href="#m98273e65a8" y="83.015967"/>
      </g>
     </g>
     <g id="text_13">
      <!-- 0.05 -->
      <g transform="translate(19.044375 86.815186)scale(0.1 -0.1)">
       <use xlink:href="#DejaVuSans-30"/>
       <use x="63.623047" xlink:href="#DejaVuSans-2e"/>
       <use x="95.410156" xlink:href="#DejaVuSans-30"/>
       <use x="159.033203" xlink:href="#DejaVuSans-35"/>
      </g>
     </g>
    </g>
    <g id="ytick_5">
     <g id="line2d_13">
      <g>
       <use style="stroke:#000000;stroke-width:0.8;" x="48.31" xlink:href="#m98273e65a8" y="47.792191"/>
      </g>
     </g>
     <g id="text_14">
      <!-- 0.10 -->
      <g transform="translate(19.044375 51.59141)scale(0.1 -0.1)">
       <use xlink:href="#DejaVuSans-30"/>
       <use x="63.623047" xlink:href="#DejaVuSans-2e"/>
       <use x="95.410156" xlink:href="#DejaVuSans-31"/>
       <use x="159.033203" xlink:href="#DejaVuSans-30"/>
      </g>
     </g>
    </g>
   </g>
   <g id="line2d_14">
    <path clip-path="url(#pc5036fab7c)" d="M 48.31 118.239743
L 50.031284 118.196745
L 50.891926 118.003255
L 52.61321 117.250794
L 53.473852 118.003255
L 54.334494 121.013099
L 55.195136 126.688805
L 56.055778 133.611447
L 56.91642 138.126213
L 57.777062 135.632342
L 58.637704 122.990997
L 59.498346 101.148128
L 60.358988 76.187921
L 61.21963 57.677379
L 62.080272 54.667535
L 62.940914 71.243177
L 63.801556 103.856988
L 64.662198 142.253999
L 65.52284 175.190293
L 66.383482 193.915824
L 67.244125 193.249358
L 68.104767 173.061904
L 68.965409 138.362701
L 70.686693 62.536128
L 71.547335 41.187733
L 72.407977 39.661312
L 73.268619 58.472838
L 74.129261 92.763562
L 75.850545 170.589532
L 76.711187 193.915824
L 77.571829 197.635131
L 78.432471 180.908997
L 79.293113 148.187692
L 81.014397 71.028188
L 81.875039 46.562455
L 82.735681 40.822252
L 83.596323 54.990018
L 84.456965 85.109959
L 86.178249 159.023131
L 87.038891 183.703852
L 87.899533 191.077971
L 88.760175 179.70506
L 89.620817 153.003442
L 91.342101 84.572486
L 92.202743 60.579729
L 93.063385 52.06617
L 93.924027 60.644226
L 94.784669 83.497542
L 96.505953 144.726371
L 97.366595 167.214206
L 98.227237 176.329734
L 99.087879 170.353044
L 99.948521 151.49852
L 101.669805 98.39627
L 102.530447 77.993827
L 103.391089 68.770805
L 104.251732 72.490112
L 105.112374 87.517834
L 107.6943 150.423576
L 108.554942 159.388612
L 109.415584 157.518209
L 110.276226 145.90881
L 112.858152 92.892555
L 113.718794 84.3145
L 114.579436 84.679981
L 115.440078 93.451527
L 118.022004 138.362701
L 118.882646 146.704269
L 119.743288 147.542725
L 120.60393 141.007064
L 121.464572 128.967687
L 123.185856 101.621103
L 124.046498 93.107544
L 124.90714 91.129647
L 125.767782 96.031393
L 126.628424 106.544348
L 128.349708 132.96648
L 129.21035 142.275498
L 130.070992 145.52183
L 130.931634 141.802522
L 131.792276 131.913035
L 133.51356 104.136473
L 134.374202 93.215039
L 135.234844 88.420787
L 136.095486 91.194143
L 136.956128 101.212625
L 139.538054 145.887311
L 140.398696 152.745456
L 141.259339 150.832055
L 142.119981 140.190106
L 142.980623 123.076992
L 143.841265 103.641999
L 144.701907 86.915865
L 145.562549 77.499353
L 146.423191 78.337809
L 147.283833 89.861212
L 148.144475 109.618689
L 149.865759 153.562413
L 150.726401 166.096264
L 151.587043 166.590739
L 152.447685 154.293376
L 153.308327 131.741044
L 155.029611 79.305259
L 155.890253 63.26709
L 156.750895 61.009707
L 157.611537 73.780045
L 158.472179 98.890745
L 160.193463 159.732594
L 161.054105 179.490071
L 161.914747 183.897342
L 162.775389 171.170002
L 163.636031 144.081404
L 165.357315 75.714945
L 166.217957 52.281159
L 167.078599 45.444513
L 167.939241 57.483889
L 168.799883 85.711927
L 170.521167 160.012079
L 171.381809 186.756694
L 172.242451 196.130209
L 173.103093 185.402265
L 173.963735 157.045233
L 175.685019 79.025774
L 176.545661 49.615297
L 177.406304 37.790909
L 178.266946 46.712947
L 179.127588 74.167025
L 180.848872 153.304427
L 181.709514 184.434815
L 182.570156 198.409091
L 183.430798 191.679939
L 184.29144 166.096264
L 186.873366 56.731428
L 187.734008 41.144735
L 188.59465 45.552007
L 189.455292 68.491319
L 192.037218 173.233895
L 192.89786 189.766538
L 193.758502 187.638149
L 194.619144 167.880672
L 197.20107 70.920693
L 198.061712 54.19456
L 198.922354 54.302054
L 199.782996 70.619709
L 200.643638 98.374772
L 201.50428 130.042632
L 202.364922 157.389215
L 203.225564 173.642374
L 204.086206 175.190293
L 204.946848 162.269463
L 205.80749 138.857175
L 207.528774 87.044858
L 208.389416 71.802148
L 209.250058 69.05029
L 210.1107 78.810785
L 210.971342 97.966293
L 212.692626 142.296997
L 213.553268 156.206777
L 214.413911 159.797091
L 215.274553 152.766955
L 216.135195 137.481246
L 217.856479 100.094682
L 218.717121 87.539333
L 219.577763 83.368549
L 220.438405 88.141302
L 221.299047 100.223676
L 223.020331 131.870037
L 223.880973 143.39344
L 224.741615 148.101696
L 225.602257 145.113351
L 226.462899 135.503349
L 228.184183 107.748286
L 229.044825 96.654861
L 229.905467 91.237141
L 230.766109 92.763562
L 231.626751 100.739649
L 234.208677 138.255206
L 235.069319 144.74787
L 235.929961 144.511382
L 236.790603 137.502745
L 237.651245 125.355874
L 239.372529 98.073787
L 240.233171 89.925709
L 241.093813 88.829266
L 241.954455 95.407925
L 242.815097 108.285758
L 244.536381 139.803126
L 245.397023 150.316082
L 246.257665 152.938946
L 247.118307 146.510779
L 247.978949 132.214019
L 249.700233 94.633965
L 250.560875 81.046669
L 251.421518 76.553402
L 252.28216 82.852575
L 253.142802 98.955241
L 254.864086 143.909413
L 255.724728 161.15152
L 256.58537 167.966667
L 257.446012 161.968478
L 258.306654 144.016908
L 260.88858 69.802751
L 261.749222 60.257246
L 262.609864 65.588969
L 263.470506 85.109959
L 266.052432 171.255997
L 266.913074 183.832846
L 267.773716 179.619064
L 268.634358 159.087627
L 271.216284 62.235143
L 272.076926 46.540956
L 272.937568 49.16382
L 273.79821 69.931745
L 274.658852 103.835489
L 275.519494 142.253999
L 276.380136 175.190293
L 277.240778 193.915824
L 278.10142 193.249358
L 278.962062 173.061904
L 279.822704 138.362701
L 281.543988 62.536128
L 282.40463 41.187733
L 283.265272 39.661312
L 284.125914 58.472838
L 284.986556 92.763562
L 286.70784 170.589532
L 287.568482 193.915824
L 288.429125 197.635131
L 289.289767 180.908997
L 290.150409 148.187692
L 291.871693 71.028188
L 292.732335 46.562455
L 293.592977 40.822252
L 294.453619 54.990018
L 295.314261 85.08846
L 297.035545 159.023131
L 297.896187 183.703852
L 298.756829 191.077971
L 299.617471 179.70506
L 300.478113 153.003442
L 302.199397 84.572486
L 303.060039 60.579729
L 303.920681 52.06617
L 304.781323 60.644226
L 305.641965 83.497542
L 307.363249 144.726371
L 308.223891 167.214206
L 309.084533 176.329734
L 309.945175 170.353044
L 310.805817 151.49852
L 312.527101 98.39627
L 313.387743 77.993827
L 314.248385 68.770805
L 315.109027 72.490112
L 315.969669 87.517834
L 318.551595 150.423576
L 319.412237 159.388612
L 320.272879 157.518209
L 321.133521 145.90881
L 323.715447 92.892555
L 324.576089 84.3145
L 325.436732 84.679981
L 326.297374 93.451527
L 328.8793 138.362701
L 329.739942 146.704269
L 330.600584 147.542725
L 331.461226 141.007064
L 332.321868 128.967687
L 334.043152 101.621103
L 334.903794 93.107544
L 335.764436 91.129647
L 336.625078 96.031393
L 337.48572 106.544348
L 339.207004 132.96648
L 340.067646 142.275498
L 340.928288 145.52183
L 341.78893 141.802522
L 342.649572 131.913035
L 344.370856 104.136473
L 345.231498 93.215039
L 346.09214 88.420787
L 346.952782 91.194143
L 347.813424 101.212625
L 350.39535 145.887311
L 351.255992 152.745456
L 352.116634 150.832055
L 352.977276 140.190106
L 353.837918 123.076992
L 354.69856 103.641999
L 355.559202 86.915865
L 356.419844 77.499353
L 357.280486 78.337809
L 358.141128 89.861212
L 359.00177 109.618689
L 360.723054 153.562413
L 361.583696 166.096264
L 362.444339 166.590739
L 363.304981 154.293376
L 364.165623 131.741044
L 365.886907 79.305259
L 366.747549 63.26709
L 367.608191 61.009707
L 368.468833 73.780045
L 369.329475 98.890745
L 371.050759 159.732594
L 371.911401 179.490071
L 372.772043 183.897342
L 373.632685 171.170002
L 374.493327 144.081404
L 376.214611 75.714945
L 377.075253 52.281159
L 377.935895 45.444513
L 378.796537 57.483889
L 379.657179 85.711927
L 381.378463 160.012079
L 382.239105 186.756694
L 383.099747 196.130209
L 383.960389 185.402265
L 384.821031 157.045233
L 386.542315 79.025774
L 387.402957 49.615297
L 388.263599 37.790909
L 389.124241 46.712947
L 389.984883 74.167025
L 391.706167 153.304427
L 392.566809 184.434815
L 393.427451 198.409091
L 394.288093 191.679939
L 395.148735 166.096264
L 397.730661 56.731428
L 398.591304 41.144735
L 399.451946 45.552007
L 400.312588 68.491319
L 402.894514 173.233895
L 403.755156 189.766538
L 404.615798 187.638149
L 405.47644 167.880672
L 408.058366 70.920693
L 408.919008 54.19456
L 409.77965 54.302054
L 410.640292 70.619709
L 411.500934 98.374772
L 412.361576 130.042632
L 413.222218 157.389215
L 414.08286 173.642374
L 414.943502 175.190293
L 415.804144 162.269463
L 416.664786 138.857175
L 418.38607 87.044858
L 419.246712 71.802148
L 420.107354 69.05029
L 420.967996 78.810785
L 421.828638 97.966293
L 423.549922 142.296997
L 424.410564 156.206777
L 425.271206 159.797091
L 426.131848 152.766955
L 426.99249 137.481246
L 428.713774 100.094682
L 429.574416 87.539333
L 430.435058 83.368549
L 431.2957 88.141302
L 432.156342 100.223676
L 433.877626 131.870037
L 434.738268 143.39344
L 435.598911 148.101696
L 436.459553 145.113351
L 437.320195 135.503349
L 439.041479 107.748286
L 439.902121 96.654861
L 440.762763 91.237141
L 441.623405 92.763562
L 442.484047 100.71815
L 445.065973 138.255206
L 445.926615 144.74787
L 446.787257 144.511382
L 447.647899 137.502745
L 448.508541 125.355874
L 450.229825 98.073787
L 451.090467 89.925709
L 451.951109 88.829266
L 452.811751 95.407925
L 453.672393 108.285758
L 455.393677 139.803126
L 456.254319 150.316082
L 457.114961 152.938946
L 457.975603 146.510779
L 458.836245 132.214019
L 460.557529 94.633965
L 461.418171 81.046669
L 462.278813 76.553402
L 463.139455 82.852575
L 464.000097 98.955241
L 465.721381 143.909413
L 466.582023 161.15152
L 467.442665 167.966667
L 468.303307 161.968478
L 469.163949 144.016908
L 471.745875 69.802751
L 472.606518 60.257246
L 473.46716 65.588969
L 474.327802 85.109959
L 476.049086 145.414335
L 476.909728 168.590135
L 477.77037 176.286737
L 478.631012 167.321701
L 479.491654 146.790264
L 480.352296 123.485471
L 481.212938 105.533901
L 482.07358 97.321326
L 482.934222 98.353273
L 483.794864 104.78144
L 484.655506 112.048063
L 485.516148 117.121801
L 486.37679 119.25019
L 487.237432 119.379184
L 488.958716 118.390235
L 490.68 118.239743
L 490.68 118.239743
" style="fill:none;stroke:#1f77b4;stroke-linecap:square;stroke-width:1.5;"/>
   </g>
   <g id="patch_3">
    <path d="M 48.31 206.44
L 48.31 29.76
" style="fill:none;stroke:#000000;stroke-linecap:square;stroke-linejoin:miter;stroke-width:0.8;"/>
   </g>
   <g id="patch_4">
    <path d="M 490.68 206.44
L 490.68 29.76
" style="fill:none;stroke:#000000;stroke-linecap:square;stroke-linejoin:miter;stroke-width:0.8;"/>
   </g>
   <g id="patch_5">
    <path d="M 48.31 206.44
L 490.68 206.44
" style="fill:none;stroke:#000000;stroke-linecap:square;stroke-linejoin:miter;stroke-width:0.8;"/>
   </g>
   <g id="patch_6">
    <path d="M 48.31 29.76
L 490.68 29.76
" style="fill:none;stroke:#000000;stroke-linecap:square;stroke-linejoin:miter;stroke-width:0.8;"/>
   </g>
   <g id="text_15">
    <!-- B phoneme -->
    <defs>
     <path d="M 19.671875 34.8125
L 19.671875 8.109375
L 35.5 8.109375
Q 43.453125 8.109375 47.28125 11.40625
Q 51.125 14.703125 51.125 21.484375
Q 51.125 28.328125 47.28125 31.5625
Q 43.453125 34.8125 35.5 34.8125
z
M 19.671875 64.796875
L 19.671875 42.828125
L 34.28125 42.828125
Q 41.5 42.828125 45.03125 45.53125
Q 48.578125 48.25 48.578125 53.8125
Q 48.578125 59.328125 45.03125 62.0625
Q 41.5 64.796875 34.28125 64.796875
z
M 9.8125 72.90625
L 35.015625 72.90625
Q 46.296875 72.90625 52.390625 68.21875
Q 58.5 63.53125 58.5 54.890625
Q 58.5 48.1875 55.375 44.234375
Q 52.25 40.28125 46.1875 39.3125
Q 53.46875 37.75 57.5 32.78125
Q 61.53125 27.828125 61.53125 20.40625
Q 61.53125 10.640625 54.890625 5.3125
Q 48.25 0 35.984375 0
L 9.8125 0
z
" id="DejaVuSans-42"/>
     <path d="M 18.109375 8.203125
L 18.109375 -20.796875
L 9.078125 -20.796875
L 9.078125 54.6875
L 18.109375 54.6875
L 18.109375 46.390625
Q 20.953125 51.265625 25.265625 53.625
Q 29.59375 56 35.59375 56
Q 45.5625 56 51.78125 48.09375
Q 58.015625 40.1875 58.015625 27.296875
Q 58.015625 14.40625 51.78125 6.484375
Q 45.5625 -1.421875 35.59375 -1.421875
Q 29.59375 -1.421875 25.265625 0.953125
Q 20.953125 3.328125 18.109375 8.203125
z
M 48.6875 27.296875
Q 48.6875 37.203125 44.609375 42.84375
Q 40.53125 48.484375 33.40625 48.484375
Q 26.265625 48.484375 22.1875 42.84375
Q 18.109375 37.203125 18.109375 27.296875
Q 18.109375 17.390625 22.1875 11.75
Q 26.265625 6.109375 33.40625 6.109375
Q 40.53125 6.109375 44.609375 11.75
Q 48.6875 17.390625 48.6875 27.296875
z
" id="DejaVuSans-70"/>
     <path d="M 54.890625 33.015625
L 54.890625 0
L 45.90625 0
L 45.90625 32.71875
Q 45.90625 40.484375 42.875 44.328125
Q 39.84375 48.1875 33.796875 48.1875
Q 26.515625 48.1875 22.3125 43.546875
Q 18.109375 38.921875 18.109375 30.90625
L 18.109375 0
L 9.078125 0
L 9.078125 75.984375
L 18.109375 75.984375
L 18.109375 46.1875
Q 21.34375 51.125 25.703125 53.5625
Q 30.078125 56 35.796875 56
Q 45.21875 56 50.046875 50.171875
Q 54.890625 44.34375 54.890625 33.015625
z
" id="DejaVuSans-68"/>
     <path d="M 30.609375 48.390625
Q 23.390625 48.390625 19.1875 42.75
Q 14.984375 37.109375 14.984375 27.296875
Q 14.984375 17.484375 19.15625 11.84375
Q 23.34375 6.203125 30.609375 6.203125
Q 37.796875 6.203125 41.984375 11.859375
Q 46.1875 17.53125 46.1875 27.296875
Q 46.1875 37.015625 41.984375 42.703125
Q 37.796875 48.390625 30.609375 48.390625
z
M 30.609375 56
Q 42.328125 56 49.015625 48.375
Q 55.71875 40.765625 55.71875 27.296875
Q 55.71875 13.875 49.015625 6.21875
Q 42.328125 -1.421875 30.609375 -1.421875
Q 18.84375 -1.421875 12.171875 6.21875
Q 5.515625 13.875 5.515625 27.296875
Q 5.515625 40.765625 12.171875 48.375
Q 18.84375 56 30.609375 56
z
" id="DejaVuSans-6f"/>
     <path d="M 54.890625 33.015625
L 54.890625 0
L 45.90625 0
L 45.90625 32.71875
Q 45.90625 40.484375 42.875 44.328125
Q 39.84375 48.1875 33.796875 48.1875
Q 26.515625 48.1875 22.3125 43.546875
Q 18.109375 38.921875 18.109375 30.90625
L 18.109375 0
L 9.078125 0
L 9.078125 54.6875
L 18.109375 54.6875
L 18.109375 46.1875
Q 21.34375 51.125 25.703125 53.5625
Q 30.078125 56 35.796875 56
Q 45.21875 56 50.046875 50.171875
Q 54.890625 44.34375 54.890625 33.015625
z
" id="DejaVuSans-6e"/>
    </defs>
    <g transform="translate(223.7125 23.76)scale(0.16 -0.16)">
     <use xlink:href="#DejaVuSans-42"/>
     <use x="68.603516" xlink:href="#DejaVuSans-20"/>
     <use x="100.390625" xlink:href="#DejaVuSans-70"/>
     <use x="163.867188" xlink:href="#DejaVuSans-68"/>
     <use x="227.246094" xlink:href="#DejaVuSans-6f"/>
     <use x="288.427734" xlink:href="#DejaVuSans-6e"/>
     <use x="351.806641" xlink:href="#DejaVuSans-65"/>
     <use x="413.330078" xlink:href="#DejaVuSans-6d"/>
     <use x="510.742188" xlink:href="#DejaVuSans-65"/>
    </g>
   </g>
  </g>
 </g>
 <defs>
  <clipPath id="pc5036fab7c">
   <rect height="176.68" width="442.37" x="48.31" y="29.76"/>
  </clipPath>
 </defs>
</svg>
