<svg fill="none" stroke-linecap="square" stroke-miterlimit="10" viewBox="380 170 200 200" xmlns="http://www.w3.org/2000/svg"><clipPath id="a"><path d="M0 0h960v540H0z"/></clipPath><g clip-path="url(#a)"><path d="M436.93 192.38h86.14v45.984h-86.14z"/><path d="M466.56 222.589q-1.078 0-1.953-.484-.86-.5-1.281-1.22h-.078v1.407h-1.516v-13.36h1.594v3.938l-.078 1.328h.078q.422-.734 1.281-1.218.875-.5 1.953-.5 1.297 0 2.328.656 1.032.656 1.625 1.812.61 1.157.61 2.594 0 1.453-.61 2.61-.593 1.14-1.625 1.796-1.03.64-2.328.64zm-.156-1.438q.812 0 1.531-.437.735-.453 1.156-1.266.438-.828.438-1.906 0-1.094-.438-1.906-.421-.828-1.156-1.266-.719-.453-1.531-.453-.844 0-1.563.453-.718.438-1.156 1.266-.437.812-.437 1.906 0 1.078.437 1.906.438.813 1.156 1.266.72.437 1.563.437zm10.794 1.438q-1.36 0-2.438-.64-1.078-.657-1.687-1.798-.61-1.156-.61-2.593 0-1.36.563-2.532.578-1.171 1.625-1.859 1.062-.687 2.422-.687 1.39 0 2.421.625 1.032.625 1.579 1.734.546 1.094.546 2.516 0 .218-.03.484h-7.548q.063 1.078.532 1.828.468.734 1.187 1.11.719.374 1.5.374 1.86 0 2.813-1.718l1.343.656q-.593 1.14-1.656 1.828-1.062.672-2.562.672zm2.75-6.063q-.047-.593-.344-1.187-.297-.61-.938-1.016-.625-.406-1.593-.406-1.125 0-1.907.719-.781.719-1.031 1.89zm7.846 6.063q-1.359 0-2.437-.64-1.078-.657-1.688-1.798-.609-1.156-.609-2.593 0-1.36.562-2.532.579-1.171 1.625-1.859 1.063-.687 2.422-.687 1.391 0 2.422.625 1.031.625 1.578 1.734.547 1.094.547 2.516 0 .218-.031.484h-7.547q.063 1.078.531 1.828.47.734 1.188 1.11.719.374 1.5.374 1.86 0 2.812-1.718l1.344.656q-.594 1.14-1.656 1.828-1.063.672-2.563.672zm2.75-6.063q-.047-.593-.343-1.187-.297-.61-.938-1.016-.625-.406-1.594-.406-1.125 0-1.906.719-.781.719-1.031 1.89zm6.896 5.922q-.578 0-1.078-.187-.485-.188-.829-.516-.734-.703-.734-1.953v-5.578h-1.672v-1.438h1.672v-2.687h1.578v2.687h2.328v1.438h-2.328v5.187q0 .782.297 1.157.36.406 1.031.406.578 0 1.047-.313v1.547q-.281.125-.578.188-.281.062-.734.062z" fill="#f3f3f3"/><path d="M449.259 215.375l13.653-27.307h33.764l13.654 27.307-13.654 27.307h-33.764z"/><path d="M449.259 215.375l13.653-27.307h33.764l13.654 27.307-13.654 27.307h-33.764z" stroke="#999" stroke-linecap="butt" stroke-linejoin="round"/><path d="M436.71 247.006h86.14v45.984h-86.14z"/><path d="M471.517 277.215q-1.078 0-1.953-.485-.86-.5-1.281-1.218h-.078v1.406h-1.516v-13.36h1.594v3.938l-.078 1.328h.078q.422-.734 1.281-1.219.875-.5 1.953-.5 1.297 0 2.328.657 1.032.656 1.625 1.812.61 1.156.61 2.594 0 1.453-.61 2.61-.593 1.14-1.625 1.796-1.03.64-2.328.64zm-.156-1.438q.813 0 1.531-.437.735-.453 1.157-1.266.437-.828.437-1.906 0-1.094-.437-1.906-.422-.829-1.157-1.266-.718-.453-1.53-.453-.845 0-1.563.453-.72.437-1.157 1.266-.437.812-.437 1.906 0 1.078.437 1.906.438.813 1.157 1.266.718.437 1.562.437zm9.92 1.438q-1.72 0-2.626-1-.906-1.016-.906-2.828v-5.985h1.594v5.75q0 1.36.609 2 .625.625 1.672.625.797 0 1.422-.422.625-.437.968-1.125.344-.687.344-1.453v-5.375h1.594v9.516h-1.516v-1.375h-.078q-.39.703-1.25 1.187-.86.485-1.828.485zm10.762-.14q-.578 0-1.078-.188-.485-.188-.829-.516-.734-.703-.734-1.953v-5.578h-1.672v-1.438h1.672v-2.687h1.578v2.687h2.328v1.438h-2.328v5.187q0 .781.297 1.156.36.407 1.031.407.578 0 1.047-.313v1.547q-.281.125-.578.188-.281.062-.734.062z" fill="#f3f3f3"/><path d="M436.71 301.63h86.14v45.985h-86.14z"/><path d="M468.402 331.84q-1.078 0-1.953-.485-.86-.5-1.282-1.219h-.078v1.407h-1.515v-13.36h1.593v3.938l-.078 1.328h.078q.422-.735 1.282-1.219.875-.5 1.953-.5 1.297 0 2.328.656 1.031.657 1.625 1.813.61 1.156.61 2.594 0 1.453-.61 2.609-.594 1.14-1.625 1.797-1.031.64-2.328.64zm-.156-1.438q.812 0 1.53-.438.735-.453 1.157-1.265.438-.828.438-1.906 0-1.094-.438-1.907-.422-.828-1.156-1.265-.719-.453-1.531-.453-.844 0-1.563.453-.719.437-1.156 1.265-.438.813-.438 1.907 0 1.078.438 1.906.437.812 1.156 1.265.719.438 1.563.438zm10.95 1.437q-1.407 0-2.532-.671-1.11-.672-1.734-1.829-.625-1.156-.625-2.546 0-1.407.625-2.563.625-1.156 1.734-1.828 1.125-.672 2.531-.672 1.391 0 2.516.672t1.75 1.828q.625 1.156.625 2.563 0 1.39-.625 2.546-.625 1.157-1.75 1.829-1.125.671-2.516.671zm0-1.437q.874 0 1.624-.438.766-.437 1.22-1.25.452-.828.452-1.921 0-1.11-.453-1.922-.453-.828-1.219-1.266-.75-.437-1.625-.437t-1.64.437q-.766.438-1.235 1.266-.453.812-.453 1.922 0 1.093.453 1.921.47.813 1.235 1.25.765.438 1.64.438zm10.104 1.297q-.578 0-1.078-.188-.484-.187-.828-.515-.734-.703-.734-1.953v-5.579h-1.672v-1.437h1.672v-2.688h1.578v2.688h4.297v-2.688h1.562v2.688h2.328v1.437h-2.328v5.188q0 .781.313 1.156.359.406 1.03.406.563 0 1.032-.312v1.547q-.281.125-.562.187-.282.063-.735.063-.578 0-1.078-.188-.5-.187-.844-.515-.375-.344-.547-.813-.171-.484-.171-1.14v-5.579h-4.297v5.188q0 .781.297 1.156.359.406 1.03.406.579 0 1.048-.312v1.547q-.282.125-.578.187-.282.063-.735.063z" fill="#f3f3f3"/><path d="M484.78 274.091h86.141v45.985H484.78z"/><path d="M513.842 304.3q-1.078 0-1.953-.484-.86-.5-1.282-1.219h-.078v1.407h-1.515v-13.36h1.593v3.938l-.078 1.328h.078q.422-.735 1.282-1.219.875-.5 1.953-.5 1.297 0 2.328.656 1.031.657 1.625 1.813.61 1.156.61 2.594 0 1.453-.61 2.609-.594 1.14-1.625 1.797-1.031.64-2.328.64zm-.157-1.437q.813 0 1.532-.438.734-.453 1.156-1.265.437-.828.437-1.906 0-1.094-.437-1.907-.422-.828-1.156-1.265-.72-.453-1.532-.453-.843 0-1.562.453-.719.437-1.156 1.265-.438.813-.438 1.907 0 1.078.438 1.906.437.812 1.156 1.265.719.438 1.562.438zm10.95 1.437q-1.406 0-2.531-.671-1.11-.672-1.734-1.829-.625-1.156-.625-2.546 0-1.407.625-2.563.625-1.156 1.734-1.828 1.125-.672 2.531-.672 1.39 0 2.516.672 1.125.672 1.75 1.828.625 1.156.625 2.563 0 1.39-.625 2.546-.625 1.157-1.75 1.829-1.125.671-2.516.671zm0-1.437q.875 0 1.625-.438.766-.437 1.219-1.25.453-.828.453-1.921 0-1.11-.453-1.922-.453-.828-1.219-1.266-.75-.437-1.625-.437t-1.64.437q-.766.438-1.235 1.266-.453.812-.453 1.922 0 1.093.453 1.921.469.813 1.235 1.25.765.438 1.64.438zm11.12 1.437q-1.407 0-2.532-.671-1.11-.672-1.734-1.829-.625-1.156-.625-2.546 0-1.407.625-2.563.625-1.156 1.734-1.828 1.125-.672 2.531-.672 1.391 0 2.516.672t1.75 1.828q.625 1.156.625 2.563 0 1.39-.625 2.546-.625 1.157-1.75 1.829-1.125.671-2.516.671zm0-1.437q.874 0 1.624-.438.766-.437 1.22-1.25.452-.828.452-1.921 0-1.11-.453-1.922-.453-.828-1.219-1.266-.75-.437-1.625-.437t-1.64.437q-.766.438-1.235 1.266-.453.812-.453 1.922 0 1.093.453 1.921.47.813 1.235 1.25.765.438 1.64.438zm10.104 1.297q-.578 0-1.078-.188-.484-.187-.828-.515-.735-.703-.735-1.953v-5.579h-1.671v-1.437h1.671V291.8h1.579v2.688h2.328v1.437h-2.328v5.188q0 .781.296 1.156.36.406 1.032.406.578 0 1.047-.312v1.547q-.282.125-.579.187-.28.063-.734.063z" fill="#f3f3f3"/><path d="M484.78 219.467h86.141v45.984H484.78z"/><path d="M522.806 249.676q-1.078 0-1.953-.485-.86-.5-1.281-1.218h-.079v1.406h-1.515v-13.36h1.594v3.938l-.079 1.328h.079q.421-.734 1.28-1.219.876-.5 1.954-.5 1.297 0 2.328.657 1.031.656 1.625 1.812.61 1.156.61 2.594 0 1.453-.61 2.61-.594 1.14-1.625 1.796-1.031.64-2.328.64zm-.156-1.438q.812 0 1.531-.437.734-.453 1.156-1.266.438-.828.438-1.906 0-1.094-.438-1.906-.422-.829-1.156-1.266-.719-.453-1.531-.453-.844 0-1.563.453-.719.437-1.156 1.266-.438.812-.438 1.906 0 1.078.438 1.906.437.813 1.156 1.266.719.437 1.563.437zm7.403-10.125q-.469 0-.812-.328-.329-.344-.329-.812 0-.485.329-.813.343-.328.812-.328.484 0 .813.328.328.328.328.813 0 .468-.328.812-.329.328-.813.328zm-.781 1.75h1.578v9.516h-1.578zm7.623 9.672q-.578 0-1.078-.187-.485-.188-.828-.516-.735-.703-.735-1.953V241.3h-1.672v-1.438h1.672v-2.687h1.578v2.687h2.328v1.438h-2.328v5.187q0 .781.297 1.156.36.407 1.031.407.579 0 1.047-.313v1.547q-.281.125-.578.188-.281.062-.734.062z" fill="#f3f3f3"/><path d="M389.079 219.467h86.141v45.984h-86.14z"/><path d="M424.008 249.676q-1.078 0-1.953-.485-.86-.5-1.281-1.218h-.078v1.406h-1.516v-13.36h1.594v3.938l-.078 1.328h.078q.422-.734 1.281-1.219.875-.5 1.953-.5 1.297 0 2.328.657 1.032.656 1.625 1.812.61 1.156.61 2.594 0 1.453-.61 2.61-.593 1.14-1.625 1.796-1.03.64-2.328.64zm-.156-1.438q.812 0 1.531-.437.735-.453 1.156-1.266.438-.828.438-1.906 0-1.094-.438-1.906-.421-.829-1.156-1.266-.719-.453-1.531-.453-.844 0-1.563.453-.718.437-1.156 1.266-.437.812-.437 1.906 0 1.078.437 1.906.438.813 1.156 1.266.72.437 1.563.437zm10.794 1.438q-1.36 0-2.438-.641-1.078-.656-1.687-1.797-.61-1.156-.61-2.594 0-1.359.563-2.53.578-1.173 1.625-1.86 1.062-.688 2.422-.688 1.39 0 2.421.625 1.032.625 1.579 1.735.546 1.093.546 2.515 0 .219-.03.485h-7.548q.063 1.078.532 1.828.468.734 1.187 1.11.719.374 1.5.374 1.86 0 2.813-1.719l1.343.657q-.593 1.14-1.656 1.828-1.062.672-2.562.672zm2.75-6.063q-.047-.594-.344-1.187-.297-.61-.938-1.016-.625-.406-1.593-.406-1.125 0-1.907.719-.781.718-1.031 1.89zm6.895 5.922q-.578 0-1.078-.187-.485-.188-.828-.516-.735-.703-.735-1.953V241.3h-1.672v-1.438h1.672v-2.687h1.578v2.687h2.329v1.438h-2.329v5.187q0 .781.297 1.156.36.407 1.032.407.578 0 1.046-.313v1.547q-.28.125-.578.188-.281.062-.734.062z" fill="#f3f3f3"/><path d="M389.079 274.091h86.141v45.985h-86.14z"/><path d="M424.26 304.3q-1.078 0-1.953-.484-.86-.5-1.281-1.219h-.078v1.407h-1.516v-13.36h1.594v3.938l-.078 1.328h.078q.422-.735 1.28-1.219.876-.5 1.954-.5 1.297 0 2.328.656 1.031.657 1.625 1.813.61 1.156.61 2.594 0 1.453-.61 2.609-.594 1.14-1.625 1.797-1.031.64-2.328.64zm-.156-1.437q.812 0 1.531-.438.734-.453 1.156-1.265.438-.828.438-1.906 0-1.094-.438-1.907-.422-.828-1.156-1.265-.719-.453-1.531-.453-.844 0-1.563.453-.718.437-1.156 1.265-.437.813-.437 1.907 0 1.078.437 1.906.438.812 1.156 1.265.72.438 1.563.438zm9.606 1.437q-1.047 0-1.875-.406-.813-.406-1.266-1.125-.437-.719-.437-1.64 0-1.516 1.125-2.36 1.14-.844 2.875-.844.86 0 1.593.188.75.187 1.141.422v-.578q0-1.063-.75-1.703-.75-.641-1.89-.641-.782 0-1.47.344-.671.343-1.062.953l-1.203-.89q.563-.86 1.547-1.345 1-.484 2.187-.484 1.938 0 3.032 1.016 1.11 1.015 1.11 2.765v6.032h-1.5v-1.36h-.079q-.406.688-1.234 1.172-.813.484-1.844.484zm.14-1.39q.813 0 1.5-.406.688-.422 1.094-1.11.422-.687.422-1.515-.453-.297-1.11-.485-.656-.187-1.374-.187-1.313 0-1.985.547-.656.53-.656 1.39 0 .781.594 1.281.61.485 1.515.485zm10.19 1.25q-.58 0-1.08-.188-.483-.187-.827-.515-.735-.703-.735-1.953v-5.579h-1.671v-1.437h1.671V291.8h1.579v2.688h2.328v1.437h-2.328v5.188q0 .781.296 1.156.36.406 1.032.406.578 0 1.047-.312v1.547q-.282.125-.579.187-.28.063-.734.063z" fill="#f3f3f3"/><path d="M449.259 324.625l13.653-27.307h33.764l13.654 27.307-13.654 27.307h-33.764z"/><path d="M449.259 324.625l13.653-27.307h33.764l13.654 27.307-13.654 27.307h-33.764z" stroke="#999" stroke-linecap="butt" stroke-linejoin="round"/><path d="M497.33 297.086l13.654-27.307h33.764l13.654 27.307-13.654 27.307h-33.764z"/><path d="M497.33 297.086l13.654-27.307h33.764l13.654 27.307-13.654 27.307h-33.764z" stroke="#999" stroke-linecap="butt" stroke-linejoin="round"/><path d="M401.63 297.086l13.654-27.307h33.763l13.654 27.307-13.654 27.307h-33.763z"/><path d="M401.63 297.086l13.654-27.307h33.763l13.654 27.307-13.654 27.307h-33.763z" stroke="#999" stroke-linecap="butt" stroke-linejoin="round"/><path d="M401.63 242.46l13.654-27.306h33.763l13.654 27.307-13.654 27.307h-33.763z"/><path d="M401.63 242.46l13.654-27.306h33.763l13.654 27.307-13.654 27.307h-33.763z" stroke="#999" stroke-linecap="butt" stroke-linejoin="round"/><path d="M497.33 242.46l13.654-27.306h33.764l13.654 27.307-13.654 27.307h-33.764z"/><path d="M497.33 242.46l13.654-27.306h33.764l13.654 27.307-13.654 27.307h-33.764z" stroke="#999" stroke-linecap="butt" stroke-linejoin="round"/></g></svg>