<svg fill="none" stroke-linecap="square" stroke-miterlimit="10" viewBox="20 5 780 410" xmlns="http://www.w3.org/2000/svg"><clipPath id="a"><path d="M0 0h1280v960H0z"/></clipPath><g clip-path="url(#a)"><path d="M0 0h1280v960H0z"/><g fill-rule="evenodd"><path d="M106.126 31.951c0-13.71 11.115-24.825 24.825-24.825h189.216a24.825 24.825 0 0124.825 24.825v353.94c0 13.71-11.115 24.826-24.825 24.826H130.95c-13.71 0-24.825-11.115-24.825-24.826z" fill="#fce5cd"/><path d="M106.126 31.951c0-13.71 11.115-24.825 24.825-24.825h189.216a24.825 24.825 0 0124.825 24.825v353.94c0 13.71-11.115 24.826-24.825 24.826H130.95c-13.71 0-24.825-11.115-24.825-24.826z" stroke="#d9d9d9" stroke-linecap="butt" stroke-linejoin="round"/><path d="M124.688 64.008a8.12 8.12 0 018.12-8.12h72.074a8.12 8.12 0 018.12 8.12v32.483a8.12 8.12 0 01-8.12 8.12h-72.073a8.12 8.12 0 01-8.121-8.12z" fill="#f6b26b"/><path d="M124.688 64.008a8.12 8.12 0 018.12-8.12h72.074a8.12 8.12 0 018.12 8.12v32.483a8.12 8.12 0 01-8.12 8.12h-72.073a8.12 8.12 0 01-8.121-8.12z" stroke="#783f04" stroke-linecap="butt" stroke-linejoin="round" stroke-width="2"/></g><path d="M143.133 86.39V73.982h4.656q1.422 0 2.281.375.86.375 1.344 1.172.484.781.484 1.625 0 .797-.437 1.5-.422.703-1.297 1.14 1.125.329 1.734 1.126.61.796.61 1.875 0 .875-.375 1.625-.36.734-.906 1.14-.547.406-1.36.625-.812.203-2 .203zm1.64-7.188h2.688q1.094 0 1.562-.14.625-.188.938-.626.328-.437.328-1.078 0-.625-.297-1.094-.297-.468-.86-.64-.546-.172-1.874-.172h-2.485zm0 5.719h3.094q.797 0 1.11-.047.578-.11.953-.344.375-.234.625-.688.25-.453.25-1.046 0-.704-.36-1.204-.359-.515-.984-.718-.625-.219-1.813-.219h-2.875zm9.808-9.188v-1.75h1.516v1.75zm0 10.656v-8.984h1.516v8.984zm9.569 3.438v-4.39q-.36.5-1 .827-.64.328-1.36.328-1.593 0-2.75-1.28-1.156-1.282-1.156-3.5 0-1.36.469-2.423.469-1.078 1.36-1.625.89-.562 1.968-.562 1.656 0 2.61 1.406v-1.203h1.374v12.422zm-4.703-7.953q0 1.734.718 2.61.735.858 1.75.858.985 0 1.672-.828.703-.828.703-2.5 0-1.797-.734-2.703-.734-.906-1.734-.906t-1.688.844q-.687.843-.687 2.625zm14.496 4.515v-1.312q-1.047 1.515-2.844 1.515-.797 0-1.5-.296-.687-.313-1.015-.766-.328-.469-.47-1.14-.093-.438-.093-1.423v-5.562h1.516v4.984q0 1.188.094 1.61.156.593.609.937.469.344 1.156.344.688 0 1.281-.344.61-.36.86-.953.25-.61.25-1.766v-4.812h1.515v8.984zm9.606-1.109q-.844.719-1.625 1.016-.781.296-1.672.296-1.484 0-2.281-.718-.797-.735-.797-1.86 0-.656.297-1.203.312-.547.797-.875.484-.328 1.093-.5.438-.11 1.344-.219 1.844-.218 2.719-.53.016-.313.016-.391 0-.938-.438-1.313-.578-.516-1.734-.516-1.078 0-1.594.375-.5.375-.75 1.329l-1.484-.204q.203-.953.656-1.53.469-.595 1.344-.907.89-.328 2.046-.328 1.157 0 1.875.281.72.266 1.047.672.344.406.485 1.031.078.39.078 1.406v2.032q0 2.125.094 2.687.093.563.39 1.078h-1.594q-.234-.468-.312-1.109zm-.125-3.406q-.828.343-2.484.578-.938.14-1.329.312-.39.172-.609.5-.203.313-.203.72 0 .608.453 1.015.469.406 1.36.406.874 0 1.562-.39.687-.391 1.016-1.048.234-.515.234-1.53zm9.73 4.515v-1.14q-.843 1.343-2.515 1.343-1.062 0-1.969-.593-.906-.594-1.406-1.657-.484-1.062-.484-2.437 0-1.344.437-2.438.453-1.093 1.344-1.671.906-.594 2.016-.594.812 0 1.437.344.64.343 1.047.89v-4.453h1.516V86.39zm-4.812-4.484q0 1.719.719 2.578.734.86 1.734.86.985 0 1.688-.813.703-.828.703-2.5 0-1.844-.719-2.703-.703-.86-1.75-.86-1.015 0-1.703.829-.672.828-.672 2.609z" fill="#000"/><path d="M124.688 139.844a8.12 8.12 0 018.12-8.121h72.074a8.12 8.12 0 018.12 8.12v32.483a8.12 8.12 0 01-8.12 8.121h-72.073a8.12 8.12 0 01-8.121-8.12z" fill="#f6b26b" fill-rule="evenodd"/><path d="M124.688 139.844a8.12 8.12 0 018.12-8.121h72.074a8.12 8.12 0 018.12 8.12v32.483a8.12 8.12 0 01-8.12 8.121h-72.073a8.12 8.12 0 01-8.121-8.12z" stroke="#783f04" stroke-linecap="butt" stroke-linejoin="round" stroke-width="2"/><path d="M143.133 162.225v-12.406h4.656q1.422 0 2.281.375.86.375 1.344 1.171.484.782.484 1.625 0 .797-.437 1.5-.422.704-1.297 1.141 1.125.328 1.734 1.125.61.797.61 1.875 0 .875-.375 1.625-.36.734-.906 1.14-.547.407-1.36.626-.812.203-2 .203zm1.64-7.188h2.688q1.094 0 1.562-.14.625-.188.938-.625.328-.438.328-1.078 0-.625-.297-1.094-.297-.469-.86-.64-.546-.173-1.874-.173h-2.485zm0 5.72h3.094q.797 0 1.11-.048.578-.11.953-.344.375-.234.625-.687.25-.453.25-1.047 0-.703-.36-1.203-.359-.516-.984-.719-.625-.219-1.813-.219h-2.875zm9.808-9.188v-1.75h1.516v1.75zm0 10.656v-8.985h1.516v8.985zm9.569 3.437v-4.39q-.36.5-1 .828-.64.328-1.36.328-1.593 0-2.75-1.281-1.156-1.282-1.156-3.5 0-1.36.469-2.422.469-1.078 1.36-1.625.89-.563 1.968-.563 1.656 0 2.61 1.407v-1.204h1.374v12.422zm-4.703-7.953q0 1.735.718 2.61.735.859 1.75.859.985 0 1.672-.828.703-.828.703-2.5 0-1.797-.734-2.703-.734-.907-1.734-.907t-1.688.844q-.687.844-.687 2.625zm14.496 4.516v-1.313q-1.047 1.516-2.844 1.516-.797 0-1.5-.297-.687-.312-1.015-.766-.328-.468-.47-1.14-.093-.438-.093-1.422v-5.563h1.516v4.985q0 1.187.094 1.61.156.593.609.937.469.343 1.156.343.688 0 1.281-.343.61-.36.86-.953.25-.61.25-1.766v-4.813h1.515v8.985zm9.606-1.11q-.844.72-1.625 1.016-.781.297-1.672.297-1.484 0-2.281-.719-.797-.734-.797-1.86 0-.655.297-1.202.312-.547.797-.875.484-.328 1.093-.5.438-.11 1.344-.219 1.844-.219 2.719-.531.016-.313.016-.39 0-.938-.438-1.313-.578-.516-1.734-.516-1.078 0-1.594.375-.5.375-.75 1.328l-1.484-.203q.203-.953.656-1.531.469-.594 1.344-.907.89-.328 2.046-.328 1.157 0 1.875.282.72.265 1.047.671.344.407.485 1.032.078.39.078 1.406v2.031q0 2.125.094 2.688.093.562.39 1.078h-1.594q-.234-.469-.312-1.11zm-.125-3.406q-.828.344-2.484.578-.938.141-1.329.313-.39.172-.609.5-.203.312-.203.719 0 .609.453 1.015.469.406 1.36.406.874 0 1.562-.39.687-.39 1.016-1.047.234-.516.234-1.531zm9.73 4.516v-1.14q-.843 1.343-2.515 1.343-1.062 0-1.969-.594-.906-.594-1.406-1.656-.484-1.063-.484-2.438 0-1.343.437-2.437.453-1.094 1.344-1.672.906-.594 2.016-.594.812 0 1.437.344.64.344 1.047.89v-4.452h1.516v12.406zm-4.812-4.485q0 1.72.719 2.579.734.859 1.734.859.985 0 1.688-.813.703-.828.703-2.5 0-1.843-.719-2.703-.703-.859-1.75-.859-1.015 0-1.703.828-.672.828-.672 2.61z" fill="#000"/><path d="M124.688 215.68a8.12 8.12 0 018.12-8.122h72.074a8.12 8.12 0 018.12 8.121v32.483a8.12 8.12 0 01-8.12 8.12h-72.073a8.12 8.12 0 01-8.121-8.12z" fill="#f6b26b" fill-rule="evenodd"/><path d="M124.688 215.68a8.12 8.12 0 018.12-8.122h72.074a8.12 8.12 0 018.12 8.121v32.483a8.12 8.12 0 01-8.12 8.12h-72.073a8.12 8.12 0 01-8.121-8.12z" stroke="#783f04" stroke-linecap="butt" stroke-linejoin="round" stroke-width="2"/><path d="M143.133 238.06v-12.406h4.656q1.422 0 2.281.375.86.375 1.344 1.172.484.781.484 1.625 0 .797-.437 1.5-.422.703-1.297 1.14 1.125.329 1.734 1.126.61.797.61 1.875 0 .875-.375 1.625-.36.734-.906 1.14-.547.407-1.36.625-.812.203-2 .203zm1.64-7.187h2.688q1.094 0 1.562-.14.625-.188.938-.626.328-.437.328-1.078 0-.625-.297-1.094-.297-.468-.86-.64-.546-.172-1.874-.172h-2.485zm0 5.719h3.094q.797 0 1.11-.047.578-.11.953-.344.375-.234.625-.687.25-.454.25-1.047 0-.703-.36-1.203-.359-.516-.984-.72-.625-.218-1.813-.218h-2.875zm9.808-9.188v-1.75h1.516v1.75zm0 10.656v-8.984h1.516v8.984zm9.569 3.438v-4.39q-.36.5-1 .827-.64.329-1.36.329-1.593 0-2.75-1.282-1.156-1.281-1.156-3.5 0-1.36.469-2.422.469-1.078 1.36-1.625.89-.562 1.968-.562 1.656 0 2.61 1.406v-1.203h1.374v12.422zm-4.703-7.953q0 1.734.718 2.61.735.859 1.75.859.985 0 1.672-.829.703-.828.703-2.5 0-1.796-.734-2.703-.734-.906-1.734-.906t-1.688.844q-.687.844-.687 2.625zm14.496 4.515v-1.312q-1.047 1.516-2.844 1.516-.797 0-1.5-.297-.687-.313-1.015-.766-.328-.469-.47-1.14-.093-.438-.093-1.422v-5.563h1.516v4.984q0 1.188.094 1.61.156.594.609.937.469.344 1.156.344.688 0 1.281-.344.61-.36.86-.953.25-.61.25-1.765v-4.813h1.515v8.984zm9.606-1.109q-.844.719-1.625 1.016-.781.297-1.672.297-1.484 0-2.281-.72-.797-.734-.797-1.859 0-.656.297-1.203.312-.547.797-.875.484-.328 1.093-.5.438-.11 1.344-.218 1.844-.22 2.719-.532.016-.312.016-.39 0-.938-.438-1.313-.578-.515-1.734-.515-1.078 0-1.594.375-.5.375-.75 1.328l-1.484-.203q.203-.954.656-1.532.469-.593 1.344-.906.89-.328 2.046-.328 1.157 0 1.875.281.72.266 1.047.672.344.406.485 1.031.078.39.078 1.407v2.03q0 2.126.094 2.688.093.563.39 1.078h-1.594q-.234-.468-.312-1.109zm-.125-3.406q-.828.344-2.484.578-.938.14-1.329.312-.39.172-.609.5-.203.313-.203.72 0 .609.453 1.015.469.406 1.36.406.874 0 1.562-.39.687-.391 1.016-1.047.234-.516.234-1.532zm9.73 4.515v-1.14q-.843 1.344-2.515 1.344-1.062 0-1.969-.594-.906-.594-1.406-1.656-.484-1.063-.484-2.438 0-1.344.437-2.437.453-1.094 1.344-1.672.906-.594 2.016-.594.812 0 1.437.344.64.343 1.047.89v-4.453h1.516v12.406zm-4.812-4.484q0 1.719.719 2.578.734.86 1.734.86.985 0 1.688-.813.703-.828.703-2.5 0-1.844-.719-2.703-.703-.86-1.75-.86-1.015 0-1.703.829-.672.828-.672 2.609z" fill="#000"/><path d="M12.228 51.822h73.166v56.913H12.228z"/><path d="M28.455 63.182v-2.016h1.765v2.016zm0 12.297V65.104h1.765v10.375zm4.427 0V65.104h1.594v1.484q1.14-1.719 3.297-1.719.937 0 1.719.344.797.328 1.187.875.39.547.547 1.297.094.5.094 1.719v6.375h-1.766v-6.313q0-1.078-.203-1.61-.203-.53-.734-.843-.516-.313-1.22-.313-1.124 0-1.937.72-.812.702-.812 2.687v5.672zm11.123 3.968V65.104h1.61v1.343q.562-.781 1.265-1.172.72-.406 1.735-.406 1.328 0 2.343.688 1.016.687 1.532 1.937.531 1.235.531 2.719 0 1.594-.578 2.875-.563 1.266-1.656 1.953-1.094.672-2.297.672-.875 0-1.578-.375-.688-.375-1.141-.938v5.047zm1.594-9.093q0 2 .813 2.953.812.953 1.968.953 1.172 0 2-.985.844-.984.844-3.078 0-1.968-.828-2.953-.813-1-1.938-1t-2 1.063q-.859 1.047-.859 3.047zm16.326 5.125v-1.532q-1.203 1.766-3.281 1.766-.922 0-1.719-.344-.797-.36-1.187-.89-.375-.532-.531-1.313-.11-.516-.11-1.64v-6.422h1.75v5.75q0 1.375.11 1.859.171.687.703 1.094.547.39 1.328.39.797 0 1.484-.406.703-.406.985-1.094.296-.703.296-2.031v-5.562h1.75v10.375zm8.17-1.579l.25 1.563q-.734.156-1.328.156-.953 0-1.484-.297-.516-.312-.735-.797-.218-.5-.218-2.078V66.48h-1.282v-1.375h1.282V62.54l1.75-1.062v3.625h1.765v1.375H68.33v6.062q0 .75.093.969.094.203.297.344.219.125.61.125.28 0 .765-.079zM32.437 98.197q-.984.828-1.89 1.172-.907.344-1.938.344-1.703 0-2.625-.828-.922-.844-.922-2.14 0-.766.344-1.391.36-.625.922-1 .562-.391 1.265-.594.516-.125 1.563-.266 2.125-.25 3.125-.594.015-.359.015-.468 0-1.063-.5-1.516-.672-.594-2-.594-1.25 0-1.843.438-.579.437-.86 1.547l-1.719-.235q.235-1.11.766-1.781.531-.687 1.547-1.047 1.016-.375 2.36-.375 1.327 0 2.156.313.828.312 1.218.797.391.468.547 1.187.094.453.094 1.625v2.344q0 2.453.11 3.11.109.64.453 1.234H32.78q-.266-.547-.344-1.282zm-.156-3.922q-.953.391-2.875.657-1.078.156-1.532.359-.437.188-.687.563-.25.375-.25.843 0 .703.531 1.172t1.563.469q1.015 0 1.797-.438.796-.453 1.171-1.218.282-.61.282-1.766zm11.295 5.204v-1.532q-1.203 1.766-3.282 1.766-.921 0-1.718-.344-.797-.36-1.188-.89-.375-.532-.531-1.313-.11-.516-.11-1.64v-6.422h1.75v5.75q0 1.375.11 1.859.172.687.703 1.094.547.39 1.328.39.797 0 1.485-.406.703-.406.984-1.094.297-.703.297-2.031v-5.562h1.75v10.375zm11.06 0v-1.313q-.984 1.547-2.906 1.547-1.234 0-2.281-.688-1.032-.687-1.61-1.906-.562-1.219-.562-2.812 0-1.563.515-2.828.516-1.266 1.547-1.938 1.047-.672 2.313-.672.937 0 1.672.406.734.391 1.203 1.016v-5.125h1.734v14.313zm-5.562-5.172q0 1.984.843 2.968.844.985 1.985.985 1.156 0 1.953-.938.812-.937.812-2.875 0-2.125-.828-3.125-.812-1-2.015-1-1.172 0-1.969.969-.781.953-.781 3.016zm9.967-7.125v-2.016h1.765v2.016zm0 12.297V89.104h1.765v10.375zm3.787-5.188q0-2.875 1.593-4.266 1.344-1.156 3.266-1.156 2.14 0 3.484 1.406 1.36 1.407 1.36 3.875 0 2-.594 3.157-.594 1.14-1.75 1.78-1.14.626-2.5.626-2.187 0-3.531-1.39-1.328-1.407-1.328-4.032zm1.797 0q0 2 .859 2.984.875.985 2.203.985 1.313 0 2.172-.985.875-1 .875-3.046 0-1.922-.875-2.907-.875-1-2.172-1-1.328 0-2.203 1-.86.985-.86 2.969z" fill="#000"/><path d="M85.394 80.279l39.307-.032"/><path d="M85.394 80.279l33.307-.027" stroke="#000" stroke-linecap="butt" stroke-linejoin="round"/><path d="M118.702 81.904l4.537-1.656-4.54-1.648z" fill="#000" fill-rule="evenodd" stroke="#000" stroke-linecap="butt"/><path d="M236.43 105.202a6.494 6.494 0 016.494-6.493h75.328a6.494 6.494 0 016.493 6.493v25.974a6.494 6.494 0 01-6.493 6.493h-75.328a6.494 6.494 0 01-6.494-6.493z" fill="#f6b26b" fill-rule="evenodd"/><path d="M236.43 105.202a6.494 6.494 0 016.494-6.493h75.328a6.494 6.494 0 016.493 6.493v25.974a6.494 6.494 0 01-6.493 6.493h-75.328a6.494 6.494 0 01-6.494-6.493z" stroke="#783f04" stroke-linecap="butt" stroke-linejoin="round" stroke-width="2"/><path d="M254.706 127.97q-1.25-1.579-2.125-3.704-.875-2.14-.875-4.437 0-2 .657-3.844.765-2.14 2.343-4.265h1.094q-1.016 1.75-1.344 2.5-.515 1.171-.812 2.437-.375 1.594-.375 3.188 0 4.062 2.531 8.125zm8.177-3.641h-1.516v-9.703q-.562.515-1.453 1.047-.89.531-1.594.781v-1.469q1.282-.594 2.235-1.453.953-.86 1.344-1.656h.984zm17.155-5.406h-8.188V117.5h8.188zm6.12 5.406v-1.234l5.72-6.563q-.985.047-1.72.047h-3.671v-1.234h7.344v1l-4.86 5.703-.937 1.047q1.015-.079 1.922-.079h4.156v1.313zM294.838 115.345v-1.016h3.125v1.016zm7.783 2.484h-1.016v-6.469q-.359.344-.953.703-.593.344-1.078.516v-.969q.86-.406 1.5-.969.64-.578.89-1.109h.657zM306.887 127.97h-1.094q2.531-4.063 2.531-8.125 0-1.594-.36-3.157-.296-1.265-.812-2.437-.328-.766-1.36-2.531h1.095q1.593 2.125 2.359 4.265.64 1.844.64 3.844 0 2.297-.874 4.437-.875 2.125-2.125 3.704z" fill="#000"/><path d="M376.548 101.931a8.12 8.12 0 018.12-8.12h78.153a8.12 8.12 0 018.12 8.12v32.483a8.12 8.12 0 01-8.12 8.12h-78.152a8.12 8.12 0 01-8.121-8.12z" fill="#9fc5e8" fill-rule="evenodd"/><path d="M376.548 101.931a8.12 8.12 0 018.12-8.12h78.153a8.12 8.12 0 018.12 8.12v32.483a8.12 8.12 0 01-8.12 8.12h-78.152a8.12 8.12 0 01-8.121-8.12z" stroke="#073763" stroke-linecap="butt" stroke-linejoin="round" stroke-width="2"/><path d="M396.862 113.812v-12.406h5.5q1.656 0 2.515.344.875.328 1.39 1.172.516.844.516 1.875 0 1.312-.859 2.219-.86.906-2.64 1.156.656.312 1 .61.718.671 1.359 1.655l2.156 3.375h-2.062l-1.641-2.578q-.719-1.125-1.188-1.703-.468-.594-.843-.828-.36-.25-.735-.344-.281-.062-.922-.062h-1.906v5.515zm1.64-6.921h3.531q1.125 0 1.75-.235.641-.234.97-.75.343-.515.343-1.11 0-.89-.64-1.452-.641-.563-2.032-.563h-3.922zm16.81 4.03l1.563.188q-.359 1.39-1.375 2.157-1 .75-2.562.75-1.985 0-3.14-1.204-1.141-1.218-1.141-3.421 0-2.266 1.156-3.516 1.172-1.25 3.031-1.25 1.813 0 2.953 1.234 1.14 1.219 1.14 3.438 0 .14-.015.406h-6.703q.094 1.484.844 2.281.75.782 1.875.782.844 0 1.437-.438.594-.437.938-1.406zm-5-2.468h5.016q-.109-1.125-.578-1.703-.734-.875-1.89-.875-1.047 0-1.766.703-.703.703-.781 1.875zm14.341 2.063l1.5.203q-.234 1.547-1.25 2.422-1.016.875-2.484.875-1.844 0-2.969-1.204-1.125-1.203-1.125-3.453 0-1.468.484-2.547.485-1.093 1.47-1.64.983-.547 2.14-.547 1.468 0 2.39.75.938.734 1.203 2.094l-1.484.218q-.203-.89-.75-1.343-.531-.47-1.297-.47-1.14 0-1.875.829-.719.828-.719 2.61 0 1.812.688 2.64.703.813 1.828.813.89 0 1.484-.547.61-.563.766-1.703zm6.133 1.937l.219 1.344q-.641.14-1.157.14-.828 0-1.28-.265-.454-.266-.641-.688-.188-.437-.188-1.797v-5.171h-1.125v-1.188h1.125v-2.219l1.516-.922v3.141h1.53v1.188h-1.53v5.25q0 .656.078.843.078.188.25.297.187.11.531.11.25 0 .672-.063zm1.502-9.297v-1.75h1.515v1.75zm0 10.656v-8.984h1.515v8.984zm4.193 0v-7.796h-1.344v-1.188h1.344v-.953q0-.906.172-1.344.219-.594.766-.953.562-.375 1.562-.375.64 0 1.422.14l-.234 1.329q-.469-.078-.89-.078-.704 0-1 .297-.282.296-.282 1.109v.828h1.75v1.188h-1.75v7.796zm4.393 3.454l-.172-1.422q.5.14.875.14.5 0 .797-.172.312-.171.515-.484.14-.219.453-1.125l.141-.375-3.406-9h1.64l1.875 5.203q.36.985.641 2.078.266-1.047.625-2.047l1.922-5.234h1.531l-3.422 9.14q-.547 1.485-.86 2.032-.405.75-.937 1.094-.515.359-1.234.359-.453 0-.984-.187zm7.846-3.454v-1.734h1.734v1.734q0 .954-.343 1.532-.344.593-1.078.922l-.422-.657q.484-.203.703-.625.234-.406.265-1.172zM397.785 132.125l1.515-.234q.125.906.703 1.39.579.485 1.61.485 1.062 0 1.562-.422.516-.438.516-1.016 0-.516-.453-.812-.313-.204-1.563-.516-1.672-.422-2.328-.719-.64-.312-.984-.86-.328-.546-.328-1.202 0-.61.28-1.11.282-.515.75-.86.36-.265.97-.437.609-.187 1.312-.187 1.063 0 1.86.312.796.297 1.171.829.391.515.532 1.375l-1.485.203q-.11-.688-.593-1.078-.485-.391-1.375-.391-1.047 0-1.5.344-.438.343-.438.812 0 .297.172.531.187.25.594.407.218.093 1.343.39 1.61.438 2.25.719.641.266 1 .797.375.516.375 1.297 0 .765-.453 1.437-.437.672-1.281 1.047-.828.36-1.89.36-1.75 0-2.672-.72-.922-.734-1.172-2.171zm15.007 6.125v-4.39q-.359.5-1 .827-.64.329-1.359.329-1.594 0-2.75-1.282-1.156-1.281-1.156-3.5 0-1.36.469-2.422.468-1.078 1.359-1.625.89-.562 1.969-.562 1.656 0 2.61 1.406v-1.203h1.374v12.422h-1.516zm-4.703-7.953q0 1.734.72 2.61.733.859 1.75.859.983 0 1.671-.829.703-.828.703-2.5 0-1.796-.734-2.703-.735-.906-1.735-.906t-1.687.844q-.688.844-.688 2.625zm14.497 4.515V133.5q-1.047 1.516-2.844 1.516-.797 0-1.5-.297-.687-.313-1.016-.766-.328-.469-.468-1.14-.094-.438-.094-1.422v-5.563h1.516v4.984q0 1.188.093 1.61.157.594.61.937.468.344 1.156.344.687 0 1.281-.344.61-.36.86-.953.25-.61.25-1.765v-4.813h1.515v8.984h-1.36zm9.606-1.109q-.844.719-1.625 1.016-.782.297-1.672.297-1.485 0-2.281-.72-.797-.734-.797-1.859 0-.656.297-1.203.312-.547.796-.875.485-.328 1.094-.5.438-.11 1.344-.218 1.844-.22 2.719-.532.015-.312.015-.39 0-.938-.437-1.313-.578-.515-1.735-.515-1.078 0-1.593.375-.5.375-.75 1.328l-1.485-.203q.203-.954.657-1.532.468-.593 1.343-.906.89-.328 2.047-.328 1.156 0 1.875.281.719.266 1.047.672.344.406.484 1.031.079.39.079 1.407v2.03q0 2.126.093 2.688.094.563.39 1.078h-1.593q-.234-.468-.312-1.109zm-.125-3.406q-.828.344-2.485.578-.937.14-1.328.312-.39.172-.61.5-.202.313-.202.72 0 .609.453 1.015.469.406 1.36.406.874 0 1.562-.39.687-.391 1.015-1.047.235-.516.235-1.532zm3.887 4.515v-8.984h1.375v1.36q.515-.954.953-1.25.453-.313.984-.313.781 0 1.563.484l-.516 1.422q-.562-.328-1.125-.328-.5 0-.89.297-.391.297-.563.828-.266.813-.266 1.781v4.703h-1.515zm11.942-2.89l1.563.187q-.36 1.39-1.375 2.157-1 .75-2.563.75-1.984 0-3.14-1.204-1.141-1.218-1.141-3.421 0-2.266 1.156-3.516 1.172-1.25 3.031-1.25 1.813 0 2.953 1.234 1.141 1.219 1.141 3.438 0 .14-.016.406h-6.703q.094 1.484.844 2.281.75.782 1.875.782.844 0 1.438-.438.593-.437.937-1.406zm-5-2.469h5.016q-.11-1.125-.578-1.703-.735-.875-1.891-.875-1.047 0-1.766.703-.703.703-.781 1.875z" fill="#000"/><path d="M168.845 104.612v27.118"/><path d="M168.845 104.612v21.118" stroke="#000" stroke-linecap="butt" stroke-linejoin="round"/><path d="M167.193 125.73l1.652 4.538 1.652-4.538z" fill="#000" fill-rule="evenodd" stroke="#000" stroke-linecap="butt"/><path d="M168.845 180.447v27.118"/><path d="M168.845 180.447v21.118" stroke="#000" stroke-linecap="butt" stroke-linejoin="round"/><path d="M167.193 201.565l1.652 4.538 1.652-4.538z" fill="#000" fill-rule="evenodd" stroke="#000" stroke-linecap="butt"/><path d="M168.845 104.612v13.574h67.59"/><path d="M168.845 104.612v13.574h61.59" stroke="#000" stroke-linecap="butt" stroke-linejoin="round"/><path d="M230.436 119.838l4.538-1.652-4.538-1.651z" fill="#000" fill-rule="evenodd" stroke="#000" stroke-linecap="butt"/><path d="M236.43 181.04a6.494 6.494 0 016.494-6.493h75.328a6.494 6.494 0 016.493 6.493v25.974a6.494 6.494 0 01-6.493 6.493h-75.328a6.494 6.494 0 01-6.494-6.493z" fill="#f6b26b" fill-rule="evenodd"/><path d="M236.43 181.04a6.494 6.494 0 016.494-6.493h75.328a6.494 6.494 0 016.493 6.493v25.974a6.494 6.494 0 01-6.493 6.493h-75.328a6.494 6.494 0 01-6.494-6.493z" stroke="#783f04" stroke-linecap="butt" stroke-linejoin="round" stroke-width="2"/><path d="M254.706 203.807q-1.25-1.578-2.125-3.703-.875-2.14-.875-4.437 0-2 .657-3.844.765-2.14 2.343-4.266h1.094q-1.016 1.75-1.344 2.5-.515 1.172-.812 2.438-.375 1.594-.375 3.187 0 4.063 2.531 8.125zm8.177-3.64h-1.516v-9.703q-.562.515-1.453 1.047-.89.53-1.594.78v-1.468q1.282-.594 2.235-1.453.953-.86 1.344-1.656h.984zm17.155-5.406h-8.188v-1.422h8.188zm6.12 5.406v-1.235l5.72-6.562q-.985.047-1.72.047h-3.671v-1.235h7.344v1l-4.86 5.704-.937 1.046q1.015-.078 1.922-.078h4.156v1.313zM294.838 191.182v-1.015h3.125v1.015zm7.783 2.485h-1.016v-6.469q-.359.344-.953.703-.593.344-1.078.516v-.969q.86-.406 1.5-.969.64-.578.89-1.109h.657zM306.887 203.807h-1.094q2.531-4.062 2.531-8.125 0-1.593-.36-3.156-.296-1.265-.812-2.437-.328-.766-1.36-2.532h1.095q1.593 2.125 2.359 4.266.64 1.844.64 3.844 0 2.297-.874 4.437-.875 2.125-2.125 3.703z" fill="#000"/><path d="M168.845 180.447v13.575h67.59"/><path d="M168.845 180.447v13.575h61.59" stroke="#000" stroke-linecap="butt" stroke-linejoin="round"/><path d="M230.436 195.674l4.538-1.652-4.538-1.652z" fill="#000" fill-rule="evenodd" stroke="#000" stroke-linecap="butt"/><path d="M497.615 101.927a8.12 8.12 0 018.121-8.121h47.16a8.12 8.12 0 018.12 8.12v32.483a8.12 8.12 0 01-8.12 8.121h-47.16a8.12 8.12 0 01-8.12-8.12z" fill="#9fc5e8" fill-rule="evenodd"/><path d="M497.615 101.927a8.12 8.12 0 018.121-8.121h47.16a8.12 8.12 0 018.12 8.12v32.483a8.12 8.12 0 01-8.12 8.121h-47.16a8.12 8.12 0 01-8.12-8.12z" stroke="#073763" stroke-linecap="butt" stroke-linejoin="round" stroke-width="2"/><path d="M514.692 124.308v-12.406h1.64v10.937h6.11v1.469zm9.715 0v-12.406h4.672q1.234 0 1.89.125.907.14 1.516.578.625.422 1 1.203.39.766.39 1.687 0 1.579-1.015 2.672-1 1.094-3.64 1.094h-3.172v5.047zm1.64-6.5h3.204q1.594 0 2.25-.594.672-.594.672-1.672 0-.78-.39-1.328-.391-.562-1.032-.734-.422-.11-1.531-.11h-3.172zm9.996 6.5v-12.406h8.375v1.468h-6.734v3.844h5.828v1.453h-5.828v5.641z" fill="#000"/><path d="M470.942 118.172h26.677"/><path d="M470.942 118.172h20.677" stroke="#000" stroke-linecap="butt" stroke-linejoin="round"/><path d="M491.619 119.824l4.538-1.652-4.538-1.651z" fill="#000" fill-rule="evenodd" stroke="#000" stroke-linecap="butt"/><path d="M142.955 359.228h51.748v38.96h-51.748z"/><path d="M168.142 379.616q-.563-.578-.563-1.344 0-.765.563-1.344.578-.562 1.344-.562.765 0 1.343.562.563.579.563 1.344 0 .766-.563 1.344-.578.562-1.343.562-.766 0-1.344-.562zm0-5.875q-.563-.578-.563-1.344 0-.765.563-1.344.578-.562 1.344-.562.765 0 1.343.562.563.579.563 1.344 0 .766-.563 1.344-.578.562-1.343.562-.766 0-1.344-.562zm0 11.75q-.563-.578-.563-1.344 0-.765.563-1.344.578-.562 1.344-.562.765 0 1.343.562.563.579.563 1.344 0 .766-.563 1.344-.578.562-1.343.562-.766 0-1.344-.562z" fill="#000"/><path d="M124.688 291.515a8.12 8.12 0 018.12-8.121h72.074a8.12 8.12 0 018.12 8.12v32.483a8.12 8.12 0 01-8.12 8.121h-72.073a8.12 8.12 0 01-8.121-8.12z" fill="#f6b26b" fill-rule="evenodd"/><path d="M124.688 291.515a8.12 8.12 0 018.12-8.121h72.074a8.12 8.12 0 018.12 8.12v32.483a8.12 8.12 0 01-8.12 8.121h-72.073a8.12 8.12 0 01-8.121-8.12z" stroke="#783f04" stroke-linecap="butt" stroke-linejoin="round" stroke-width="2"/><path d="M143.133 313.896V301.49h4.656q1.422 0 2.281.375.86.375 1.344 1.172.484.78.484 1.625 0 .796-.437 1.5-.422.703-1.297 1.14 1.125.328 1.734 1.125.61.797.61 1.875 0 .875-.375 1.625-.36.735-.906 1.14-.547.407-1.36.626-.812.203-2 .203zm1.64-7.188h2.688q1.094 0 1.562-.14.625-.188.938-.625.328-.438.328-1.078 0-.625-.297-1.094-.297-.469-.86-.64-.546-.173-1.874-.173h-2.485zm0 5.72h3.094q.797 0 1.11-.048.578-.11.953-.343.375-.235.625-.688.25-.453.25-1.047 0-.703-.36-1.203-.359-.516-.984-.719-.625-.218-1.813-.218h-2.875zm9.808-9.188v-1.75h1.516v1.75zm0 10.656v-8.984h1.516v8.984zm9.569 3.437v-4.39q-.36.5-1 .828-.64.328-1.36.328-1.593 0-2.75-1.281-1.156-1.281-1.156-3.5 0-1.36.469-2.422.469-1.078 1.36-1.625.89-.563 1.968-.563 1.656 0 2.61 1.407v-1.203h1.374v12.421zm-4.703-7.953q0 1.735.718 2.61.735.859 1.75.859.985 0 1.672-.828.703-.828.703-2.5 0-1.797-.734-2.703-.734-.906-1.734-.906t-1.688.843q-.687.844-.687 2.625zm14.496 4.516v-1.313q-1.047 1.516-2.844 1.516-.797 0-1.5-.297-.687-.312-1.015-.765-.328-.47-.47-1.141-.093-.438-.093-1.422v-5.562h1.516v4.984q0 1.187.094 1.61.156.593.609.937.469.344 1.156.344.688 0 1.281-.344.61-.36.86-.953.25-.61.25-1.766v-4.812h1.515v8.984zm9.606-1.11q-.844.72-1.625 1.016-.781.297-1.672.297-1.484 0-2.281-.719-.797-.734-.797-1.86 0-.655.297-1.202.312-.547.797-.875.484-.328 1.093-.5.438-.11 1.344-.219 1.844-.219 2.719-.531.016-.313.016-.39 0-.938-.438-1.313-.578-.516-1.734-.516-1.078 0-1.594.375-.5.375-.75 1.328l-1.484-.203q.203-.953.656-1.531.469-.594 1.344-.906.89-.329 2.046-.329 1.157 0 1.875.282.72.265 1.047.672.344.406.485 1.03.078.391.078 1.407v2.031q0 2.125.094 2.688.093.562.39 1.078h-1.594q-.234-.469-.312-1.11zm-.125-3.406q-.828.344-2.484.578-.938.141-1.329.313-.39.172-.609.5-.203.312-.203.719 0 .609.453 1.015.469.407 1.36.407.874 0 1.562-.391.687-.39 1.016-1.047.234-.516.234-1.531zm9.73 4.516v-1.14q-.843 1.343-2.515 1.343-1.062 0-1.969-.594-.906-.593-1.406-1.656-.484-1.062-.484-2.437 0-1.344.437-2.438.453-1.094 1.344-1.672.906-.594 2.016-.594.812 0 1.437.344.64.344 1.047.89v-4.452h1.516v12.406zm-4.812-4.484q0 1.718.719 2.578.734.859 1.734.859.985 0 1.688-.812.703-.829.703-2.5 0-1.844-.719-2.704-.703-.859-1.75-.859-1.015 0-1.703.828-.672.828-.672 2.61z" fill="#000"/><path d="M168.845 256.283V283.4"/><path d="M168.845 256.283V277.4" stroke="#000" stroke-linecap="butt" stroke-linejoin="round"/><path d="M167.193 277.4l1.652 4.539 1.652-4.538z" fill="#000" fill-rule="evenodd" stroke="#000" stroke-linecap="butt"/><path d="M236.43 256.877a6.494 6.494 0 016.494-6.494h75.328a6.494 6.494 0 016.493 6.494v25.973a6.494 6.494 0 01-6.493 6.494h-75.328a6.494 6.494 0 01-6.494-6.494z" fill="#f6b26b" fill-rule="evenodd"/><path d="M236.43 256.877a6.494 6.494 0 016.494-6.494h75.328a6.494 6.494 0 016.493 6.494v25.973a6.494 6.494 0 01-6.493 6.494h-75.328a6.494 6.494 0 01-6.494-6.494z" stroke="#783f04" stroke-linecap="butt" stroke-linejoin="round" stroke-width="2"/><path d="M254.706 279.644q-1.25-1.578-2.125-3.703-.875-2.14-.875-4.437 0-2 .657-3.844.765-2.14 2.343-4.266h1.094q-1.016 1.75-1.344 2.5-.515 1.172-.812 2.438-.375 1.593-.375 3.187 0 4.063 2.531 8.125zm8.177-3.64h-1.516V266.3q-.562.516-1.453 1.047-.89.532-1.594.782v-1.47q1.282-.593 2.235-1.452.953-.86 1.344-1.657h.984zm17.155-5.407h-8.188v-1.422h8.188zm6.12 5.407v-1.235l5.72-6.562q-.985.047-1.72.047h-3.671v-1.235h7.344v1l-4.86 5.703-.937 1.047q1.015-.078 1.922-.078h4.156v1.313zM294.838 267.02v-1.016h3.125v1.015zm7.783 2.484h-1.016v-6.47q-.359.345-.953.704-.593.344-1.078.516v-.97q.86-.405 1.5-.968.64-.578.89-1.11h.657zM306.887 279.644h-1.094q2.531-4.062 2.531-8.125 0-1.594-.36-3.156-.296-1.266-.812-2.438-.328-.765-1.36-2.53h1.095q1.593 2.124 2.359 4.265.64 1.844.64 3.844 0 2.296-.874 4.437-.875 2.125-2.125 3.703z" fill="#000"/><path d="M168.845 256.283v13.574h67.59"/><path d="M168.845 256.283v13.574h61.59" stroke="#000" stroke-linecap="butt" stroke-linejoin="round"/><path d="M230.436 271.51l4.538-1.653-4.538-1.651z" fill="#000" fill-rule="evenodd" stroke="#000" stroke-linecap="butt"/><path d="M168.845 332.118v27.118"/><path d="M168.845 332.118v21.118" stroke="#000" stroke-linecap="butt" stroke-linejoin="round"/><path d="M167.193 353.236l1.652 4.538 1.652-4.538z" fill="#000" fill-rule="evenodd" stroke="#000" stroke-linecap="butt"/><path d="M587.695 101.956a8.12 8.12 0 018.12-8.121h56.924a8.121 8.121 0 018.121 8.12v32.483a8.12 8.12 0 01-8.12 8.121h-56.924a8.12 8.12 0 01-8.121-8.12z" fill="#93c47d" fill-rule="evenodd"/><path d="M587.695 101.956a8.12 8.12 0 018.12-8.121h56.924a8.121 8.121 0 018.121 8.12v32.483a8.12 8.12 0 01-8.12 8.121h-56.924a8.12 8.12 0 01-8.121-8.12z" stroke="#274e13" stroke-linecap="butt" stroke-linejoin="round" stroke-width="2"/><path d="M601.55 124.337V111.93h4.672q1.234 0 1.89.125.906.14 1.516.578.625.422 1 1.203.39.765.39 1.687 0 1.578-1.015 2.672-1 1.094-3.64 1.094h-3.173v5.047zm1.64-6.5h3.203q1.594 0 2.25-.594.672-.594.672-1.672 0-.781-.39-1.328-.39-.562-1.032-.734-.421-.11-1.53-.11h-3.173zm18.761 2.156l1.64.406q-.515 2.032-1.859 3.094-1.343 1.063-3.28 1.063-2 0-3.266-.813-1.25-.828-1.907-2.375-.656-1.547-.656-3.328 0-1.938.734-3.375.75-1.453 2.11-2.188 1.375-.75 3.015-.75 1.86 0 3.125.954 1.282.937 1.766 2.656l-1.61.375q-.437-1.344-1.265-1.953-.812-.625-2.047-.625-1.437 0-2.406.687-.953.672-1.344 1.828-.375 1.157-.375 2.391 0 1.578.453 2.766.47 1.171 1.438 1.765.969.578 2.11.578 1.374 0 2.327-.797.953-.796 1.297-2.359zm3.702 4.344V111.93h8.968v1.468h-7.328v3.797h6.86v1.453h-6.86v4.22h7.61v1.468zm11.495 0V111.93h1.687l6.516 9.734v-9.734h1.578v12.406h-1.687l-6.516-9.75v9.75z" fill="#000"/><path d="M561.017 118.168l26.677.031"/><path d="M561.017 118.168l20.677.024" stroke="#000" stroke-linecap="butt" stroke-linejoin="round"/><path d="M581.692 119.844l4.54-1.646-4.536-1.657z" fill="#000" fill-rule="evenodd" stroke="#000" stroke-linecap="butt"/><path d="M697.57 96.45h178.646v43.496H697.571z"/><path d="M714.664 120.853l1.719.22q-.281 1.796-1.453 2.812-1.156 1-2.86 1-2.125 0-3.421-1.391-1.297-1.39-1.297-3.984 0-1.688.547-2.938.562-1.266 1.703-1.89 1.14-.641 2.484-.641 1.688 0 2.75.86 1.078.859 1.39 2.421l-1.718.266q-.234-1.047-.86-1.563-.624-.531-1.5-.531-1.327 0-2.156.953-.828.953-.828 3 0 2.094.797 3.047.797.937 2.094.937 1.031 0 1.719-.625.703-.64.89-1.953zm3.219 3.797v-14.312h1.766v5.125q1.234-1.422 3.109-1.422 1.14 0 1.984.453.86.453 1.22 1.266.374.796.374 2.312v6.578h-1.75v-6.578q0-1.312-.578-1.906-.578-.61-1.61-.61-.78 0-1.484.407-.687.406-.984 1.11-.281.687-.281 1.905v5.672zm17.904-1.281q-.984.828-1.89 1.172-.907.344-1.938.344-1.703 0-2.625-.829-.922-.843-.922-2.14 0-.766.344-1.39.36-.626.922-1 .562-.391 1.266-.595.515-.125 1.562-.265 2.125-.25 3.125-.594.016-.36.016-.469 0-1.062-.5-1.515-.672-.594-2-.594-1.25 0-1.844.437-.578.438-.86 1.547l-1.718-.234q.234-1.11.765-1.781.532-.688 1.547-1.047 1.016-.375 2.36-.375 1.328 0 2.156.312.828.313 1.219.797.39.469.547 1.188.093.453.093 1.625v2.343q0 2.454.11 3.11.109.64.453 1.234h-1.844q-.266-.547-.344-1.281zm-.156-3.922q-.953.39-2.875.656-1.078.157-1.531.36-.438.187-.688.562-.25.375-.25.844 0 .703.532 1.172.53.469 1.562.469 1.016 0 1.797-.438.797-.453 1.172-1.219.281-.609.281-1.765zm4.498 5.203v-10.375h1.594v1.485q1.14-1.72 3.297-1.72.937 0 1.718.345.797.328 1.188.875.39.546.547 1.296.094.5.094 1.72v6.374H746.8v-6.312q0-1.078-.203-1.61-.203-.53-.735-.843-.515-.313-1.218-.313-1.125 0-1.938.719-.812.703-.812 2.687v5.672zm11.123 0v-10.375h1.594v1.485q1.14-1.72 3.297-1.72.937 0 1.719.345.796.328 1.187.875.39.546.547 1.296.094.5.094 1.72v6.374h-1.766v-6.312q0-1.078-.203-1.61-.203-.53-.734-.843-.516-.313-1.22-.313-1.124 0-1.937.719-.812.703-.812 2.687v5.672zm18.233-3.344l1.812.235q-.422 1.578-1.594 2.469-1.156.875-2.968.875-2.266 0-3.61-1.391-1.328-1.406-1.328-3.938 0-2.625 1.344-4.062 1.344-1.453 3.5-1.453 2.078 0 3.39 1.422 1.329 1.406 1.329 3.984 0 .156-.016.469h-7.734q.093 1.703.968 2.61.875.905 2.172.905.969 0 1.64-.5.688-.515 1.095-1.625zm-5.782-2.843h5.797q-.11-1.297-.656-1.953-.844-1.016-2.188-1.016-1.203 0-2.03.812-.829.797-.923 2.157zm9.764 6.187v-14.312h1.75v14.312zm9.547-7.062q0-2.532.515-4.078.532-1.563 1.563-2.391 1.031-.844 2.594-.844 1.156 0 2.015.469.875.453 1.438 1.328.562.875.89 2.14.329 1.25.329 3.376 0 2.515-.532 4.062-.515 1.547-1.547 2.406-1.015.844-2.593.844-2.078 0-3.25-1.484-1.422-1.797-1.422-5.828zm1.812 0q0 3.531.813 4.703.828 1.156 2.047 1.156 1.203 0 2.031-1.172.828-1.172.828-4.687 0-3.532-.828-4.688-.828-1.172-2.047-1.172-1.219 0-1.937 1.032-.907 1.296-.907 4.828zM711.242 152.853q-1.453-1.828-2.453-4.28-1-2.47-1-5.11 0-2.328.75-4.453.875-2.47 2.703-4.922h1.266q-1.187 2.03-1.562 2.906-.594 1.344-.938 2.812-.422 1.829-.422 3.672 0 4.688 2.922 9.375zm2.942-16.64v-1.688h9.265v1.36q-1.375 1.453-2.718 3.875-1.344 2.406-2.063 4.953-.531 1.797-.687 3.937h-1.797q.031-1.687.656-4.078.64-2.39 1.828-4.61 1.188-2.234 2.516-3.75zm10.998 5.375q0-2.532.515-4.078.532-1.563 1.563-2.391 1.031-.844 2.594-.844 1.156 0 2.015.469.875.453 1.438 1.328.562.875.89 2.14.329 1.25.329 3.376 0 2.515-.532 4.062-.515 1.547-1.547 2.406-1.015.844-2.593.844-2.078 0-3.25-1.484-1.422-1.797-1.422-5.828zm1.812 0q0 3.53.813 4.703.828 1.156 2.047 1.156 1.203 0 2.031-1.172.828-1.172.828-4.687 0-3.532-.828-4.688-.828-1.172-2.047-1.172-1.219 0-1.937 1.032-.907 1.296-.907 4.828zm9.31 0q0-2.532.517-4.078.53-1.563 1.562-2.391 1.031-.844 2.594-.844 1.156 0 2.015.469.875.453 1.438 1.328.562.875.89 2.14.329 1.25.329 3.376 0 2.515-.532 4.062-.515 1.547-1.546 2.406-1.016.844-2.594.844-2.078 0-3.25-1.484-1.422-1.797-1.422-5.828zm1.813 0q0 3.53.813 4.703.828 1.156 2.047 1.156 1.203 0 2.031-1.172.828-1.172.828-4.687 0-3.532-.828-4.688-.828-1.172-2.047-1.172-1.219 0-1.937 1.032-.907 1.296-.907 4.828zm9.31 0q0-2.532.517-4.078.53-1.563 1.562-2.391 1.031-.844 2.594-.844 1.156 0 2.015.469.875.453 1.438 1.328.562.875.89 2.14.329 1.25.329 3.376 0 2.515-.532 4.062-.515 1.547-1.546 2.406-1.016.844-2.594.844-2.078 0-3.25-1.484-1.422-1.797-1.422-5.828zm1.813 0q0 3.53.813 4.703.828 1.156 2.047 1.156 1.203 0 2.031-1.172.828-1.172.828-4.687 0-3.532-.828-4.688-.828-1.172-2.047-1.172-1.219 0-1.937 1.032-.907 1.296-.907 4.828zm15.649 7.062v-14.312h1.89v5.875h7.438v-5.875h1.89v14.312h-1.89v-6.75h-7.437v6.75zm13.224 0v-1.422l6.61-7.578q-1.125.047-1.985.047h-4.234v-1.422h8.484v1.172l-5.625 6.578-1.078 1.203q1.172-.093 2.22-.093h4.796v1.515zm12.079 4.203h-1.25q2.906-4.687 2.906-9.375 0-1.843-.406-3.64-.344-1.47-.938-2.813-.375-.89-1.562-2.937h1.25q1.843 2.453 2.718 4.922.75 2.125.75 4.453 0 2.64-1.015 5.11-1 2.452-2.453 4.28z" fill="#000"/><path d="M660.86 118.197h36.725"/><path d="M660.86 118.197h30.725" stroke="#000" stroke-linecap="butt" stroke-linejoin="round"/><path d="M691.585 119.849l4.538-1.652-4.538-1.652z" fill="#000" fill-rule="evenodd" stroke="#000" stroke-linecap="butt"/><path d="M324.745 118.189l51.811-.032"/><path d="M324.745 118.189l45.811-.028" stroke="#000" stroke-linecap="butt" stroke-linejoin="round"/><path d="M370.557 119.813l4.538-1.655-4.54-1.649z" fill="#000" fill-rule="evenodd" stroke="#000" stroke-linecap="butt"/><path d="M376.548 177.769a8.12 8.12 0 018.12-8.12h78.153a8.12 8.12 0 018.12 8.12v32.483a8.12 8.12 0 01-8.12 8.12h-78.152a8.12 8.12 0 01-8.121-8.12z" fill="#9fc5e8" fill-rule="evenodd"/><path d="M376.548 177.769a8.12 8.12 0 018.12-8.12h78.153a8.12 8.12 0 018.12 8.12v32.483a8.12 8.12 0 01-8.12 8.12h-78.152a8.12 8.12 0 01-8.121-8.12z" stroke="#073763" stroke-linecap="butt" stroke-linejoin="round" stroke-width="2"/><path d="M396.862 189.65v-12.406h5.5q1.656 0 2.515.344.875.328 1.39 1.172.516.843.516 1.875 0 1.312-.859 2.218-.86.907-2.64 1.157.656.312 1 .61.718.671 1.359 1.655l2.156 3.375h-2.062l-1.641-2.578q-.719-1.125-1.188-1.703-.468-.594-.843-.828-.36-.25-.735-.344-.281-.062-.922-.062h-1.906v5.515zm1.64-6.922h3.531q1.125 0 1.75-.234.641-.234.97-.75.343-.516.343-1.11 0-.89-.64-1.452-.641-.563-2.032-.563h-3.922zm16.81 4.032l1.563.187q-.359 1.39-1.375 2.156-1 .75-2.562.75-1.985 0-3.14-1.203-1.141-1.218-1.141-3.422 0-2.265 1.156-3.515 1.172-1.25 3.031-1.25 1.813 0 2.953 1.234 1.14 1.219 1.14 3.438 0 .14-.015.406h-6.703q.094 1.484.844 2.281.75.781 1.875.781.844 0 1.437-.437.594-.438.938-1.406zm-5-2.469h5.016q-.109-1.125-.578-1.703-.734-.875-1.89-.875-1.047 0-1.766.703-.703.703-.781 1.875zm14.341 2.062l1.5.204q-.234 1.546-1.25 2.421-1.016.875-2.484.875-1.844 0-2.969-1.203-1.125-1.203-1.125-3.453 0-1.469.484-2.547.485-1.093 1.47-1.64.983-.547 2.14-.547 1.468 0 2.39.75.938.734 1.203 2.094l-1.484.218q-.203-.89-.75-1.343-.531-.47-1.297-.47-1.14 0-1.875.829-.719.828-.719 2.61 0 1.812.688 2.64.703.812 1.828.812.89 0 1.484-.546.61-.563.766-1.704zm6.133 1.938l.219 1.344q-.641.14-1.157.14-.828 0-1.28-.265-.454-.266-.641-.688-.188-.437-.188-1.797v-5.172h-1.125v-1.187h1.125v-2.219l1.516-.922v3.141h1.53v1.187h-1.53v5.25q0 .657.078.844.078.188.25.297.187.11.531.11.25 0 .672-.063zm1.502-9.297v-1.75h1.515v1.75zm0 10.656v-8.984h1.515v8.984zm4.193 0v-7.797h-1.344v-1.187h1.344v-.953q0-.906.172-1.344.219-.594.766-.953.562-.375 1.562-.375.64 0 1.422.14l-.234 1.329q-.469-.078-.89-.078-.704 0-1 .296-.282.297-.282 1.11v.828h1.75v1.187h-1.75v7.797zm4.393 3.453l-.172-1.421q.5.14.875.14.5 0 .797-.172.312-.172.515-.484.14-.219.453-1.125l.141-.375-3.406-9h1.64l1.875 5.203q.36.984.641 2.078.266-1.047.625-2.047l1.922-5.234h1.531l-3.422 9.14q-.547 1.485-.86 2.032-.405.75-.937 1.094-.515.359-1.234.359-.453 0-.984-.188zm7.846-3.453v-1.734h1.734v1.734q0 .953-.343 1.532-.344.593-1.078.921l-.422-.656q.484-.203.703-.625.234-.406.265-1.172zM397.785 207.963l1.515-.235q.125.907.703 1.391.579.484 1.61.484 1.062 0 1.562-.421.516-.438.516-1.016 0-.516-.453-.813-.313-.203-1.563-.515-1.672-.422-2.328-.719-.64-.312-.984-.86-.328-.546-.328-1.202 0-.61.28-1.11.282-.515.75-.86.36-.265.97-.437.609-.187 1.312-.187 1.063 0 1.86.312.796.297 1.171.828.391.516.532 1.375l-1.485.204q-.11-.688-.593-1.079-.485-.39-1.375-.39-1.047 0-1.5.344-.438.343-.438.812 0 .297.172.531.187.25.594.407.218.093 1.343.39 1.61.438 2.25.719.641.266 1 .797.375.515.375 1.297 0 .765-.453 1.437-.437.672-1.281 1.047-.828.36-1.89.36-1.75 0-2.672-.72-.922-.734-1.172-2.171zm15.007 6.125v-4.39q-.359.5-1 .827-.64.328-1.359.328-1.594 0-2.75-1.28-1.156-1.282-1.156-3.5 0-1.36.469-2.423.468-1.078 1.359-1.625.89-.562 1.969-.562 1.656 0 2.61 1.406v-1.203h1.374v12.422zm-4.703-7.953q0 1.734.72 2.61.733.858 1.75.858.983 0 1.671-.828.703-.828.703-2.5 0-1.797-.734-2.703-.735-.906-1.735-.906t-1.687.844q-.688.843-.688 2.625zm14.497 4.515v-1.312q-1.047 1.515-2.844 1.515-.797 0-1.5-.296-.687-.313-1.016-.766-.328-.469-.468-1.14-.094-.438-.094-1.423v-5.562h1.516v4.984q0 1.188.093 1.61.157.593.61.937.468.344 1.156.344.687 0 1.281-.344.61-.36.86-.953.25-.61.25-1.766v-4.812h1.515v8.984zm9.606-1.109q-.844.719-1.625 1.016-.782.296-1.672.296-1.485 0-2.281-.718-.797-.735-.797-1.86 0-.656.297-1.203.312-.547.796-.875.485-.328 1.094-.5.438-.11 1.344-.219 1.844-.218 2.719-.53.015-.313.015-.391 0-.938-.437-1.313-.578-.516-1.735-.516-1.078 0-1.593.375-.5.375-.75 1.329l-1.485-.204q.203-.953.657-1.53.468-.595 1.343-.907.89-.328 2.047-.328 1.156 0 1.875.281.719.266 1.047.672.344.406.484 1.031.079.39.079 1.406v2.032q0 2.125.093 2.687.094.563.39 1.078h-1.593q-.234-.468-.312-1.109zm-.125-3.406q-.828.343-2.485.578-.937.14-1.328.312-.39.172-.61.5-.202.313-.202.72 0 .608.453 1.015.469.406 1.36.406.874 0 1.562-.39.687-.391 1.015-1.048.235-.515.235-1.53zm3.887 4.515v-8.984h1.375v1.36q.515-.954.953-1.25.453-.313.984-.313.781 0 1.563.484l-.516 1.422q-.562-.328-1.125-.328-.5 0-.89.297-.391.297-.563.828-.266.812-.266 1.781v4.703zm11.942-2.89l1.563.187q-.36 1.39-1.375 2.156-1 .75-2.563.75-1.984 0-3.14-1.203-1.141-1.218-1.141-3.422 0-2.265 1.156-3.515 1.172-1.25 3.031-1.25 1.813 0 2.953 1.234 1.141 1.219 1.141 3.438 0 .14-.016.406h-6.703q.094 1.484.844 2.281.75.781 1.875.781.844 0 1.438-.437.593-.438.937-1.406zm-5-2.469h5.016q-.11-1.125-.578-1.703-.735-.875-1.891-.875-1.047 0-1.766.703-.703.703-.781 1.875z" fill="#000"/><path d="M497.615 177.764a8.12 8.12 0 018.121-8.12h47.16a8.12 8.12 0 018.12 8.12v32.483a8.12 8.12 0 01-8.12 8.12h-47.16a8.12 8.12 0 01-8.12-8.12z" fill="#9fc5e8" fill-rule="evenodd"/><path d="M497.615 177.764a8.12 8.12 0 018.121-8.12h47.16a8.12 8.12 0 018.12 8.12v32.483a8.12 8.12 0 01-8.12 8.12h-47.16a8.12 8.12 0 01-8.12-8.12z" stroke="#073763" stroke-linecap="butt" stroke-linejoin="round" stroke-width="2"/><path d="M514.692 200.146v-12.407h1.64v10.938h6.11v1.469zm9.715 0v-12.407h4.672q1.234 0 1.89.125.907.141 1.516.579.625.421 1 1.203.39.765.39 1.687 0 1.578-1.015 2.672-1 1.094-3.64 1.094h-3.172v5.047zm1.64-6.5h3.204q1.594 0 2.25-.594.672-.594.672-1.672 0-.781-.39-1.328-.391-.563-1.032-.734-.422-.11-1.531-.11h-3.172zm9.996 6.5v-12.407h8.375v1.47h-6.734v3.843h5.828v1.453h-5.828v5.64z" fill="#000"/><path d="M470.942 194.01h26.677"/><path d="M470.942 194.01h20.677" stroke="#000" stroke-linecap="butt" stroke-linejoin="round"/><path d="M491.619 195.662l4.538-1.652-4.538-1.651z" fill="#000" fill-rule="evenodd" stroke="#000" stroke-linecap="butt"/><path d="M587.695 177.793a8.12 8.12 0 018.12-8.12h56.924a8.121 8.121 0 018.121 8.12v32.483a8.12 8.12 0 01-8.12 8.12h-56.924a8.12 8.12 0 01-8.121-8.12z" fill="#93c47d" fill-rule="evenodd"/><path d="M587.695 177.793a8.12 8.12 0 018.12-8.12h56.924a8.121 8.121 0 018.121 8.12v32.483a8.12 8.12 0 01-8.12 8.12h-56.924a8.12 8.12 0 01-8.121-8.12z" stroke="#274e13" stroke-linecap="butt" stroke-linejoin="round" stroke-width="2"/><path d="M601.55 200.174v-12.406h4.672q1.234 0 1.89.125.906.14 1.516.578.625.422 1 1.203.39.766.39 1.688 0 1.578-1.015 2.672-1 1.094-3.64 1.094h-3.173v5.046zm1.64-6.5h3.203q1.594 0 2.25-.593.672-.594.672-1.672 0-.781-.39-1.328-.39-.563-1.032-.735-.421-.11-1.53-.11h-3.173zm18.761 2.157l1.64.406q-.515 2.031-1.859 3.094-1.343 1.062-3.28 1.062-2 0-3.266-.812-1.25-.828-1.907-2.375-.656-1.547-.656-3.328 0-1.938.734-3.375.75-1.454 2.11-2.188 1.375-.75 3.015-.75 1.86 0 3.125.953 1.282.938 1.766 2.656l-1.61.375q-.437-1.343-1.265-1.953-.812-.625-2.047-.625-1.437 0-2.406.688-.953.672-1.344 1.828-.375 1.156-.375 2.39 0 1.579.453 2.766.47 1.172 1.438 1.766.969.578 2.11.578 1.374 0 2.327-.797.953-.797 1.297-2.36zm3.702 4.343v-12.406h8.968v1.469h-7.328v3.797h6.86v1.453h-6.86v4.219h7.61v1.468zm11.495 0v-12.406h1.687l6.516 9.735v-9.735h1.578v12.406h-1.687l-6.516-9.75v9.75z" fill="#000"/><path d="M561.017 194.006l26.677.031"/><path d="M561.017 194.006l20.677.024" stroke="#000" stroke-linecap="butt" stroke-linejoin="round"/><path d="M581.692 195.682l4.54-1.647-4.536-1.657z" fill="#000" fill-rule="evenodd" stroke="#000" stroke-linecap="butt"/><path d="M697.57 172.288h178.646v43.496H697.571z"/><path d="M714.664 196.691l1.719.219q-.281 1.797-1.453 2.813-1.156 1-2.86 1-2.125 0-3.421-1.391-1.297-1.39-1.297-3.984 0-1.688.547-2.938.562-1.266 1.703-1.89 1.14-.641 2.484-.641 1.688 0 2.75.86 1.078.858 1.39 2.421l-1.718.266q-.234-1.047-.86-1.563-.624-.531-1.5-.531-1.327 0-2.156.953-.828.953-.828 3 0 2.094.797 3.047.797.937 2.094.937 1.031 0 1.719-.625.703-.64.89-1.953zm3.219 3.797v-14.312h1.766v5.125q1.234-1.422 3.109-1.422 1.14 0 1.984.453.86.453 1.22 1.266.374.796.374 2.312v6.578h-1.75v-6.578q0-1.313-.578-1.906-.578-.61-1.61-.61-.78 0-1.484.407-.687.406-.984 1.109-.281.688-.281 1.906v5.672zm17.904-1.281q-.984.828-1.89 1.172-.907.344-1.938.344-1.703 0-2.625-.829-.922-.843-.922-2.14 0-.766.344-1.39.36-.626.922-1 .562-.392 1.266-.595.515-.125 1.562-.265 2.125-.25 3.125-.594.016-.36.016-.469 0-1.062-.5-1.515-.672-.594-2-.594-1.25 0-1.844.437-.578.438-.86 1.547l-1.718-.234q.234-1.11.765-1.781.532-.688 1.547-1.047 1.016-.375 2.36-.375 1.328 0 2.156.312.828.313 1.219.797.39.469.547 1.188.093.453.093 1.625v2.343q0 2.453.11 3.11.109.64.453 1.234h-1.844q-.266-.547-.344-1.281zm-.156-3.922q-.953.39-2.875.656-1.078.156-1.531.36-.438.187-.688.562-.25.375-.25.844 0 .703.532 1.172.53.469 1.562.469 1.016 0 1.797-.438.797-.453 1.172-1.219.281-.61.281-1.765zm4.498 5.203v-10.375h1.594v1.484q1.14-1.718 3.297-1.718.937 0 1.718.344.797.328 1.188.874.39.547.547 1.297.094.5.094 1.72v6.374H746.8v-6.312q0-1.078-.203-1.61-.203-.531-.735-.844-.515-.312-1.218-.312-1.125 0-1.938.719-.812.703-.812 2.687v5.672zm11.123 0v-10.375h1.594v1.484q1.14-1.718 3.297-1.718.937 0 1.719.344.796.328 1.187.874.39.547.547 1.297.094.5.094 1.72v6.374h-1.766v-6.312q0-1.078-.203-1.61-.203-.531-.734-.844-.516-.312-1.22-.312-1.124 0-1.937.719-.812.703-.812 2.687v5.672zm18.233-3.344l1.812.235q-.422 1.578-1.594 2.469-1.156.874-2.968.874-2.266 0-3.61-1.39-1.328-1.406-1.328-3.938 0-2.625 1.344-4.062 1.344-1.453 3.5-1.453 2.078 0 3.39 1.422 1.329 1.406 1.329 3.984 0 .156-.016.469h-7.734q.093 1.703.968 2.61.875.905 2.172.905.969 0 1.64-.5.688-.515 1.095-1.625zm-5.782-2.843h5.797q-.11-1.297-.656-1.953-.844-1.016-2.188-1.016-1.203 0-2.03.812-.829.797-.923 2.157zm9.764 6.187v-14.312h1.75v14.312zm16.172 0h-1.766v-11.203q-.625.61-1.656 1.219-1.031.594-1.86.906v-1.703q1.485-.688 2.579-1.672 1.11-1 1.562-1.922h1.14zM711.242 228.691q-1.453-1.828-2.453-4.281-1-2.469-1-5.11 0-2.328.75-4.453.875-2.468 2.703-4.921h1.266q-1.187 2.03-1.562 2.906-.594 1.344-.938 2.812-.422 1.828-.422 3.672 0 4.688 2.922 9.375zm11.942-15.015l-1.75.14q-.235-1.031-.656-1.5-.72-.765-1.766-.765-.844 0-1.469.468-.828.61-1.312 1.782-.485 1.156-.5 3.297.64-.954 1.547-1.422.921-.47 1.937-.47 1.75 0 2.984 1.298 1.235 1.281 1.235 3.328 0 1.36-.578 2.516t-1.594 1.78q-1.016.61-2.313.61-2.187 0-3.578-1.61-1.39-1.624-1.39-5.343 0-4.14 1.53-6.031 1.345-1.64 3.61-1.64 1.688 0 2.766.952 1.078.938 1.297 2.61zm-7.172 6.172q0 .906.375 1.734.39.828 1.078 1.266.703.437 1.453.437 1.125 0 1.922-.89.797-.907.797-2.454 0-1.484-.797-2.328-.781-.86-1.984-.86-1.188 0-2.016.86-.828.844-.828 2.234zm18.295-6.172l-1.75.14q-.235-1.031-.656-1.5-.72-.765-1.766-.765-.844 0-1.469.468-.828.61-1.312 1.782-.485 1.156-.5 3.297.64-.954 1.547-1.422.921-.47 1.937-.47 1.75 0 2.984 1.298 1.235 1.281 1.235 3.328 0 1.36-.578 2.516t-1.594 1.78q-1.016.61-2.313.61-2.187 0-3.578-1.61-1.39-1.624-1.39-5.343 0-4.14 1.531-6.031 1.344-1.64 3.61-1.64 1.687 0 2.765.952 1.078.938 1.297 2.61zm-7.172 6.172q0 .906.375 1.734.39.828 1.078 1.266.703.437 1.453.437 1.125 0 1.922-.89.797-.907.797-2.454 0-1.484-.797-2.328-.781-.86-1.984-.86-1.188 0-2.016.86-.828.844-.828 2.234zm15.795 4.64h-1.766v-11.203q-.625.61-1.656 1.219-1.031.594-1.86.906v-1.703q1.485-.688 2.579-1.672 1.11-1 1.562-1.922h1.14zm4.498-7.062q0-2.532.516-4.078.53-1.563 1.562-2.391 1.031-.844 2.594-.844 1.156 0 2.015.469.875.453 1.438 1.328.562.875.89 2.14.329 1.25.329 3.376 0 2.515-.532 4.062-.515 1.547-1.546 2.406-1.016.844-2.594.844-2.078 0-3.25-1.484-1.422-1.797-1.422-5.828zm1.812 0q0 3.53.813 4.703.828 1.156 2.047 1.156 1.203 0 2.031-1.172.828-1.172.828-4.687 0-3.532-.828-4.688-.828-1.172-2.047-1.172-1.219 0-1.937 1.031-.907 1.297-.907 4.829zm15.649 7.062v-14.312h1.89v5.875h7.438v-5.875h1.89v14.312h-1.89v-6.75h-7.437v6.75zm13.224 0v-1.422l6.61-7.578q-1.125.047-1.985.047h-4.234v-1.422h8.484v1.172l-5.625 6.578-1.078 1.203q1.172-.094 2.22-.094h4.796v1.516zm12.079 4.203h-1.25q2.906-4.687 2.906-9.375 0-1.844-.406-3.64-.344-1.47-.938-2.813-.375-.89-1.562-2.937h1.25q1.843 2.453 2.718 4.922.75 2.124.75 4.453 0 2.64-1.015 5.109-1 2.453-2.453 4.281z" fill="#000"/><path d="M660.86 194.034h36.725"/><path d="M660.86 194.034h30.725" stroke="#000" stroke-linecap="butt" stroke-linejoin="round"/><path d="M691.585 195.686l4.538-1.652-4.538-1.651z" fill="#000" fill-rule="evenodd" stroke="#000" stroke-linecap="butt"/><path d="M324.745 194.027l51.811-.032"/><path d="M324.745 194.027l45.811-.028" stroke="#000" stroke-linecap="butt" stroke-linejoin="round"/><path d="M370.557 195.65l4.538-1.654-4.54-1.649z" fill="#000" fill-rule="evenodd" stroke="#000" stroke-linecap="butt"/><path d="M376.539 253.612a8.12 8.12 0 018.12-8.121h78.152a8.12 8.12 0 018.121 8.12v32.483a8.12 8.12 0 01-8.12 8.121H384.66a8.12 8.12 0 01-8.121-8.12z" fill="#9fc5e8" fill-rule="evenodd"/><path d="M376.539 253.612a8.12 8.12 0 018.12-8.121h78.152a8.12 8.12 0 018.121 8.12v32.483a8.12 8.12 0 01-8.12 8.121H384.66a8.12 8.12 0 01-8.121-8.12z" stroke="#073763" stroke-linecap="butt" stroke-linejoin="round" stroke-width="2"/><path d="M396.852 265.493v-12.406h5.5q1.656 0 2.516.343.875.329 1.39 1.172.516.844.516 1.875 0 1.313-.86 2.22-.859.905-2.64 1.155.656.313 1 .61.719.672 1.36 1.656l2.156 3.375h-2.063l-1.64-2.578q-.72-1.125-1.188-1.703-.469-.594-.844-.828-.359-.25-.734-.344-.281-.063-.922-.063h-1.906v5.516h-1.64zm1.64-6.922h3.532q1.125 0 1.75-.234.64-.235.969-.75.344-.516.344-1.11 0-.89-.641-1.453-.64-.562-2.031-.562h-3.922zm16.812 4.031l1.562.188q-.36 1.39-1.375 2.156-1 .75-2.562.75-1.985 0-3.141-1.203-1.14-1.219-1.14-3.422 0-2.266 1.156-3.516 1.171-1.25 3.03-1.25 1.813 0 2.954 1.235 1.14 1.219 1.14 3.437 0 .141-.015.407h-6.703q.094 1.484.844 2.28.75.782 1.875.782.843 0 1.437-.437.594-.438.938-1.407zm-5-2.468h5.015q-.11-1.125-.578-1.704-.734-.875-1.89-.875-1.047 0-1.766.704-.703.703-.781 1.875zm14.34 2.062l1.5.203q-.235 1.547-1.25 2.422-1.016.875-2.485.875-1.843 0-2.968-1.203t-1.125-3.453q0-1.469.484-2.547.484-1.094 1.469-1.64.984-.548 2.14-.548 1.47 0 2.391.75.938.735 1.203 2.094l-1.484.219q-.203-.89-.75-1.344-.531-.469-1.297-.469-1.14 0-1.875.829-.719.828-.719 2.609 0 1.812.688 2.64.703.813 1.828.813.89 0 1.484-.547.61-.562.766-1.703zm6.133 1.938l.218 1.343q-.64.141-1.156.141-.828 0-1.281-.266-.453-.265-.64-.687-.188-.438-.188-1.797v-5.172h-1.125v-1.187h1.125v-2.22l1.515-.921v3.14h1.532v1.188h-1.532v5.25q0 .656.078.844.079.187.25.297.188.11.532.11.25 0 .672-.063zm1.501-9.297v-1.75h1.516v1.75zm0 10.656v-8.984h1.516v8.984zm4.194 0v-7.797h-1.344v-1.187h1.344v-.954q0-.906.172-1.343.219-.594.765-.953.563-.375 1.563-.375.64 0 1.422.14l-.235 1.328q-.468-.078-.89-.078-.703 0-1 .297-.281.297-.281 1.11v.828h1.75v1.187h-1.75v7.797zm4.392 3.453l-.172-1.422q.5.14.875.14.5 0 .797-.171.313-.172.516-.484.14-.22.453-1.125l.14-.375-3.406-9h1.641l1.875 5.203q.36.984.64 2.078.266-1.047.626-2.047l1.922-5.234h1.53l-3.421 9.14q-.547 1.485-.86 2.031-.406.75-.937 1.094-.516.36-1.234.36-.453 0-.985-.188zm7.847-3.453v-1.734h1.734v1.734q0 .953-.344 1.531-.343.594-1.078.922l-.422-.656q.485-.203.703-.625.235-.406.266-1.172zM397.775 283.805l1.516-.234q.125.906.703 1.39.578.485 1.61.485 1.062 0 1.562-.422.516-.437.516-1.015 0-.516-.454-.813-.312-.203-1.562-.516-1.672-.421-2.328-.718-.64-.313-.985-.86-.328-.547-.328-1.203 0-.61.282-1.11.28-.515.75-.859.359-.265.968-.437.61-.188 1.313-.188 1.062 0 1.86.313.796.297 1.171.828.39.516.531 1.375l-1.484.203q-.11-.687-.594-1.078-.484-.39-1.375-.39-1.047 0-1.5.343-.437.344-.437.813 0 .297.172.53.187.25.593.407.22.094 1.344.39 1.61.438 2.25.72.64.265 1 .796.375.516.375 1.297 0 .766-.453 1.438-.438.672-1.281 1.047-.828.359-1.89.359-1.75 0-2.673-.719-.922-.734-1.172-2.172zm15.008 6.125v-4.39q-.36.5-1 .828-.64.328-1.36.328-1.593 0-2.75-1.281-1.155-1.281-1.155-3.5 0-1.36.468-2.422.469-1.078 1.36-1.625.89-.563 1.968-.563 1.657 0 2.61 1.407v-1.203h1.375v12.421zm-4.703-7.953q0 1.735.719 2.61.734.859 1.75.859.984 0 1.672-.828.703-.828.703-2.5 0-1.797-.735-2.703-.734-.906-1.734-.906t-1.687.843q-.688.844-.688 2.625zm14.497 4.516v-1.313q-1.047 1.516-2.844 1.516-.797 0-1.5-.297-.688-.312-1.016-.765-.328-.47-.469-1.141-.093-.438-.093-1.422v-5.562h1.515v4.984q0 1.187.094 1.61.156.593.61.937.468.344 1.156.344.687 0 1.28-.344.61-.36.86-.953.25-.61.25-1.766v-4.812h1.516v8.984zm9.605-1.11q-.843.72-1.625 1.016-.78.297-1.672.297-1.484 0-2.28-.719-.798-.734-.798-1.86 0-.655.297-1.202.313-.547.797-.875.484-.328 1.094-.5.437-.11 1.344-.219 1.843-.219 2.718-.531.016-.313.016-.39 0-.938-.438-1.313-.578-.516-1.734-.516-1.078 0-1.594.375-.5.375-.75 1.328l-1.484-.203q.203-.953.656-1.531.469-.594 1.344-.906.89-.329 2.047-.329 1.156 0 1.875.282.719.265 1.047.672.343.406.484 1.03.078.391.078 1.407v2.031q0 2.125.094 2.688.094.562.39 1.078h-1.593q-.235-.469-.313-1.11zm-.125-3.406q-.828.344-2.484.578-.938.141-1.328.313-.39.172-.61.5-.203.312-.203.719 0 .609.453 1.015.47.407 1.36.407.875 0 1.562-.391.688-.39 1.016-1.047.234-.516.234-1.531zm3.887 4.516v-8.984h1.375v1.359q.516-.953.954-1.25.453-.313.984-.313.781 0 1.562.485l-.515 1.422q-.563-.328-1.125-.328-.5 0-.89.296-.391.297-.563.829-.266.812-.266 1.78v4.704zm11.943-2.89l1.562.187q-.36 1.39-1.375 2.156-1 .75-2.562.75-1.985 0-3.14-1.203-1.142-1.219-1.142-3.422 0-2.266 1.157-3.516 1.172-1.25 3.03-1.25 1.813 0 2.954 1.235 1.14 1.219 1.14 3.437 0 .14-.015.407h-6.703q.094 1.484.844 2.28.75.782 1.875.782.843 0 1.437-.437.594-.438.938-1.407zm-5-2.47h5.015q-.11-1.124-.578-1.703-.734-.875-1.89-.875-1.047 0-1.766.704-.703.703-.781 1.875z" fill="#000"/><path d="M497.609 253.607a8.12 8.12 0 018.121-8.121h47.16a8.121 8.121 0 018.12 8.12v32.483a8.12 8.12 0 01-8.12 8.121h-47.16a8.12 8.12 0 01-8.121-8.12z" fill="#9fc5e8" fill-rule="evenodd"/><path d="M497.609 253.607a8.12 8.12 0 018.121-8.121h47.16a8.121 8.121 0 018.12 8.12v32.483a8.12 8.12 0 01-8.12 8.121h-47.16a8.12 8.12 0 01-8.121-8.12z" stroke="#073763" stroke-linecap="butt" stroke-linejoin="round" stroke-width="2"/><path d="M514.686 275.988v-12.406h1.64v10.937h6.11v1.469zm9.715 0v-12.406h4.672q1.234 0 1.89.125.907.14 1.516.578.625.422 1 1.203.39.766.39 1.687 0 1.579-1.015 2.672-1 1.094-3.64 1.094h-3.172v5.047zm1.64-6.5h3.204q1.593 0 2.25-.594.672-.594.672-1.672 0-.78-.391-1.328-.39-.562-1.031-.734-.422-.11-1.532-.11h-3.171zm9.996 6.5v-12.406h8.375v1.468h-6.735v3.844h5.828v1.453h-5.828v5.641z" fill="#000"/><path d="M470.932 269.853h26.678"/><path d="M470.932 269.853h20.678" stroke="#000" stroke-linecap="butt" stroke-linejoin="round"/><path d="M491.61 271.505l4.538-1.652-4.538-1.652z" fill="#000" fill-rule="evenodd" stroke="#000" stroke-linecap="butt"/><path d="M587.688 253.635a8.12 8.12 0 018.12-8.12h56.924a8.12 8.12 0 018.121 8.12v32.483a8.12 8.12 0 01-8.12 8.12h-56.924a8.12 8.12 0 01-8.121-8.12z" fill="#93c47d" fill-rule="evenodd"/><path d="M587.688 253.635a8.12 8.12 0 018.12-8.12h56.924a8.12 8.12 0 018.121 8.12v32.483a8.12 8.12 0 01-8.12 8.12h-56.924a8.12 8.12 0 01-8.121-8.12z" stroke="#274e13" stroke-linecap="butt" stroke-linejoin="round" stroke-width="2"/><path d="M601.543 276.017V263.61h4.671q1.235 0 1.891.125.906.141 1.516.579.625.421 1 1.203.39.765.39 1.687 0 1.578-1.015 2.672-1 1.094-3.641 1.094h-3.172v5.047zm1.64-6.5h3.203q1.594 0 2.25-.594.672-.594.672-1.672 0-.781-.39-1.328-.391-.563-1.032-.734-.422-.11-1.531-.11h-3.172zm18.761 2.156l1.64.406q-.515 2.031-1.859 3.094-1.343 1.062-3.281 1.062-2 0-3.266-.812-1.25-.828-1.906-2.375-.656-1.547-.656-3.328 0-1.938.734-3.375.75-1.453 2.11-2.188 1.375-.75 3.015-.75 1.86 0 3.125.953 1.282.938 1.766 2.657l-1.61.375q-.437-1.344-1.265-1.953-.813-.625-2.047-.625-1.437 0-2.406.687-.953.672-1.344 1.828-.375 1.156-.375 2.39 0 1.579.453 2.766.469 1.172 1.438 1.766.968.578 2.109.578 1.375 0 2.328-.797.953-.797 1.297-2.359zm3.701 4.344V263.61h8.97v1.47h-7.33v3.796h6.86v1.453h-6.86v4.219h7.61v1.469zm11.496 0V263.61h1.687l6.516 9.735v-9.735h1.578v12.407h-1.688l-6.515-9.75v9.75z" fill="#000"/><path d="M561.01 269.848l26.678.031"/><path d="M561.01 269.848l20.678.024" stroke="#000" stroke-linecap="butt" stroke-linejoin="round"/><path d="M581.686 271.524l4.54-1.646-4.536-1.657z" fill="#000" fill-rule="evenodd" stroke="#000" stroke-linecap="butt"/><path d="M697.563 248.13H876.21v43.497H697.563z"/><path d="M714.657 272.534l1.719.219q-.282 1.796-1.453 2.812-1.157 1-2.86 1-2.125 0-3.422-1.39-1.297-1.391-1.297-3.985 0-1.687.547-2.937.563-1.266 1.703-1.891 1.141-.64 2.485-.64 1.687 0 2.75.859 1.078.86 1.39 2.422l-1.718.265q-.235-1.047-.86-1.562-.625-.532-1.5-.532-1.328 0-2.156.954-.828.953-.828 3 0 2.093.797 3.046.797.938 2.094.938 1.03 0 1.718-.625.703-.64.89-1.953zm3.219 3.797v-14.313h1.765v5.125q1.235-1.422 3.11-1.422 1.14 0 1.984.453.86.454 1.219 1.266.375.797.375 2.313v6.578h-1.75v-6.578q0-1.313-.578-1.907-.578-.609-1.61-.609-.781 0-1.484.406-.688.406-.984 1.11-.282.687-.282 1.906v5.672zm17.904-1.282q-.984.829-1.89 1.172-.907.344-1.938.344-1.703 0-2.625-.828-.922-.844-.922-2.14 0-.766.344-1.391.36-.625.922-1 .562-.39 1.265-.594.516-.125 1.563-.266 2.125-.25 3.125-.593.015-.36.015-.47 0-1.062-.5-1.515-.672-.594-2-.594-1.25 0-1.843.438-.579.437-.86 1.547l-1.719-.235q.235-1.109.766-1.78.531-.688 1.547-1.048 1.016-.375 2.36-.375 1.327 0 2.156.313.828.312 1.218.797.39.468.547 1.187.094.453.094 1.625v2.344q0 2.453.11 3.11.109.64.452 1.234h-1.843q-.266-.547-.344-1.282zm-.156-3.921q-.953.39-2.875.656-1.078.156-1.532.36-.437.187-.687.562-.25.375-.25.843 0 .704.531 1.172.531.47 1.563.47 1.015 0 1.797-.438.796-.454 1.171-1.22.282-.609.282-1.765zm4.498 5.203v-10.375h1.593v1.484q1.141-1.719 3.297-1.719.938 0 1.72.344.796.328 1.187.875.39.547.546 1.297.094.5.094 1.719v6.375h-1.765v-6.313q0-1.078-.204-1.61-.203-.53-.734-.843-.516-.312-1.219-.312-1.125 0-1.937.718-.813.703-.813 2.688v5.672zm11.123 0v-10.375h1.594v1.484q1.14-1.719 3.296-1.719.938 0 1.72.344.796.328 1.187.875.39.547.547 1.297.093.5.093 1.719v6.375h-1.765v-6.313q0-1.078-.203-1.61-.204-.53-.735-.843-.515-.312-1.219-.312-1.125 0-1.937.718-.813.703-.813 2.688v5.672zm18.232-3.344l1.813.234q-.422 1.578-1.594 2.47-1.156.874-2.969.874-2.265 0-3.61-1.39-1.327-1.407-1.327-3.938 0-2.625 1.343-4.063 1.344-1.453 3.5-1.453 2.079 0 3.391 1.422 1.328 1.406 1.328 3.985 0 .156-.015.468h-7.735q.094 1.703.969 2.61.875.906 2.172.906.969 0 1.64-.5.688-.516 1.094-1.625zm-5.781-2.844h5.797q-.11-1.297-.656-1.953-.844-1.016-2.188-1.016-1.203 0-2.031.813-.828.797-.922 2.156zm9.764 6.188v-14.313h1.75v14.313zm18.78-1.688v1.688h-9.452q-.016-.64.203-1.219.36-.969 1.156-1.906.797-.938 2.297-2.172 2.344-1.906 3.156-3.016.828-1.125.828-2.125 0-1.047-.75-1.765-.75-.72-1.953-.72-1.265 0-2.031.766-.766.766-.766 2.11l-1.812-.188q.187-2.015 1.39-3.078 1.22-1.062 3.266-1.062 2.047 0 3.25 1.14 1.203 1.141 1.203 2.828 0 .86-.36 1.704-.343.828-1.155 1.75-.813.906-2.703 2.515-1.594 1.328-2.047 1.797-.438.469-.735.953zM711.235 304.534q-1.453-1.828-2.453-4.281-1-2.47-1-5.11 0-2.328.75-4.453.875-2.469 2.703-4.922h1.266q-1.188 2.031-1.563 2.906-.594 1.344-.937 2.813-.422 1.828-.422 3.672 0 4.687 2.922 9.375zm11.941-15.016l-1.75.14q-.234-1.03-.656-1.5-.719-.765-1.765-.765-.844 0-1.47.469-.827.61-1.312 1.781-.484 1.156-.5 3.297.641-.953 1.547-1.422.922-.469 1.938-.469 1.75 0 2.984 1.297 1.234 1.282 1.234 3.328 0 1.36-.578 2.516t-1.593 1.781q-1.016.61-2.313.61-2.187 0-3.578-1.61-1.39-1.625-1.39-5.343 0-4.141 1.53-6.032 1.344-1.64 3.61-1.64 1.687 0 2.766.953 1.078.937 1.296 2.61zm-7.171 6.172q0 .906.375 1.734.39.829 1.078 1.266.703.438 1.453.438 1.125 0 1.922-.891.797-.906.797-2.453 0-1.485-.797-2.328-.782-.86-1.985-.86-1.187 0-2.015.86-.828.843-.828 2.234zm18.404 2.953v1.688h-9.453q-.016-.64.203-1.219.36-.969 1.156-1.906.797-.938 2.297-2.172 2.344-1.906 3.156-3.016.828-1.125.828-2.125 0-1.047-.75-1.765-.75-.72-1.953-.72-1.265 0-2.031.766-.766.766-.766 2.11l-1.812-.188q.187-2.015 1.39-3.078 1.22-1.062 3.266-1.062 2.047 0 3.25 1.14 1.203 1.141 1.203 2.828 0 .86-.36 1.704-.343.828-1.155 1.75-.813.906-2.703 2.515-1.594 1.328-2.047 1.797-.438.469-.735.953zm7.53 1.688v-3.422h-6.22v-1.625l6.532-9.266h1.437v9.266h1.938v1.625h-1.938v3.422zm0-5.047v-6.453l-4.485 6.453zm12.107 5.047h-1.766v-11.203q-.625.609-1.656 1.218-1.032.594-1.86.907v-1.704q1.485-.687 2.578-1.671 1.11-1 1.563-1.922h1.14zm10.836 0v-14.313h1.89v5.875h7.438v-5.875h1.89v14.313h-1.89v-6.75h-7.438v6.75zm13.224 0v-1.422l6.61-7.578q-1.125.047-1.985.047h-4.234v-1.422h8.484v1.172l-5.625 6.578-1.078 1.203q1.172-.094 2.219-.094h4.797v1.516zm12.078 4.203h-1.25q2.907-4.688 2.907-9.375 0-1.844-.407-3.64-.343-1.47-.937-2.813-.375-.89-1.563-2.938h1.25q1.844 2.453 2.719 4.922.75 2.125.75 4.453 0 2.64-1.016 5.11-1 2.453-2.453 4.28z" fill="#000"/><path d="M660.853 269.877h36.724"/><path d="M660.853 269.877h30.724" stroke="#000" stroke-linecap="butt" stroke-linejoin="round"/><path d="M691.577 271.528l4.539-1.651-4.539-1.652z" fill="#000" fill-rule="evenodd" stroke="#000" stroke-linecap="butt"/><path d="M324.745 269.864h51.78"/><path d="M324.745 269.864h45.78" stroke="#000" stroke-linecap="butt" stroke-linejoin="round"/><path d="M370.525 271.515l4.538-1.651-4.538-1.652z" fill="#000" fill-rule="evenodd" stroke="#000" stroke-linecap="butt"/><path d="M106.126 9.85h238.866v38.96H106.126z"/><path d="M152.198 34.641l3.172 1.016q-.734 2.656-2.438 3.953-1.687 1.281-4.296 1.281-3.235 0-5.313-2.203-2.078-2.219-2.078-6.047 0-4.047 2.078-6.281 2.094-2.25 5.5-2.25 2.984 0 4.844 1.765 1.11 1.032 1.656 2.985l-3.234.781q-.297-1.266-1.22-2-.905-.734-2.202-.734-1.813 0-2.938 1.297-1.11 1.296-1.11 4.203 0 3.062 1.095 4.375 1.11 1.312 2.89 1.312 1.297 0 2.235-.828.937-.844 1.36-2.625zm20.596 5.969h-3.547l-1.422-3.688h-6.484l-1.344 3.688h-3.469l6.313-16.219h3.469zm-6.016-6.422l-2.234-6.016-2.203 6.016zm7.768 6.422V24.39h6.89q2.61 0 3.782.438 1.172.437 1.875 1.562.719 1.11.719 2.547 0 1.828-1.078 3.016-1.063 1.187-3.203 1.5 1.062.625 1.75 1.359.703.734 1.875 2.64l1.968 3.157h-3.906l-2.375-3.531q-1.265-1.891-1.734-2.375-.453-.5-.985-.672-.515-.188-1.64-.188h-.656v6.766h-3.282zm3.282-9.36h2.421q2.36 0 2.938-.187.594-.203.922-.688.328-.5.328-1.218 0-.828-.438-1.328-.437-.5-1.234-.641-.39-.047-2.39-.047h-2.547zm13.158 9.36V24.532h3.281v13.343h8.14v2.735zm18.256-11.75h1.719v-.89q0-1.47.312-2.204.328-.734 1.172-1.187.844-.47 2.14-.47 1.329 0 2.594.407l-.422 2.172q-.734-.188-1.421-.188-.672 0-.97.329-.296.312-.296 1.203v.828h2.328v2.453h-2.328v9.297h-3.11v-9.297h-1.718zm8.904-1.594v-2.875h3.11v2.875zm0 13.344V28.86h3.11v11.75zm6.294 0V24.39h3.11V40.61zm11.686-11.75v2.484H234v4.735q0 1.437.062 1.671.063.235.266.391.219.156.531.156.438 0 1.25-.297l.266 2.407q-1.078.468-2.453.468-.844 0-1.516-.28-.672-.282-1-.72-.313-.453-.422-1.218-.11-.547-.11-2.203v-5.11h-1.421V28.86h1.422v-2.328L234 24.719v4.14h2.125zm8.966 8.015l3.094.516q-.594 1.703-1.89 2.594-1.282.89-3.22.89-3.062 0-4.546-2-1.156-1.609-1.156-4.046 0-2.922 1.515-4.579 1.531-1.656 3.875-1.656 2.625 0 4.14 1.735 1.516 1.734 1.438 5.296h-7.78q.03 1.391.75 2.157.718.765 1.796.765.719 0 1.219-.39.5-.407.765-1.282zm.172-3.14q-.031-1.36-.703-2.063-.656-.703-1.61-.703-1.015 0-1.687.75-.656.735-.656 2.016zm8.6 6.875h-3.109V28.86h2.875v1.672q.75-1.188 1.344-1.563.594-.375 1.344-.375 1.062 0 2.047.594l-.97 2.703q-.78-.5-1.452-.5-.657 0-1.11.36-.453.359-.718 1.296-.25.938-.25 3.938v3.625zm5.708 0V24.39h3.11v5.844q1.437-1.64 3.406-1.64 2.14 0 3.547 1.562 1.406 1.547 1.406 4.453 0 3.015-1.438 4.64-1.437 1.625-3.484 1.625-1 0-1.984-.5-.97-.5-1.688-1.484v1.719zm3.078-6.125q0 1.828.578 2.703.813 1.234 2.14 1.234 1.032 0 1.75-.875.735-.89.735-2.781 0-2.016-.734-2.906-.734-.89-1.875-.89-1.11 0-1.86.874-.734.86-.734 2.64zm13.215-2.047l-2.829-.5q.485-1.703 1.641-2.516 1.156-.828 3.453-.828 2.078 0 3.094.5 1.016.485 1.422 1.25.422.75.422 2.781l-.032 3.625q0 1.547.141 2.282.156.734.578 1.578h-3.078q-.125-.313-.297-.922-.078-.266-.11-.36-.796.766-1.718 1.157-.906.39-1.922.39-1.828 0-2.875-.984-1.031-.984-1.031-2.484 0-1 .469-1.782.484-.78 1.328-1.187.86-.422 2.484-.734 2.172-.407 3.016-.766v-.297q0-.906-.453-1.281-.438-.39-1.657-.39-.828 0-1.296.327-.47.328-.75 1.14zm4.156 2.531q-.594.203-1.89.485-1.298.265-1.688.53-.61.438-.61 1.095 0 .656.485 1.14.484.469 1.234.469.844 0 1.61-.563.562-.406.734-1.015.125-.406.125-1.516zm16.803 5.64h-3.11v-6q0-1.905-.202-2.452-.188-.563-.64-.875-.454-.313-1.079-.313-.813 0-1.453.453-.64.438-.875 1.172-.235.719-.235 2.688v5.328h-3.109V28.86h2.875v1.734q1.547-2 3.875-2 1.031 0 1.875.375.86.375 1.297.953.437.563.61 1.297.171.735.171 2.094zm3.043 0V24.392h3.11v8.61l3.64-4.141h3.828l-4.016 4.297 4.297 7.453h-3.344l-2.953-5.281-1.453 1.515v3.766z" fill="#783f04"/><path d="M724.394 323.974h51.748v38.96h-51.748z"/><path d="M749.58 344.361q-.562-.578-.562-1.343 0-.766.562-1.344.578-.563 1.344-.563.766 0 1.344.563.562.578.562 1.344 0 .765-.562 1.343-.578.563-1.344.563-.766 0-1.344-.563zm0-5.875q-.562-.578-.562-1.343 0-.766.562-1.344.578-.563 1.344-.563.766 0 1.344.563.562.578.562 1.344 0 .765-.562 1.343-.578.563-1.344.563-.766 0-1.344-.563zm0 11.75q-.562-.578-.562-1.343 0-.766.562-1.344.578-.563 1.344-.563.766 0 1.344.563.562.578.562 1.344 0 .765-.562 1.343-.578.563-1.344.563-.766 0-1.344-.563z" fill="#000"/></g></svg>